<?xml version="1.0" encoding="utf-8"?>
<svg viewBox="0 0 500 500" xmlns="http://www.w3.org/2000/svg">
  <circle style="paint-order: stroke;" cx="226.969" cy="240.654" r="37.03" transform="matrix(-1.53181, 0, 0, -1.567865, 587.85376, 631.840515)"/>
  <path style="stroke: rgb(0, 0, 0); fill: rgba(0, 0, 0, 0); paint-order: fill; stroke-width: 6px;" d="M 185.29 189.276 C 235.476 189.28 266.837 243.611 241.74 287.07 C 228.156 310.595 204.078 324.565 177.279 320.117" transform="matrix(-1, 0, 0, -1, 425.183563, 508.940796)"/>
  <path d="M 239.716 241.405 L 250.516 241.405 L 250.516 245.005 L 243.676 245.005 L 243.676 251.665 L 249.112 251.665 L 249.112 255.265 L 243.676 255.265 L 243.676 263.005 L 250.516 263.005 L 250.516 266.605 L 239.716 266.605 L 239.716 241.405 Z M 252.794 241.405 L 257.762 241.405 L 261.614 256.489 L 261.686 256.489 L 261.686 241.405 L 265.214 241.405 L 265.214 266.605 L 261.146 266.605 L 256.394 248.209 L 256.322 248.209 L 256.322 266.605 L 252.794 266.605 L 252.794 241.405 Z M 271.254 245.005 L 267.114 245.005 L 267.114 241.405 L 279.354 241.405 L 279.354 245.005 L 275.214 245.005 L 275.214 266.605 L 271.254 266.605 L 271.254 245.005 Z M 281.271 241.405 L 287.139 241.405 C 289.179 241.405 290.667 241.885 291.603 242.845 C 292.539 243.781 293.007 245.233 293.007 247.201 L 293.007 248.749 C 293.007 251.365 292.143 253.021 290.415 253.717 L 290.415 253.789 C 291.375 254.077 292.047 254.665 292.431 255.553 C 292.839 256.441 293.043 257.629 293.043 259.117 L 293.043 263.545 C 293.043 264.265 293.067 264.853 293.115 265.309 C 293.163 265.741 293.283 266.173 293.475 266.605 L 289.443 266.605 C 289.299 266.197 289.203 265.813 289.155 265.453 C 289.107 265.093 289.083 264.445 289.083 263.509 L 289.083 258.901 C 289.083 257.749 288.891 256.945 288.507 256.489 C 288.147 256.033 287.511 255.805 286.599 255.805 L 285.231 255.805 L 285.231 266.605 L 281.271 266.605 L 281.271 241.405 Z M 286.671 252.205 C 287.463 252.205 288.051 252.001 288.435 251.593 C 288.843 251.185 289.047 250.501 289.047 249.541 L 289.047 247.597 C 289.047 246.685 288.879 246.025 288.543 245.617 C 288.231 245.209 287.727 245.005 287.031 245.005 L 285.231 245.005 L 285.231 252.205 L 286.671 252.205 Z M 295.791 241.405 L 306.591 241.405 L 306.591 245.005 L 299.751 245.005 L 299.751 251.665 L 305.187 251.665 L 305.187 255.265 L 299.751 255.265 L 299.751 263.005 L 306.591 263.005 L 306.591 266.605 L 295.791 266.605 L 295.791 241.405 Z M 307.825 241.405 L 311.821 241.405 L 314.413 260.953 L 314.485 260.953 L 317.077 241.405 L 320.713 241.405 L 316.897 266.605 L 311.641 266.605 L 307.825 241.405 Z M 322.615 241.405 L 326.575 241.405 L 326.575 266.605 L 322.615 266.605 L 322.615 241.405 Z M 329.541 241.405 L 333.501 241.405 L 333.501 263.005 L 340.017 263.005 L 340.017 266.605 L 329.541 266.605 L 329.541 241.405 Z M 341.916 241.405 L 345.876 241.405 L 345.876 263.005 L 352.392 263.005 L 352.392 266.605 L 341.916 266.605 L 341.916 241.405 Z M 354.291 241.405 L 365.091 241.405 L 365.091 245.005 L 358.251 245.005 L 358.251 251.665 L 363.687 251.665 L 363.687 255.265 L 358.251 255.265 L 358.251 263.005 L 365.091 263.005 L 365.091 266.605 L 354.291 266.605 L 354.291 241.405 Z" fill="#F5FA12"/>
</svg>