<?xml version="1.0" encoding="utf-8"?>
<svg viewBox="-2.003 244.326 411.883 270.36" xmlns="http://www.w3.org/2000/svg" xmlns:bx="https://boxy-svg.com">
  <path style="stroke: rgb(0, 0, 0); fill: rgba(0, 0, 0, 0); paint-order: stroke; stroke-width: 5px;" d="M 65.85 307.494 C 124.719 307.498 161.508 354.943 132.069 392.893 C 116.133 413.437 87.889 425.636 56.452 421.751" transform="matrix(-1, 0, 0, -1, 198.883675, 729.963043)"/>
  <path d="M 341.333 404.333 m -33.538 0 a 33.538 31.89 0 1 0 67.076 0 a 33.538 31.89 0 1 0 -67.076 0 Z M 341.333 404.333 m -28.843 0 a 28.843 27.425 0 0 1 57.686 0 a 28.843 27.425 0 0 1 -57.686 0 Z" style="stroke-width: 0.679;" transform="matrix(-0.478853, 0.877895, -0.877895, -0.478853, 651.120456, 280.889013)" bx:shape="ring 341.333 404.333 28.843 27.425 33.538 31.89 1@6f5a69dc"/>
  <path d="M 132.239 407.628 L 147.869 407.628 L 147.869 411.419 L 137.97 411.419 L 137.97 418.432 L 145.837 418.432 L 145.837 422.223 L 137.97 422.223 L 137.97 430.372 L 147.869 430.372 L 147.869 434.163 L 132.239 434.163 L 132.239 407.628 Z M 151.166 407.628 L 158.356 407.628 L 163.931 423.511 L 164.035 423.511 L 164.035 407.628 L 169.141 407.628 L 169.141 434.163 L 163.254 434.163 L 156.376 414.793 L 156.272 414.793 L 156.272 434.163 L 151.166 434.163 L 151.166 407.628 Z M 177.883 411.419 L 171.891 411.419 L 171.891 407.628 L 189.605 407.628 L 189.605 411.419 L 183.614 411.419 L 183.614 434.163 L 177.883 434.163 L 177.883 411.419 Z M 192.38 407.628 L 200.872 407.628 C 203.825 407.628 205.978 408.134 207.333 409.145 C 208.687 410.13 209.365 411.658 209.365 413.731 L 209.365 415.361 C 209.365 418.115 208.114 419.86 205.613 420.593 L 205.613 420.669 C 207.003 420.971 207.975 421.591 208.531 422.526 C 209.122 423.46 209.417 424.711 209.417 426.278 L 209.417 430.942 C 209.417 431.699 209.452 432.319 209.521 432.798 C 209.591 433.253 209.764 433.708 210.042 434.163 L 204.207 434.163 C 203.998 433.733 203.859 433.329 203.79 432.95 C 203.72 432.572 203.686 431.889 203.686 430.903 L 203.686 426.051 C 203.686 424.837 203.408 423.991 202.852 423.511 C 202.331 423.032 201.411 422.791 200.091 422.791 L 198.111 422.791 L 198.111 434.163 L 192.38 434.163 L 192.38 407.628 Z M 200.195 419 C 201.341 419 202.192 418.786 202.748 418.356 C 203.338 417.926 203.634 417.205 203.634 416.195 L 203.634 414.148 C 203.634 413.187 203.39 412.493 202.904 412.063 C 202.453 411.633 201.723 411.419 200.716 411.419 L 198.111 411.419 L 198.111 419 L 200.195 419 Z M 213.394 407.628 L 229.024 407.628 L 229.024 411.419 L 219.125 411.419 L 219.125 418.432 L 226.992 418.432 L 226.992 422.223 L 219.125 422.223 L 219.125 430.372 L 229.024 430.372 L 229.024 434.163 L 213.394 434.163 L 213.394 407.628 Z M 230.81 407.628 L 236.593 407.628 L 240.345 428.212 L 240.449 428.212 L 244.2 407.628 L 249.462 407.628 L 243.94 434.163 L 236.333 434.163 L 230.81 407.628 Z M 252.215 407.628 L 257.946 407.628 L 257.946 434.163 L 252.215 434.163 L 252.215 407.628 Z M 262.239 407.628 L 267.97 407.628 L 267.97 430.372 L 277.4 430.372 L 277.4 434.163 L 262.239 434.163 L 262.239 407.628 Z M 280.149 407.628 L 285.88 407.628 L 285.88 430.372 L 295.31 430.372 L 295.31 434.163 L 280.149 434.163 L 280.149 407.628 Z M 298.058 407.628 L 313.689 407.628 L 313.689 411.419 L 303.79 411.419 L 303.79 418.432 L 311.657 418.432 L 311.657 422.223 L 303.79 422.223 L 303.79 430.372 L 313.689 430.372 L 313.689 434.163 L 298.058 434.163 L 298.058 407.628 Z" style="stroke-width: 1.524;"/>
  <path d="M 156 351 m -48.736 0 a 48.736 48.736 0 1 0 97.472 0 a 48.736 48.736 0 1 0 -97.472 0 Z M 156 351 m -43.862 0 a 43.862 43.862 0 0 1 87.724 0 a 43.862 43.862 0 0 1 -87.724 0 Z" style="stroke-width: 5px;" transform="matrix(-0.588986, 0.808143, -0.808143, -0.588986, 510.386589, 456.609393)" bx:shape="ring 156 351 43.862 43.862 48.736 48.736 1@486234c9"/>
  <line style="stroke: rgb(0, 0, 0); stroke-width: 5px;" x1="132.17621370386567" y1="422.0070555229846" x2="343.7916780986806" y2="420.6719626194317"/>
  <path d="M 341.333 404.333 m -42.435 0 a 42.435 42.066 0 1 0 84.87 0 a 42.435 42.066 0 1 0 -84.87 0 Z M 341.333 404.333 m -36.495 0 a 36.495 36.176 0 0 1 72.99 0 a 36.495 36.176 0 0 1 -72.99 0 Z" style="stroke-width: 0.877;" transform="matrix(-0.478853, 0.877895, -0.877895, -0.478853, 651.921543, 274.580084)" bx:shape="ring 341.333 404.333 36.495 36.176 42.435 42.066 1@7f37edfa"/>
  <path d="M 341.333 404.333 m -26.026 0 a 26.026 24.751 0 1 0 52.052 0 a 26.026 24.751 0 1 0 -52.052 0 Z M 341.333 404.333 m -22.383 0 a 22.383 21.285 0 0 1 44.766 0 a 22.383 21.285 0 0 1 -44.766 0 Z" style="stroke-width: 0.527;" transform="matrix(-0.478853, 0.877895, -0.877895, -0.478853, 650.586521, 284.59342)" bx:shape="ring 341.333 404.333 22.383 21.285 26.026 24.751 1@859c2df2"/>
</svg>