<?xml version="1.0" encoding="utf-8"?>
<svg viewBox="0 0 500 500" xmlns="http://www.w3.org/2000/svg" xmlns:bx="https://boxy-svg.com">
  <path style="stroke: rgb(0, 0, 0); fill: rgba(0, 0, 0, 0); paint-order: fill; stroke-width: 16.432;" d="M 197.694 188.669 C 241.937 188.673 269.585 239.974 247.46 281.009 C 235.484 303.222 214.257 316.413 190.631 312.213" transform="matrix(-1, 0, 0, -1, 445.879257, 501.658173)"/>
  <path d="M 133.333 407 m -46.087 0 a 46.087 46.875 0 1 0 92.174 0 a 46.087 46.875 0 1 0 -92.174 0 Z M 133.333 407 m -27.652 0 a 27.652 28.124 0 0 1 55.304 0 a 27.652 28.124 0 0 1 -55.304 0 Z" style="stroke-width: 0.737;" transform="matrix(-0.588172, 0.808736, -0.808736, -0.588172, 661.128238, 383.468792)" bx:shape="ring 133.333 407 27.652 28.124 46.087 46.875 1@ccbf5db1"/>
  <path d="M 246.391 239.403 L 257.191 239.403 L 257.191 243.003 L 250.351 243.003 L 250.351 249.663 L 255.787 249.663 L 255.787 253.263 L 250.351 253.263 L 250.351 261.003 L 257.191 261.003 L 257.191 264.603 L 246.391 264.603 L 246.391 239.403 Z M 259.469 239.403 L 264.437 239.403 L 268.289 254.487 L 268.361 254.487 L 268.361 239.403 L 271.889 239.403 L 271.889 264.603 L 267.821 264.603 L 263.069 246.207 L 262.997 246.207 L 262.997 264.603 L 259.469 264.603 L 259.469 239.403 Z M 277.929 243.003 L 273.789 243.003 L 273.789 239.403 L 286.029 239.403 L 286.029 243.003 L 281.889 243.003 L 281.889 264.603 L 277.929 264.603 L 277.929 243.003 Z M 287.946 239.403 L 293.814 239.403 C 295.854 239.403 297.342 239.883 298.278 240.843 C 299.214 241.779 299.682 243.231 299.682 245.199 L 299.682 246.747 C 299.682 249.363 298.818 251.019 297.09 251.715 L 297.09 251.787 C 298.05 252.075 298.722 252.663 299.106 253.551 C 299.514 254.439 299.718 255.627 299.718 257.115 L 299.718 261.543 C 299.718 262.263 299.742 262.851 299.79 263.307 C 299.838 263.739 299.958 264.171 300.15 264.603 L 296.118 264.603 C 295.974 264.195 295.878 263.811 295.83 263.451 C 295.782 263.091 295.758 262.443 295.758 261.507 L 295.758 256.899 C 295.758 255.747 295.566 254.943 295.182 254.487 C 294.822 254.031 294.186 253.803 293.274 253.803 L 291.906 253.803 L 291.906 264.603 L 287.946 264.603 L 287.946 239.403 Z M 293.346 250.203 C 294.138 250.203 294.726 249.999 295.11 249.591 C 295.518 249.183 295.722 248.499 295.722 247.539 L 295.722 245.595 C 295.722 244.683 295.554 244.023 295.218 243.615 C 294.906 243.207 294.402 243.003 293.706 243.003 L 291.906 243.003 L 291.906 250.203 L 293.346 250.203 Z M 302.466 239.403 L 313.266 239.403 L 313.266 243.003 L 306.426 243.003 L 306.426 249.663 L 311.862 249.663 L 311.862 253.263 L 306.426 253.263 L 306.426 261.003 L 313.266 261.003 L 313.266 264.603 L 302.466 264.603 L 302.466 239.403 Z M 314.5 239.403 L 318.496 239.403 L 321.088 258.951 L 321.16 258.951 L 323.752 239.403 L 327.388 239.403 L 323.572 264.603 L 318.316 264.603 L 314.5 239.403 Z M 329.29 239.403 L 333.25 239.403 L 333.25 264.603 L 329.29 264.603 L 329.29 239.403 Z M 336.216 239.403 L 340.176 239.403 L 340.176 261.003 L 346.692 261.003 L 346.692 264.603 L 336.216 264.603 L 336.216 239.403 Z M 348.591 239.403 L 352.551 239.403 L 352.551 261.003 L 359.067 261.003 L 359.067 264.603 L 348.591 264.603 L 348.591 239.403 Z M 360.966 239.403 L 371.766 239.403 L 371.766 243.003 L 364.926 243.003 L 364.926 249.663 L 370.362 249.663 L 370.362 253.263 L 364.926 253.263 L 364.926 261.003 L 371.766 261.003 L 371.766 264.603 L 360.966 264.603 L 360.966 239.403 Z" fill="#F5FA12"/>
</svg>