<?xml version="1.0" encoding="utf-8"?>
<svg viewBox="0 0 500 500" xmlns="http://www.w3.org/2000/svg" xmlns:bx="https://boxy-svg.com">
  <path d="M 250.334 245.995 Q 250.334 245.182 251.074 244.713 Q 251.865 244.212 252.898 244.514 Q 254.047 244.851 254.776 245.995 Q 255.594 247.28 255.463 248.956 Q 255.316 250.83 254.035 252.406 Q 252.617 254.152 250.334 254.878 Q 247.831 255.675 245.152 254.97 Q 242.242 254.205 240.076 251.917 Q 237.743 249.451 237.009 245.995 Q 236.224 242.294 237.512 238.592 Q 238.883 234.652 242.191 231.891 Q 245.694 228.967 250.334 228.228 Q 255.227 227.45 259.958 229.327 Q 264.928 231.299 268.285 235.631 Q 271.8 240.169 272.542 245.995 Q 273.317 252.08 270.849 257.839 Q 268.278 263.839 262.919 267.792 Q 257.348 271.901 250.334 272.645 Q 243.059 273.417 236.269 270.357 Q 229.239 267.188 224.69 260.8 Q 219.989 254.198 219.243 245.995 Q 218.473 237.53 222.126 229.709 Q 225.891 221.649 233.308 216.505 Q 240.942 211.209 250.334 210.462 Q 259.99 209.694 268.841 213.94 Q 277.93 218.301 283.671 226.748 Q 289.56 235.413 290.309 245.995 Q 291.076 256.841 286.235 266.723 Q 281.278 276.842 271.802 283.178 Q 262.105 289.662 250.334 290.411 Q 238.298 291.178 227.386 285.743 Q 216.236 280.19 209.304 269.684 Q 202.226 258.956 201.476 245.995 Q 200.711 232.769 206.74 220.826 Q 212.888 208.645 224.424 201.118 Q 236.183 193.446 250.334 192.695 Q 264.75 191.931 277.724 198.554 Q 290.935 205.298 299.057 217.865 Q 307.324 230.654 308.075 245.995 Q 308.839 261.601 301.622 275.606 Q 294.282 289.847 280.685 298.565 Q 266.865 307.426 250.334 308.178 Q 233.538 308.942 218.502 301.129 Q 203.231 293.194 193.918 278.567 Q 184.462 263.716 183.71 245.995 Q 182.946 228.009 191.353 211.942 Q 199.884 195.641 215.541 185.732 Q 231.423 175.681 250.334 174.929 Q 269.511 174.166 286.607 183.168 Q 303.94 192.294 314.443 208.981 Q 325.089 225.894 325.842 245.995 Q 326.604 266.362 317.008 284.489 Q 307.287 302.852 289.568 313.951 Q 271.625 325.191 250.334 325.944 Q 228.777 326.707 209.619 316.515 Q 190.226 306.199 178.531 287.45 Q 166.696 268.476 165.943 245.995 Q 165.181 223.248 175.967 203.059 Q 186.879 182.635 206.658 170.346 Q 226.663 157.916 250.334 157.162 Q 274.271 156.4 295.491 167.782 Q 316.945 179.289 329.83 200.098 Q 342.855 221.134 343.608 245.995 Q 344.37 271.122 332.394 293.372 Q 320.292 315.857 298.452 329.337 Q 276.385 342.957 250.334 343.711 Q 224.017 344.472 200.736 331.902 Q 177.22 319.204 163.145 296.333 Q 148.93 273.236 148.176 245.995 Q 147.415 218.488 160.581 194.176 Q 173.873 169.63 197.775 154.96 Q 221.903 140.15 250.334 139.396 Q 279.031 138.635 304.374 152.395 Q 329.951 166.283 345.216 191.215 Q 360.62 216.374 361.375 245.995 Q 362.136 275.882 347.78 302.256 Q 333.297 328.863 307.335 344.724 Q 281.145 360.723 250.334 361.477 Q 219.256 362.238 191.853 347.288 Q 164.215 332.21 147.759 305.217 Q 131.164 277.996 130.41 245.995 Q 129.649 213.727 145.195 185.293 Q 160.868 156.624 188.891 139.573 Q 217.143 122.384 250.334 121.629 Q 283.792 120.869 313.257 137.009 Q 342.956 153.277 360.602 182.332 Q 378.387 211.614 379.141 245.995 Q 379.902 280.643 363.167 311.139 Q 346.303 341.869 316.218 360.11 Q 285.905 378.489 250.334 379.244 Q 214.496 380.004 182.969 362.674 Q 151.209 345.215 132.373 314.1 Q 113.398 282.756 112.643 245.995 Q 112.402 234.256 114.153 222.631" style="fill: none; stroke: black; stroke-width: 4.75923px;" transform="matrix(1.280485, 0, 0, 1.240929, -97.007103, -53.327728)" bx:shape="spiral 250.334 245.995 0 138.171 0 2799.735 1@91f47e61"/>
  <circle style="fill: rgb(216, 216, 216); opacity: 0.9;" cx="236.315" cy="248.665" r="20.027" transform="matrix(0.76667, 0, 0, 0.900002, 50.466496, 28.871468)"/>
  <text style="fill: rgb(51, 51, 51); font-family: Arial, sans-serif; font-size: 36px; letter-spacing: 5.4px; stroke-width: 2px; word-spacing: 27.3px; white-space: pre;" transform="matrix(1.214795, 0, 0, 1, -49.317986, 0.000002)" x="220.294" y="262.018">entreville</text>
</svg>