<?xml version="1.0" encoding="utf-8"?>
<svg viewBox="118.158 157.543 217.623 70.761" width="217.623" height="70.761" xmlns="http://www.w3.org/2000/svg">
  <path d="M 141.782 208.729 C 141.405 208.773 140.931 208.751 140.364 208.665 C 139.818 208.58 139.309 208.729 138.835 209.124 C 137.579 209.037 136.296 208.751 134.995 208.272 C 133.694 207.795 132.498 207.212 131.407 206.515 C 131.169 206.038 130.932 205.605 130.698 205.211 C 130.458 204.78 130.14 204.473 129.737 204.301 C 129.17 203.476 128.706 202.475 128.35 201.303 C 127.996 200.086 127.712 198.805 127.499 197.46 C 127.285 196.113 127.143 194.747 127.071 193.355 C 126.999 191.924 126.977 190.556 126.999 189.252 C 127.357 187.296 127.854 185.627 128.493 184.236 C 129.156 182.804 129.832 181.394 130.52 180.001 C 130.827 179.743 131.052 179.482 131.193 179.221 C 131.357 178.914 131.526 178.656 131.69 178.438 C 131.88 178.177 132.058 177.94 132.225 177.722 C 132.416 177.46 132.579 177.157 132.723 176.809 C 133.22 176.595 133.646 176.288 134.001 175.898 C 134.381 175.464 134.749 175.03 135.102 174.594 C 135.459 174.117 135.828 173.685 136.204 173.293 C 136.584 172.902 137.022 172.597 137.519 172.38 C 137.709 171.99 137.933 171.684 138.193 171.47 C 138.454 171.204 138.714 170.967 138.977 170.751 C 139.26 170.492 139.521 170.231 139.761 169.971 C 140.018 169.709 140.22 169.362 140.364 168.926 C 140.481 169.275 140.645 169.406 140.861 169.318 C 141.074 169.188 141.276 169.058 141.466 168.926 C 141.583 168.883 141.676 168.926 141.749 169.058 C 141.844 169.188 141.926 169.318 141.996 169.451 C 142.068 169.579 142.126 169.665 142.173 169.709 C 142.246 169.709 142.304 169.6 142.353 169.382 C 142.471 169.382 142.506 169.492 142.458 169.709 C 142.413 169.923 142.376 170.076 142.353 170.165 C 142.541 170.125 142.695 170.209 142.814 170.427 C 142.958 170.603 143.17 170.709 143.454 170.751 C 143.549 170.967 143.571 171.14 143.526 171.276 C 143.478 171.357 143.454 171.536 143.454 171.793 C 144.162 172.186 144.615 172.817 144.805 173.685 C 144.997 174.51 145.005 175.378 144.84 176.288 C 144.675 177.203 144.376 178.048 143.951 178.833 C 143.526 179.611 143.062 180.13 142.565 180.393 C 141.428 180.956 140.35 181.59 139.332 182.282 C 138.339 182.935 137.519 183.909 136.879 185.213 C 136.31 185.517 135.801 185.929 135.351 186.454 C 134.926 186.929 134.511 187.494 134.109 188.144 C 133.729 188.751 133.362 189.404 133.006 190.096 C 132.676 190.752 132.32 191.401 131.94 192.051 C 131.962 192.665 131.906 193.139 131.764 193.486 C 131.645 193.79 131.526 194.118 131.407 194.466 C 131.453 195.115 131.537 195.701 131.656 196.223 C 131.774 196.701 131.906 197.176 132.046 197.653 C 133.611 198.526 135.27 199.07 137.022 199.285 C 138.798 199.502 140.575 199.631 142.353 199.678 C 142.518 200.11 142.709 200.522 142.921 200.912 C 143.156 201.262 143.37 201.654 143.558 202.087 C 143.747 202.475 143.903 202.929 144.023 203.452 C 144.14 203.929 144.162 204.54 144.093 205.274 C 143.761 205.93 143.396 206.536 142.992 207.1 C 142.591 207.623 142.187 208.167 141.782 208.729 Z M 165.165 171.924 C 165.189 172.228 165.189 172.469 165.165 172.638 C 165.165 172.771 165.156 172.902 165.131 173.031 C 165.131 173.165 165.131 173.313 165.131 173.489 C 165.131 173.621 165.156 173.838 165.202 174.138 C 164.705 175.615 164.124 176.639 163.46 177.203 C 162.82 177.722 162.122 178.113 161.364 178.374 C 160.607 178.592 159.824 178.833 159.019 179.092 C 158.237 179.351 157.454 179.913 156.673 180.786 C 156.366 180.569 156.081 180.569 155.82 180.786 C 155.586 181 155.227 181.064 154.753 180.979 C 154.612 181.242 154.432 181.436 154.222 181.566 C 154.008 181.654 153.794 181.759 153.581 181.891 C 153.679 182.282 153.712 182.692 153.689 183.128 C 153.689 183.519 153.723 183.844 153.794 184.106 C 154.622 184.236 155.537 184.216 156.532 184.042 C 157.55 183.868 158.545 183.756 159.519 183.715 C 159.539 183.935 159.529 184.086 159.479 184.17 C 159.433 184.216 159.421 184.324 159.446 184.5 C 159.61 184.714 159.779 184.996 159.943 185.344 C 160.106 185.647 160.275 185.951 160.441 186.253 C 160.607 186.561 160.772 186.822 160.94 187.039 C 161.127 187.21 161.339 187.276 161.577 187.232 C 161.672 187.582 161.732 187.971 161.753 188.407 C 161.803 188.799 161.778 189.211 161.683 189.643 C 161.304 190.12 160.923 190.621 160.545 191.14 C 160.167 191.62 159.764 192.051 159.341 192.445 C 158.936 192.837 158.497 193.162 158.024 193.422 C 157.575 193.64 157.064 193.726 156.496 193.68 C 156.375 193.68 156.281 193.68 156.211 193.68 C 156.164 193.68 156.093 193.617 155.999 193.486 C 155.808 193.704 155.537 193.77 155.18 193.68 C 154.85 193.595 154.59 193.662 154.399 193.882 C 154.138 193.662 153.819 193.573 153.44 193.617 C 153.086 193.617 152.765 193.531 152.481 193.355 C 152.101 194.27 151.758 195.244 151.45 196.288 C 151.141 197.33 150.871 198.437 150.631 199.609 C 151.437 199.826 152.101 199.917 152.623 199.871 C 153.169 199.826 153.679 199.762 154.152 199.678 C 154.622 199.545 155.112 199.438 155.608 199.349 C 156.105 199.221 156.733 199.177 157.491 199.221 C 157.965 198.741 158.523 198.437 159.159 198.308 C 159.824 198.133 160.429 197.87 160.973 197.524 C 161.164 197.653 161.329 197.896 161.47 198.244 C 161.611 198.545 161.746 198.851 161.861 199.151 C 162.003 199.415 162.148 199.654 162.288 199.871 C 162.43 200.086 162.608 200.174 162.82 200.132 C 162.916 200.303 162.976 200.522 163 200.783 C 163.046 201 163.081 201.216 163.107 201.431 C 163.129 201.654 163.165 201.847 163.212 202.019 C 163.282 202.151 163.389 202.195 163.532 202.151 C 163.177 203.585 162.761 204.69 162.288 205.477 C 161.837 206.211 161.315 206.772 160.727 207.166 C 160.132 207.559 159.47 207.86 158.736 208.079 C 158.024 208.295 157.231 208.557 156.353 208.859 C 156.141 208.948 155.96 208.924 155.82 208.795 C 155.679 208.709 155.513 208.665 155.324 208.665 C 154.779 208.883 154.126 209.076 153.369 209.253 C 152.61 209.424 151.839 209.491 151.06 209.448 C 150.276 209.404 149.533 209.205 148.82 208.859 C 148.108 208.557 147.53 207.994 147.079 207.166 C 146.891 206.863 146.757 206.515 146.687 206.125 C 146.642 205.69 146.484 205.362 146.226 205.145 C 146.205 204.584 146.152 203.953 146.082 203.259 C 146.015 202.564 145.943 201.847 145.87 201.108 C 145.799 200.328 145.741 199.567 145.692 198.829 C 145.668 198.089 145.692 197.416 145.763 196.808 C 145.834 196.159 145.975 195.571 146.189 195.051 C 146.428 194.53 146.512 193.963 146.439 193.355 C 146.558 193.315 146.628 193.203 146.651 193.03 C 146.676 192.811 146.771 192.73 146.938 192.771 C 147.079 191.988 147.231 191.248 147.398 190.556 C 147.564 189.859 147.73 189.187 147.896 188.536 C 148.086 187.88 148.262 187.232 148.428 186.585 C 148.616 185.887 148.795 185.125 148.962 184.3 C 148.63 183.736 148.381 183.128 148.216 182.475 C 148.073 181.783 147.966 181.11 147.896 180.459 C 147.825 179.765 147.766 179.069 147.721 178.374 C 147.671 177.633 147.589 176.896 147.468 176.159 C 147.706 175.507 147.99 174.99 148.325 174.594 C 148.677 174.161 149.056 173.814 149.459 173.553 C 149.862 173.293 150.301 173.075 150.775 172.902 C 151.248 172.728 151.746 172.533 152.268 172.316 C 153.215 171.75 154.054 171.316 154.791 171.011 C 155.546 170.709 156.281 170.469 156.993 170.295 C 157.727 170.076 158.485 169.883 159.267 169.709 C 160.048 169.536 160.94 169.275 161.934 168.926 C 162.148 169.318 162.347 169.515 162.536 169.515 C 162.63 169.122 162.738 169.014 162.857 169.188 C 163 169.318 163.059 169.188 163.033 168.795 C 163.271 169.536 163.567 170.165 163.922 170.687 C 164.301 171.164 164.715 171.576 165.165 171.924 Z M 171.6 196.744 C 171.383 196.832 171.231 197.069 171.137 197.46 C 171.04 197.806 170.947 198.18 170.853 198.567 C 170.778 198.958 170.698 199.329 170.603 199.678 C 170.532 199.981 170.413 200.132 170.248 200.132 C 170.223 200.482 170.153 200.783 170.035 201.044 C 169.939 201.303 169.846 201.584 169.749 201.891 C 169.656 202.151 169.585 202.455 169.537 202.801 C 169.49 203.108 169.515 203.476 169.608 203.91 C 169.42 204.172 169.301 204.54 169.253 205.015 C 169.204 205.491 169.144 205.949 169.074 206.386 C 169.029 206.822 168.933 207.188 168.789 207.492 C 168.648 207.795 168.388 207.924 168.009 207.886 C 167.936 208.054 167.927 208.167 167.972 208.208 C 168.02 208.253 168.055 208.404 168.078 208.665 C 167.82 208.58 167.619 208.601 167.477 208.729 C 167.358 208.904 167.204 209.012 167.014 209.06 C 166.563 208.795 166.185 208.34 165.876 207.687 C 165.593 207.036 165.332 206.321 165.096 205.541 C 164.884 204.713 164.681 203.888 164.492 203.063 C 164.325 202.235 164.159 201.52 163.994 200.912 C 164.065 200.432 164.077 199.981 164.029 199.545 C 163.981 199.07 163.898 198.675 163.779 198.373 C 164.939 193.856 166.209 189.032 167.582 183.909 C 168.954 178.785 170.261 173.726 171.492 168.731 C 172.037 169.122 172.57 169.579 173.092 170.101 C 173.635 170.579 174.123 171.14 174.548 171.793 C 174.998 172.445 175.377 173.206 175.686 174.074 C 175.993 174.902 176.194 175.832 176.29 176.873 C 176.242 177.136 176.182 177.243 176.112 177.203 C 176.067 177.113 176.017 177.136 175.967 177.267 C 176.067 177.48 176.112 177.633 176.112 177.722 C 176.133 177.81 176.133 177.896 176.112 177.984 C 176.112 178.069 176.112 178.2 176.112 178.374 C 176.112 178.502 176.146 178.7 176.216 178.961 C 176.123 178.914 176.05 178.94 176.005 179.028 C 175.982 179.112 175.91 179.112 175.791 179.028 C 175.887 179.505 175.91 179.893 175.861 180.195 C 175.837 180.501 175.791 180.786 175.72 181.043 C 175.649 181.266 175.589 181.523 175.541 181.827 C 175.495 182.084 175.508 182.433 175.578 182.871 C 175.508 182.871 175.448 182.911 175.4 183 C 175.377 183.04 175.353 183.108 175.33 183.195 C 175.306 183.239 175.27 183.303 175.223 183.389 C 175.201 183.433 175.152 183.433 175.081 183.389 C 175.152 184.345 175.175 185.304 175.152 186.253 C 175.129 187.21 175.103 188.19 175.081 189.187 C 175.081 190.144 175.092 191.164 175.116 192.25 C 175.14 193.291 175.223 194.375 175.365 195.507 C 176.216 194.594 176.895 193.422 177.391 191.988 C 177.911 190.556 178.326 188.951 178.634 187.169 C 178.966 185.388 179.215 183.476 179.378 181.436 C 179.547 179.394 179.724 177.311 179.915 175.183 C 180.127 174.788 180.292 174.313 180.412 173.747 C 180.528 173.182 180.635 172.597 180.731 171.99 C 180.826 171.34 180.92 170.709 181.015 170.101 C 181.11 169.451 181.229 168.863 181.371 168.34 C 181.727 168.427 182.022 168.65 182.259 168.994 C 182.521 169.298 182.756 169.645 182.969 170.037 C 183.182 170.384 183.407 170.732 183.644 171.077 C 183.882 171.382 184.178 171.576 184.536 171.664 C 184.816 172.401 185.078 173.118 185.315 173.814 C 185.553 174.51 185.706 175.25 185.777 176.029 C 185.66 176.377 185.562 176.764 185.495 177.203 C 185.446 177.633 185.386 178.069 185.315 178.502 C 185.245 178.94 185.149 179.351 185.032 179.743 C 184.912 180.091 184.745 180.393 184.536 180.653 C 184.462 181.783 184.368 182.825 184.248 183.78 C 184.156 184.693 184.047 185.605 183.931 186.518 C 183.833 187.428 183.752 188.384 183.681 189.38 C 183.609 190.339 183.586 191.401 183.609 192.575 C 183.421 193.573 183.219 194.636 183.006 195.765 C 182.789 196.897 182.626 197.92 182.511 198.829 C 182.129 199.394 181.834 200.066 181.62 200.847 C 181.405 201.632 181.181 202.411 180.943 203.192 C 180.85 203.368 180.79 203.409 180.766 203.322 C 180.743 203.237 180.66 203.172 180.519 203.128 C 180.541 203.301 180.541 203.432 180.519 203.516 C 180.495 203.606 180.458 203.692 180.412 203.78 C 180.386 203.824 180.364 203.91 180.338 204.042 C 180.338 204.172 180.364 204.344 180.412 204.561 C 180.079 204.821 179.784 205.191 179.522 205.67 C 179.263 206.147 178.98 206.579 178.671 206.972 C 178.387 207.363 178.03 207.623 177.604 207.755 C 177.2 207.886 176.67 207.731 176.005 207.299 C 175.033 205.994 174.17 204.497 173.409 202.801 C 172.675 201.108 172.072 199.087 171.6 196.744 Z M 205.074 177.267 C 204.48 177.267 203.842 177.351 203.154 177.528 C 202.467 177.658 201.794 177.81 201.128 177.984 C 200.654 178.113 200.192 178.224 199.742 178.308 C 199.317 178.394 198.927 178.462 198.57 178.502 C 198.404 179.458 198.241 180.309 198.073 181.043 C 197.906 181.783 197.727 182.499 197.54 183.195 C 197.351 183.935 197.173 184.693 197.006 185.473 C 196.864 186.213 196.721 187.015 196.58 187.88 C 196.343 188.578 196.142 189.231 195.976 189.839 C 195.835 190.404 195.715 191.054 195.621 191.793 C 195.335 192.445 195.125 193.139 194.98 193.882 C 194.839 194.572 194.73 195.179 194.661 195.701 L 194.52 196.484 C 194.376 196.744 194.292 196.961 194.27 197.136 C 194.246 197.264 194.187 197.394 194.093 197.524 C 194.07 198.004 193.983 198.481 193.843 198.958 C 193.794 199.177 193.761 199.394 193.737 199.609 C 193.711 199.785 193.705 199.917 193.705 200.002 C 193.705 200.432 193.644 200.719 193.523 200.847 C 193.548 201.066 193.548 201.303 193.523 201.567 C 193.502 201.781 193.474 202 193.453 202.217 C 193.383 202.736 193.358 203.151 193.383 203.452 C 193.453 203.626 193.513 203.78 193.558 203.91 C 193.631 204.042 193.678 204.21 193.705 204.433 C 193.843 204.604 193.95 204.713 194.023 204.757 C 194.118 204.887 194.26 205.037 194.448 205.211 L 194.767 205.865 C 194.887 207.123 194.78 208.123 194.448 208.859 C 194.093 209.685 193.488 210.1 192.636 210.1 L 192.209 210.1 C 192.09 209.88 192.02 209.708 191.996 209.577 C 191.808 209.448 191.652 209.339 191.532 209.253 C 191.417 209.167 191.309 208.988 191.214 208.729 C 190.905 208.469 190.655 208.253 190.466 208.079 L 190.146 207.755 C 190.146 207.276 190.146 207.014 190.146 206.972 C 189.984 206.579 189.853 206.147 189.755 205.67 C 189.686 205.191 189.625 204.713 189.58 204.236 C 189.533 203.846 189.473 203.476 189.403 203.128 C 189.353 202.784 189.283 202.475 189.188 202.217 C 189.141 199.695 189.271 197.57 189.58 195.831 C 189.887 194.092 190.207 192.423 190.539 190.816 C 190.729 189.948 190.918 189.08 191.109 188.21 C 191.298 187.296 191.462 186.367 191.606 185.409 L 191.925 184.757 C 192.09 184.062 192.221 183.497 192.318 183.064 C 192.434 182.587 192.553 182.108 192.671 181.63 C 192.741 181.33 192.801 181.043 192.848 180.786 C 192.922 180.478 192.979 180.221 193.026 180.001 C 192.884 180.001 192.756 180.023 192.636 180.066 C 192.516 180.066 192.4 180.091 192.279 180.13 C 192.136 180.178 192.006 180.221 191.891 180.259 C 191.77 180.259 191.652 180.259 191.532 180.259 C 191.369 180.259 191.249 180.242 191.177 180.195 C 190.918 180.414 190.634 180.523 190.327 180.523 L 189.97 180.523 C 189.899 180.523 189.828 180.523 189.755 180.523 C 189.71 180.478 189.663 180.459 189.615 180.459 C 189.379 180.459 189.188 180.523 189.046 180.653 C 188.762 180.653 188.49 180.653 188.229 180.653 L 187.875 180.653 C 187.828 180.653 187.766 180.675 187.697 180.717 C 187.626 180.717 187.567 180.717 187.519 180.717 C 187.354 180.717 187.176 180.697 186.985 180.653 C 186.796 180.569 186.595 180.414 186.382 180.195 C 186.097 179.505 185.905 179.133 185.813 179.092 L 185.495 178.308 C 185.47 178.048 185.434 177.81 185.386 177.592 C 185.338 177.332 185.291 177.049 185.245 176.745 C 185.149 176.311 185.057 175.855 184.96 175.378 C 184.89 174.854 184.853 174.247 184.853 173.553 C 184.875 173.206 184.924 172.945 184.995 172.771 C 185.065 172.597 185.125 172.445 185.173 172.316 L 185.28 171.34 L 185.743 171.406 L 186.735 171.406 C 187.495 171.406 188.264 171.357 189.046 171.276 C 189.828 171.14 190.634 171.011 191.462 170.881 C 191.937 170.796 192.41 170.709 192.884 170.62 C 193.383 170.533 193.891 170.448 194.412 170.363 C 194.505 169.971 194.601 169.6 194.697 169.252 L 195.051 168.926 C 195.48 168.883 195.775 168.994 195.939 169.252 C 196.129 169.47 196.282 169.689 196.402 169.907 C 196.924 169.817 197.446 169.729 197.965 169.645 C 198.511 169.515 199.058 169.362 199.6 169.188 C 200.407 168.974 201.211 168.778 202.017 168.602 C 202.846 168.427 203.64 168.34 204.397 168.34 C 204.729 168.34 205.05 168.363 205.356 168.408 C 205.665 168.448 205.95 168.514 206.211 168.602 L 206.565 169.058 C 206.636 169.318 206.731 169.557 206.85 169.775 C 206.991 169.995 207.133 170.209 207.278 170.427 C 207.559 170.903 207.845 171.47 208.129 172.122 C 208.413 172.771 208.518 173.726 208.45 174.99 C 208.259 175.507 208.117 175.812 208.024 175.898 L 207.703 176.679 L 207.349 176.615 C 207.204 176.615 207.073 176.659 206.956 176.745 C 206.84 176.788 206.719 176.855 206.599 176.939 C 206.507 177.027 206.413 177.113 206.319 177.203 C 206.222 177.243 206.114 177.287 205.998 177.332 C 205.781 177.332 205.606 177.332 205.464 177.332 C 205.345 177.287 205.215 177.267 205.074 177.267 Z M 208.024 201.827 C 207.762 203.562 207.527 204.887 207.31 205.801 C 207.122 206.668 206.826 207.578 206.424 208.533 C 206.114 208.447 205.903 208.511 205.781 208.729 C 205.665 208.948 205.534 209.141 205.394 209.317 C 205.18 209.404 205.025 209.404 204.931 209.317 C 204.836 209.231 204.752 209.124 204.682 208.988 C 204.612 208.904 204.517 208.795 204.397 208.665 C 204.304 208.58 204.147 208.533 203.935 208.533 C 203.887 208.187 203.829 207.86 203.755 207.559 C 203.711 207.252 203.558 207.146 203.298 207.23 C 203.345 206.886 203.356 206.604 203.33 206.386 C 203.308 206.125 203.271 205.907 203.225 205.734 C 203.2 205.515 203.178 205.323 203.154 205.145 C 203.13 204.93 203.14 204.668 203.188 204.365 C 203.07 204.365 202.975 204.21 202.907 203.91 C 202.834 203.606 202.751 203.301 202.656 202.999 C 202.726 202.217 202.8 201.479 202.87 200.783 C 202.938 200.086 203.023 199.438 203.119 198.829 C 203.237 198.221 203.33 197.612 203.403 197.005 C 203.473 196.396 203.439 195.765 203.298 195.115 C 203.39 195.244 203.46 195.227 203.511 195.051 C 203.558 194.832 203.594 194.572 203.617 194.27 C 203.64 193.92 203.649 193.595 203.649 193.291 C 203.649 192.945 203.64 192.665 203.617 192.445 C 203.853 191.313 204.042 190.168 204.185 188.993 C 204.35 187.776 204.492 186.585 204.612 185.409 C 204.752 184.236 204.897 183.085 205.039 181.958 C 205.18 180.827 205.369 179.783 205.606 178.833 C 205.867 178.741 206.152 178.809 206.46 179.028 C 206.788 179.197 206.991 179.435 207.063 179.743 C 207.678 178.873 208.227 177.83 208.697 176.615 C 209.173 175.355 209.658 174.138 210.155 172.966 C 210.651 171.793 211.196 170.751 211.789 169.839 C 212.405 168.926 213.177 168.384 214.101 168.211 C 214.572 168.863 215.095 169.536 215.663 170.231 C 216.255 170.881 216.743 171.75 217.119 172.835 C 217.308 173.011 217.464 173.206 217.58 173.422 C 217.722 173.597 217.889 173.79 218.08 174.009 L 218.08 174.788 C 218.364 175.267 218.587 175.832 218.753 176.485 C 218.945 177.093 219.107 177.766 219.251 178.502 C 219.394 179.197 219.536 179.913 219.678 180.653 C 219.821 181.347 219.986 182.022 220.177 182.675 C 220.128 182.891 220.106 183.085 220.106 183.259 C 220.106 183.389 220.118 183.543 220.14 183.715 C 220.187 183.892 220.223 184.062 220.248 184.236 C 220.27 184.409 220.27 184.648 220.248 184.954 C 220.177 186.863 219.834 188.407 219.218 189.579 C 218.624 190.752 217.903 191.728 217.049 192.509 C 216.196 193.249 215.285 193.882 214.312 194.398 C 213.342 194.922 212.466 195.487 211.684 196.095 C 211.684 196.267 211.717 196.352 211.789 196.352 C 211.885 196.352 211.92 196.46 211.898 196.679 C 212.466 197.33 212.916 197.853 213.245 198.244 C 213.58 198.635 213.887 198.958 214.169 199.221 C 214.478 199.478 214.799 199.718 215.128 199.935 C 215.488 200.11 215.97 200.328 216.587 200.587 C 217.203 200.847 217.676 201.066 218.009 201.238 C 218.364 201.367 218.683 201.503 218.969 201.632 C 219.251 201.717 219.536 201.803 219.821 201.891 C 220.128 201.932 220.555 202 221.1 202.087 C 221.315 202.475 221.491 202.955 221.634 203.516 C 221.8 204.042 221.905 204.584 221.952 205.145 C 221.998 205.67 222.013 206.189 221.988 206.708 C 221.966 207.188 221.883 207.578 221.739 207.886 C 221.762 208.015 221.811 208.079 221.883 208.079 C 221.975 208.036 222.072 208.036 222.166 208.079 C 222.023 208.253 221.905 208.469 221.811 208.729 C 221.715 208.988 221.622 209.253 221.525 209.513 C 221.43 209.772 221.323 209.992 221.206 210.164 C 221.087 210.382 220.92 210.512 220.71 210.556 C 219.976 211.073 219.05 211.097 217.938 210.62 C 216.824 210.186 215.415 209.36 213.708 208.143 C 212.854 207.538 212.16 207.014 211.611 206.579 C 211.09 206.102 210.628 205.646 210.225 205.211 C 209.849 204.737 209.492 204.236 209.159 203.716 C 208.852 203.192 208.472 202.564 208.024 201.827 Z M 213.106 179.482 C 212.845 180.178 212.547 180.806 212.216 181.372 C 211.907 181.934 211.6 182.523 211.293 183.128 C 211.006 183.692 210.748 184.345 210.511 185.085 C 210.273 185.781 210.107 186.599 210.012 187.558 C 210.841 187.386 211.708 186.973 212.606 186.325 C 213.506 185.627 214.361 184.974 215.166 184.366 C 215.069 183.019 214.811 181.934 214.383 181.11 C 213.98 180.285 213.553 179.743 213.106 179.482 Z M 241.818 171.924 C 241.841 172.228 241.841 172.469 241.818 172.638 C 241.818 172.771 241.808 172.902 241.782 173.031 C 241.782 173.165 241.782 173.313 241.782 173.489 C 241.782 173.621 241.808 173.838 241.852 174.138 C 241.355 175.615 240.775 176.639 240.11 177.203 C 239.472 177.722 238.771 178.113 238.015 178.374 C 237.256 178.592 236.474 178.833 235.67 179.092 C 234.889 179.351 234.106 179.913 233.323 180.786 C 233.015 180.569 232.734 180.569 232.472 180.786 C 232.237 181 231.879 181.064 231.404 180.979 C 231.263 181.242 231.085 181.436 230.872 181.566 C 230.66 181.654 230.445 181.759 230.232 181.891 C 230.328 182.282 230.362 182.692 230.34 183.128 C 230.34 183.519 230.375 183.844 230.445 184.106 C 231.275 184.236 232.186 184.216 233.182 184.042 C 234.203 183.868 235.196 183.756 236.166 183.715 C 236.192 183.935 236.177 184.086 236.13 184.17 C 236.084 184.216 236.073 184.324 236.096 184.5 C 236.261 184.714 236.427 184.996 236.594 185.344 C 236.759 185.647 236.926 185.951 237.093 186.253 C 237.256 186.561 237.424 186.822 237.589 187.039 C 237.779 187.21 237.991 187.276 238.228 187.232 C 238.323 187.582 238.382 187.971 238.406 188.407 C 238.453 188.799 238.431 189.211 238.333 189.643 C 237.956 190.12 237.576 190.621 237.198 191.14 C 236.819 191.62 236.417 192.051 235.989 192.445 C 235.588 192.837 235.152 193.162 234.674 193.422 C 234.225 193.64 233.712 193.726 233.146 193.68 C 233.027 193.68 232.933 193.68 232.864 193.68 C 232.816 193.68 232.745 193.617 232.65 193.486 C 232.46 193.704 232.186 193.77 231.83 193.68 C 231.497 193.595 231.239 193.662 231.05 193.882 C 230.79 193.662 230.468 193.573 230.091 193.617 C 229.735 193.617 229.415 193.531 229.132 193.355 C 228.752 194.27 228.409 195.244 228.103 196.288 C 227.793 197.33 227.519 198.437 227.285 199.609 C 228.086 199.826 228.752 199.917 229.274 199.871 C 229.818 199.826 230.328 199.762 230.799 199.678 C 231.275 199.545 231.76 199.438 232.259 199.349 C 232.755 199.221 233.384 199.177 234.142 199.221 C 234.613 198.741 235.172 198.437 235.812 198.308 C 236.474 198.133 237.079 197.87 237.623 197.524 C 237.813 197.653 237.979 197.896 238.121 198.244 C 238.263 198.545 238.394 198.851 238.512 199.151 C 238.655 199.415 238.798 199.654 238.938 199.871 C 239.082 200.086 239.26 200.174 239.472 200.132 C 239.566 200.303 239.626 200.522 239.65 200.783 C 239.696 201 239.733 201.216 239.756 201.431 C 239.779 201.654 239.817 201.847 239.863 202.019 C 239.934 202.151 240.04 202.195 240.183 202.151 C 239.828 203.585 239.412 204.69 238.938 205.477 C 238.49 206.211 237.968 206.772 237.374 207.166 C 236.782 207.559 236.119 207.86 235.385 208.079 C 234.674 208.295 233.88 208.557 233.005 208.859 C 232.791 208.948 232.613 208.924 232.472 208.795 C 232.328 208.709 232.163 208.665 231.974 208.665 C 231.429 208.883 230.777 209.076 230.02 209.253 C 229.262 209.424 228.493 209.491 227.708 209.448 C 226.927 209.404 226.182 209.205 225.473 208.859 C 224.758 208.557 224.181 207.994 223.727 207.166 C 223.538 206.863 223.409 206.515 223.339 206.125 C 223.291 205.69 223.137 205.362 222.878 205.145 C 222.852 204.584 222.805 203.953 222.734 203.259 C 222.663 202.564 222.592 201.847 222.518 201.108 C 222.45 200.328 222.39 199.567 222.343 198.829 C 222.32 198.089 222.343 197.416 222.414 196.808 C 222.487 196.159 222.627 195.571 222.841 195.051 C 223.079 194.53 223.162 193.963 223.09 193.355 C 223.207 193.315 223.278 193.203 223.304 193.03 C 223.327 192.811 223.42 192.73 223.588 192.771 C 223.727 191.988 223.883 191.248 224.049 190.556 C 224.216 189.859 224.38 189.187 224.545 188.536 C 224.736 187.88 224.915 187.232 225.081 186.585 C 225.27 185.887 225.445 185.125 225.613 184.3 C 225.28 183.736 225.033 183.128 224.868 182.475 C 224.725 181.783 224.618 181.11 224.545 180.459 C 224.477 179.765 224.415 179.069 224.371 178.374 C 224.322 177.633 224.236 176.896 224.12 176.159 C 224.357 175.507 224.643 174.99 224.976 174.594 C 225.329 174.161 225.708 173.814 226.111 173.553 C 226.512 173.293 226.95 173.075 227.427 172.902 C 227.897 172.728 228.395 172.533 228.916 172.316 C 229.863 171.75 230.707 171.316 231.442 171.011 C 232.197 170.709 232.933 170.469 233.643 170.295 C 234.378 170.076 235.135 169.883 235.918 169.709 C 236.7 169.536 237.589 169.275 238.583 168.926 C 238.798 169.318 238.999 169.515 239.188 169.515 C 239.28 169.122 239.39 169.014 239.507 169.188 C 239.65 169.318 239.709 169.188 239.687 168.795 C 239.922 169.536 240.217 170.165 240.572 170.687 C 240.952 171.164 241.367 171.576 241.818 171.924 Z M 252.799 197.136 C 252.773 197.741 252.689 198.328 252.549 198.893 C 252.43 199.415 252.276 199.935 252.085 200.458 C 251.896 200.936 251.683 201.415 251.449 201.891 C 251.234 202.325 251.019 202.712 250.807 203.063 C 250.882 203.626 250.882 204.065 250.807 204.365 C 250.759 204.626 250.749 205.037 250.773 205.605 C 250.419 207.34 249.872 208.491 249.135 209.06 C 248.424 209.663 247.751 209.555 247.112 208.729 C 246.851 208.381 246.624 207.95 246.435 207.428 C 246.272 206.863 246.032 206.515 245.724 206.386 C 245.797 205.646 245.762 204.907 245.62 204.172 C 245.479 203.432 245.323 203.044 245.157 202.999 C 245.087 202.087 244.98 201.108 244.837 200.066 C 244.695 199.022 244.566 197.984 244.446 196.938 C 244.329 195.855 244.222 194.812 244.126 193.81 C 244.058 192.771 244.032 191.813 244.058 190.946 C 244.08 190.512 244.032 190.12 243.914 189.773 C 243.818 189.425 243.749 189.016 243.701 188.536 C 243.605 187.534 243.568 186.495 243.595 185.409 C 243.642 184.281 243.666 183.215 243.666 182.216 C 243.666 181.266 243.628 180.242 243.558 179.157 C 243.512 178.026 243.463 176.963 243.417 175.961 C 243.368 174.918 243.345 173.983 243.345 173.165 C 243.345 172.292 243.405 171.62 243.522 171.14 C 243.666 170.62 243.855 170.209 244.092 169.907 C 244.354 169.557 244.588 169.188 244.803 168.795 C 245.323 168.883 245.741 169.275 246.047 169.971 C 246.352 170.667 246.473 171.316 246.401 171.924 C 246.901 172.488 247.289 173.229 247.575 174.138 C 247.882 175.007 248.12 176.005 248.287 177.136 C 248.476 178.224 248.605 179.394 248.676 180.653 C 248.747 181.868 248.807 183.085 248.853 184.3 C 248.9 185.473 248.948 186.599 248.995 187.687 C 249.043 188.775 249.135 189.709 249.281 190.492 C 250.156 188.19 250.889 186.147 251.483 184.366 C 252.075 182.547 252.68 180.806 253.293 179.157 C 253.913 177.504 254.6 175.832 255.357 174.138 C 256.114 172.445 257.097 170.533 258.306 168.408 C 258.542 168.448 258.731 168.536 258.876 168.666 C 259.039 168.795 259.184 168.907 259.299 168.994 C 259.419 169.079 259.563 169.167 259.728 169.252 C 259.894 169.298 260.116 169.275 260.403 169.188 C 260.497 169.621 260.569 169.947 260.615 170.165 C 260.665 170.339 260.698 170.533 260.721 170.751 C 260.77 170.927 260.818 171.164 260.868 171.47 C 260.934 171.773 261.044 172.208 261.184 172.771 C 261.256 172.902 261.281 173.075 261.256 173.293 C 261.233 173.509 261.208 173.726 261.184 173.945 C 261.184 174.117 261.184 174.247 261.184 174.334 C 261.184 174.423 261.242 174.423 261.363 174.334 C 261.29 174.942 261.159 175.507 260.971 176.029 C 260.804 176.507 260.735 177.093 260.758 177.788 C 260.214 179.092 259.609 180.437 258.944 181.827 C 258.306 183.215 257.652 184.648 256.991 186.125 C 256.351 187.606 255.737 189.165 255.143 190.816 C 254.55 192.423 254.042 194.118 253.613 195.895 C 253.497 195.895 253.404 195.964 253.33 196.095 C 253.285 196.223 253.235 196.372 253.188 196.551 C 253.142 196.679 253.083 196.808 253.012 196.938 C 252.962 197.069 252.893 197.136 252.799 197.136 Z M 266.159 204.042 C 266.278 205.346 266.233 206.362 266.016 207.1 C 265.826 207.843 265.542 208.381 265.164 208.729 C 264.807 209.124 264.394 209.339 263.92 209.384 C 263.445 209.424 262.998 209.384 262.572 209.253 C 262.333 208.644 262.121 207.886 261.93 206.972 C 261.741 206.058 261.562 205.127 261.396 204.172 C 261.233 203.172 261.078 202.195 260.934 201.238 C 260.818 200.286 260.711 199.438 260.615 198.699 C 260.735 198.18 260.804 197.589 260.828 196.938 C 260.874 196.243 260.9 195.551 260.9 194.854 C 260.924 194.156 260.934 193.466 260.934 192.771 C 260.959 192.033 260.994 191.337 261.044 190.685 C 261.208 188.863 261.445 187.126 261.75 185.473 C 262.083 183.82 262.345 182.108 262.534 180.329 C 262.581 179.937 262.558 179.569 262.464 179.221 C 262.393 178.873 262.384 178.548 262.428 178.244 C 262.451 178.069 262.522 177.96 262.642 177.916 C 262.762 177.83 262.83 177.682 262.855 177.46 C 262.925 176.985 262.938 176.595 262.891 176.288 C 262.866 175.985 262.914 175.615 263.032 175.183 C 263.15 174.834 263.292 174.334 263.458 173.685 C 263.647 172.989 263.718 172.272 263.672 171.536 C 263.884 171.276 264.087 170.967 264.277 170.62 C 264.466 170.273 264.654 169.971 264.846 169.709 C 265.058 169.406 265.283 169.143 265.518 168.926 C 265.779 168.714 266.09 168.602 266.445 168.602 C 266.633 169.038 266.75 169.515 266.799 170.037 C 266.87 170.556 266.931 171.077 266.975 171.6 C 267.05 172.122 267.142 172.621 267.262 173.095 C 267.377 173.531 267.58 173.878 267.867 174.138 C 267.867 174.487 267.867 174.918 267.867 175.443 C 267.867 175.961 267.877 176.485 267.898 177.003 C 267.926 177.48 267.972 177.94 268.043 178.374 C 268.135 178.764 268.28 179.028 268.469 179.157 C 268.043 181.242 267.639 183.303 267.262 185.344 C 266.905 187.386 266.61 189.448 266.37 191.53 C 266.137 193.573 265.983 195.635 265.911 197.717 C 265.862 199.806 265.946 201.911 266.159 204.042 Z M 279.664 207.886 C 279 208.272 278.275 208.665 277.494 209.06 C 276.714 209.448 275.932 209.644 275.15 209.644 C 273.964 209.644 273.03 209.101 272.344 208.015 C 272.224 207.538 272.117 207.212 272.022 207.036 C 271.952 206.863 271.88 206.691 271.809 206.515 C 271.763 206.297 271.727 206.018 271.702 205.67 C 271.417 205.061 271.195 204.365 271.028 203.585 C 270.862 202.761 270.743 201.932 270.674 201.108 C 270.623 200.239 270.613 199.37 270.636 198.503 C 270.683 197.633 270.77 196.808 270.886 196.028 C 270.933 195.855 270.956 195.68 270.956 195.507 C 270.98 195.333 271.005 195.139 271.028 194.922 C 271.122 194.226 271.218 193.55 271.31 192.901 C 271.43 192.25 271.585 191.685 271.775 191.208 C 271.679 190.816 271.679 190.383 271.775 189.903 C 271.87 189.425 271.976 188.993 272.094 188.6 C 272.427 186.95 272.697 185.561 272.911 184.43 C 273.147 183.259 273.383 182.108 273.623 180.979 C 274.024 179.028 274.403 177.093 274.759 175.183 C 275.114 173.271 275.435 171.204 275.717 168.994 C 275.908 168.778 276.05 168.626 276.146 168.536 C 276.284 168.448 276.408 168.384 276.5 168.34 C 276.927 168.731 277.424 169.122 277.992 169.515 C 278.561 169.859 279.035 170.037 279.412 170.037 C 279.6 170.255 279.722 170.427 279.769 170.556 C 279.817 170.643 279.863 170.732 279.91 170.817 C 280.171 171.382 280.397 171.968 280.587 172.574 C 280.776 173.142 280.837 173.902 280.764 174.854 C 280.62 175.25 280.514 175.443 280.445 175.443 C 280.326 176.311 280.195 177.049 280.054 177.658 C 279.933 178.264 279.803 178.873 279.664 179.482 C 279.497 180.13 279.343 180.786 279.2 181.436 C 279.059 182.084 278.94 182.891 278.844 183.844 C 278.75 184.062 278.678 184.26 278.632 184.43 C 278.608 184.606 278.571 184.802 278.526 185.017 C 278.478 185.237 278.419 185.473 278.348 185.734 C 278.299 185.951 278.216 186.147 278.098 186.325 C 278.027 187.45 277.91 188.36 277.744 189.057 C 277.601 189.752 277.448 190.446 277.282 191.14 C 276.998 192.399 276.737 193.662 276.5 194.922 C 276.284 196.179 276.156 197.612 276.109 199.221 C 276.227 199.134 276.335 199.087 276.43 199.087 C 276.545 199.087 276.655 199.087 276.749 199.087 C 276.963 199.087 277.209 199.151 277.494 199.285 C 278.206 198.59 278.975 198.18 279.803 198.049 C 280.659 197.92 281.497 197.832 282.328 197.789 C 282.66 197.789 282.992 197.789 283.322 197.789 C 283.654 197.789 283.962 197.741 284.247 197.653 C 284.462 197.87 284.592 198.004 284.638 198.049 C 284.709 198.049 284.803 198.049 284.922 198.049 C 285.088 198.049 285.227 198.068 285.347 198.113 C 285.634 198.59 285.906 198.935 286.165 199.151 C 286.426 199.37 286.698 199.567 286.983 199.742 C 287.244 199.917 287.495 200.11 287.729 200.328 C 287.988 200.496 288.238 200.76 288.476 201.108 L 288.724 203.91 C 288.888 204.301 288.962 204.561 288.938 204.69 C 288.938 205.037 288.888 205.298 288.795 205.477 L 288.866 206.189 C 288.51 206.321 288.261 206.473 288.121 206.643 C 288.002 206.822 287.881 207.014 287.765 207.23 C 287.575 207.276 287.432 207.299 287.338 207.299 C 287.268 207.299 287.194 207.299 287.124 207.299 C 286.795 207.299 286.392 207.406 285.916 207.623 C 285.279 207.23 284.613 207.036 283.926 207.036 C 283.668 207.036 283.393 207.059 283.108 207.1 C 282.825 207.146 282.541 207.188 282.257 207.23 C 281.973 207.32 281.677 207.384 281.368 207.428 C 281.082 207.47 280.788 207.492 280.478 207.492 L 279.664 207.886 Z M 299.065 207.886 C 298.402 208.272 297.679 208.665 296.898 209.06 C 296.116 209.448 295.331 209.644 294.552 209.644 C 293.369 209.644 292.432 209.101 291.745 208.015 C 291.626 207.538 291.52 207.212 291.426 207.036 C 291.353 206.863 291.283 206.691 291.211 206.515 C 291.164 206.297 291.127 206.018 291.103 205.67 C 290.822 205.061 290.596 204.365 290.43 203.585 C 290.264 202.761 290.147 201.932 290.074 201.108 C 290.026 200.239 290.015 199.37 290.038 198.503 C 290.086 197.633 290.169 196.808 290.285 196.028 C 290.338 195.855 290.359 195.68 290.359 195.507 C 290.382 195.333 290.406 195.139 290.43 194.922 C 290.526 194.226 290.619 193.55 290.714 192.901 C 290.834 192.25 290.987 191.685 291.176 191.208 C 291.081 190.816 291.081 190.383 291.176 189.903 C 291.271 189.425 291.377 188.993 291.494 188.6 C 291.828 186.95 292.099 185.561 292.312 184.43 C 292.552 183.259 292.788 182.108 293.023 180.979 C 293.426 179.028 293.805 177.093 294.162 175.183 C 294.515 173.271 294.837 171.204 295.12 168.994 C 295.31 168.778 295.453 168.626 295.548 168.536 C 295.69 168.448 295.807 168.384 295.9 168.34 C 296.329 168.731 296.828 169.122 297.395 169.515 C 297.963 169.859 298.437 170.037 298.817 170.037 C 299.006 170.255 299.122 170.427 299.171 170.556 C 299.219 170.643 299.264 170.732 299.313 170.817 C 299.573 171.382 299.801 171.968 299.989 172.574 C 300.178 173.142 300.239 173.902 300.166 174.854 C 300.026 175.25 299.918 175.443 299.847 175.443 C 299.727 176.311 299.597 177.049 299.455 177.658 C 299.337 178.264 299.208 178.873 299.065 179.482 C 298.9 180.13 298.744 180.786 298.605 181.436 C 298.462 182.084 298.342 182.891 298.247 183.844 C 298.151 184.062 298.083 184.26 298.035 184.43 C 298.01 184.606 297.975 184.802 297.927 185.017 C 297.88 185.237 297.821 185.473 297.75 185.734 C 297.703 185.951 297.62 186.147 297.501 186.325 C 297.431 187.45 297.312 188.36 297.146 189.057 C 297.003 189.752 296.85 190.446 296.683 191.14 C 296.399 192.399 296.139 193.662 295.9 194.922 C 295.69 196.179 295.559 197.612 295.511 199.221 C 295.631 199.134 295.737 199.087 295.832 199.087 C 295.949 199.087 296.056 199.087 296.149 199.087 C 296.365 199.087 296.613 199.151 296.898 199.285 C 297.608 198.59 298.379 198.18 299.208 198.049 C 300.06 197.92 300.902 197.832 301.73 197.789 C 302.062 197.789 302.395 197.789 302.727 197.789 C 303.055 197.789 303.364 197.741 303.651 197.653 C 303.861 197.87 303.992 198.004 304.042 198.049 C 304.111 198.049 304.204 198.049 304.324 198.049 C 304.489 198.049 304.631 198.068 304.751 198.113 C 305.038 198.59 305.307 198.935 305.566 199.151 C 305.827 199.37 306.1 199.567 306.383 199.742 C 306.645 199.917 306.895 200.11 307.13 200.328 C 307.393 200.496 307.641 200.76 307.877 201.108 L 308.127 203.91 C 308.292 204.301 308.366 204.561 308.34 204.69 C 308.34 205.037 308.292 205.298 308.197 205.477 L 308.271 206.189 C 307.914 206.321 307.666 206.473 307.522 206.643 C 307.402 206.822 307.287 207.014 307.168 207.23 C 306.979 207.276 306.834 207.299 306.742 207.299 C 306.668 207.299 306.598 207.299 306.525 207.299 C 306.198 207.299 305.793 207.406 305.318 207.623 C 304.679 207.23 304.015 207.036 303.331 207.036 C 303.068 207.036 302.795 207.059 302.51 207.1 C 302.228 207.146 301.943 207.188 301.66 207.23 C 301.374 207.32 301.078 207.384 300.769 207.428 C 300.486 207.47 300.191 207.492 299.881 207.492 L 299.065 207.886 Z M 328.913 171.924 C 328.942 172.228 328.942 172.469 328.913 172.638 C 328.913 172.771 328.903 172.902 328.879 173.031 C 328.879 173.165 328.879 173.313 328.879 173.489 C 328.879 173.621 328.903 173.838 328.951 174.138 C 328.451 175.615 327.872 176.639 327.209 177.203 C 326.569 177.722 325.872 178.113 325.115 178.374 C 324.355 178.592 323.573 178.833 322.767 179.092 C 321.985 179.351 321.205 179.913 320.422 180.786 C 320.115 180.569 319.829 180.569 319.57 180.786 C 319.331 181 318.976 181.064 318.504 180.979 C 318.362 181.242 318.182 181.436 317.969 181.566 C 317.757 181.654 317.544 181.759 317.331 181.891 C 317.424 182.282 317.461 182.692 317.44 183.128 C 317.44 183.519 317.471 183.844 317.544 184.106 C 318.374 184.236 319.284 184.216 320.28 184.042 C 321.297 183.868 322.295 183.756 323.262 183.715 C 323.29 183.935 323.276 184.086 323.231 184.17 C 323.181 184.216 323.171 184.324 323.194 184.5 C 323.361 184.714 323.525 184.996 323.691 185.344 C 323.858 185.647 324.021 185.951 324.19 186.253 C 324.355 186.561 324.518 186.822 324.685 187.039 C 324.877 187.21 325.089 187.276 325.327 187.232 C 325.419 187.582 325.48 187.971 325.502 188.407 C 325.551 188.799 325.53 189.211 325.434 189.643 C 325.053 190.12 324.675 190.621 324.296 191.14 C 323.915 191.62 323.513 192.051 323.086 192.445 C 322.685 192.837 322.246 193.162 321.772 193.422 C 321.32 193.64 320.814 193.726 320.245 193.68 C 320.125 193.68 320.03 193.68 319.962 193.68 C 319.912 193.68 319.843 193.617 319.746 193.486 C 319.56 193.704 319.284 193.77 318.929 193.68 C 318.596 193.595 318.336 193.662 318.148 193.882 C 317.886 193.662 317.568 193.573 317.189 193.617 C 316.835 193.617 316.514 193.531 316.232 193.355 C 315.85 194.27 315.506 195.244 315.198 196.288 C 314.891 197.33 314.617 198.437 314.381 199.609 C 315.186 199.826 315.85 199.917 316.372 199.871 C 316.917 199.826 317.424 199.762 317.899 199.678 C 318.374 199.545 318.86 199.438 319.357 199.349 C 319.851 199.221 320.481 199.177 321.239 199.221 C 321.713 198.741 322.269 198.437 322.909 198.308 C 323.573 198.133 324.178 197.87 324.722 197.524 C 324.913 197.653 325.076 197.896 325.22 198.244 C 325.362 198.545 325.491 198.851 325.612 199.151 C 325.752 199.415 325.894 199.654 326.038 199.871 C 326.179 200.086 326.356 200.174 326.569 200.132 C 326.665 200.303 326.726 200.522 326.747 200.783 C 326.794 201 326.831 201.216 326.853 201.431 C 326.877 201.654 326.914 201.847 326.961 202.019 C 327.033 202.151 327.139 202.195 327.279 202.151 C 326.924 203.585 326.509 204.69 326.038 205.477 C 325.585 206.211 325.066 206.772 324.471 207.166 C 323.881 207.559 323.217 207.86 322.483 208.079 C 321.772 208.295 320.98 208.557 320.101 208.859 C 319.889 208.948 319.713 208.924 319.57 208.795 C 319.428 208.709 319.261 208.665 319.071 208.665 C 318.526 208.883 317.877 209.076 317.119 209.253 C 316.359 209.424 315.59 209.491 314.806 209.448 C 314.027 209.404 313.277 209.205 312.568 208.859 C 311.858 208.557 311.276 207.994 310.828 207.166 C 310.638 206.863 310.508 206.515 310.436 206.125 C 310.391 205.69 310.236 205.362 309.975 205.145 C 309.949 204.584 309.903 203.953 309.832 203.259 C 309.76 202.564 309.688 201.847 309.62 201.108 C 309.548 200.328 309.489 199.567 309.441 198.829 C 309.416 198.089 309.441 197.416 309.512 196.808 C 309.582 196.159 309.726 195.571 309.938 195.051 C 310.175 194.53 310.259 193.963 310.186 193.355 C 310.307 193.315 310.375 193.203 310.403 193.03 C 310.425 192.811 310.519 192.73 310.684 192.771 C 310.828 191.988 310.98 191.248 311.145 190.556 C 311.312 189.859 311.478 189.187 311.645 188.536 C 311.834 187.88 312.012 187.232 312.178 186.585 C 312.367 185.887 312.544 185.125 312.712 184.3 C 312.38 183.736 312.13 183.128 311.963 182.475 C 311.821 181.783 311.715 181.11 311.645 180.459 C 311.573 179.765 311.516 179.069 311.465 178.374 C 311.42 177.633 311.335 176.896 311.22 176.159 C 311.455 175.507 311.74 174.99 312.068 174.594 C 312.426 174.161 312.806 173.814 313.21 173.553 C 313.611 173.293 314.049 173.075 314.526 172.902 C 314.996 172.728 315.495 172.533 316.015 172.316 C 316.963 171.75 317.805 171.316 318.537 171.011 C 319.298 170.709 320.03 170.469 320.742 170.295 C 321.477 170.076 322.235 169.883 323.015 169.709 C 323.799 169.536 324.685 169.275 325.681 168.926 C 325.894 169.318 326.095 169.515 326.286 169.515 C 326.38 169.122 326.486 169.014 326.604 169.188 C 326.747 169.318 326.806 169.188 326.784 168.795 C 327.019 169.536 327.316 170.165 327.671 170.687 C 328.051 171.164 328.466 171.576 328.913 171.924 Z" style="stroke-width: 3.037;"/>
</svg>