<?xml version="1.0" encoding="utf-8"?>
<svg viewBox="92.122 115.488 295.061 287.716" width="295.061" height="287.716" xmlns="http://www.w3.org/2000/svg" xmlns:bx="https://boxy-svg.com">
  <circle style="" cx="244.993" cy="237.984" r="109.408" transform="matrix(1.314228, 0, 0, 1.289822, -81.99058, -47.277658)"/>
  <path d="M 126.395 253.903 L 125.351 254.84 C 124.31 253.305 122.967 252.539 121.326 252.539 C 119.901 252.539 118.68 253.143 117.66 254.351 C 116.654 255.544 116.15 256.987 116.15 258.678 C 116.15 260.368 116.654 261.818 117.66 263.026 C 118.68 264.219 119.901 264.817 121.326 264.817 C 122.13 264.817 122.878 264.61 123.573 264.199 C 124.28 263.786 124.88 263.218 125.371 262.493 L 126.376 263.495 C 125.777 264.39 125.034 265.094 124.148 265.605 C 123.262 266.103 122.321 266.351 121.326 266.351 C 119.541 266.351 118.015 265.605 116.745 264.113 C 115.486 262.607 114.857 260.796 114.857 258.678 C 114.857 256.559 115.486 254.755 116.745 253.263 C 118.015 251.757 119.541 251.004 121.326 251.004 C 122.333 251.004 123.28 251.266 124.166 251.792 C 125.053 252.305 125.795 253.007 126.395 253.903 Z M 128.407 251.984 L 127.383 252.921 C 126.665 251.843 125.772 250.997 124.705 250.386 C 123.652 249.774 122.524 249.469 121.326 249.469 C 119.183 249.469 117.348 250.371 115.828 252.175 C 114.318 253.982 113.565 256.148 113.565 258.678 C 113.565 261.207 114.318 263.375 115.828 265.179 C 117.348 266.984 119.183 267.886 121.326 267.886 C 122.524 267.886 123.657 267.58 124.723 266.969 C 125.79 266.343 126.681 265.492 127.401 264.412 L 128.39 265.392 C 127.552 266.642 126.514 267.629 125.28 268.355 C 124.047 269.064 122.728 269.421 121.326 269.421 C 119.686 269.421 118.169 268.944 116.779 267.993 C 115.391 267.025 114.288 265.719 113.473 264.07 C 112.672 262.422 112.27 260.625 112.27 258.678 C 112.27 256.73 112.672 254.933 113.473 253.285 C 114.288 251.635 115.391 250.336 116.779 249.383 C 118.169 248.417 119.686 247.934 121.326 247.934 C 122.728 247.934 124.047 248.297 125.28 249.021 C 126.527 249.733 127.568 250.72 128.407 251.984 Z M 130.44 250.065 L 129.431 251.026 C 128.46 249.589 127.27 248.459 125.855 247.635 C 124.441 246.811 122.933 246.4 121.326 246.4 C 119.925 246.4 118.583 246.726 117.301 247.381 C 116.031 248.019 114.93 248.894 113.994 250.002 C 113.071 251.097 112.336 252.403 111.784 253.923 C 111.245 255.43 110.975 257.014 110.975 258.678 C 110.975 260.341 111.245 261.932 111.784 263.453 C 112.336 264.959 113.071 266.265 113.994 267.375 C 114.93 268.468 116.031 269.343 117.301 269.996 C 118.583 270.636 119.925 270.956 121.326 270.956 C 122.933 270.956 124.441 270.543 125.855 269.719 C 127.27 268.895 128.46 267.766 129.431 266.331 L 130.402 267.331 C 129.312 268.937 127.976 270.201 126.395 271.125 C 124.814 272.035 123.124 272.49 121.326 272.49 C 119.746 272.49 118.235 272.128 116.798 271.404 C 115.359 270.663 114.121 269.683 113.078 268.461 C 112.047 267.226 111.222 265.754 110.598 264.05 C 109.988 262.343 109.681 260.554 109.681 258.678 C 109.681 256.801 109.988 255.011 110.598 253.305 C 111.222 251.601 112.047 250.136 113.078 248.914 C 114.121 247.679 115.359 246.699 116.798 245.973 C 118.235 245.234 119.746 244.865 121.326 244.865 C 123.136 244.865 124.832 245.327 126.414 246.251 C 128.007 247.173 129.349 248.447 130.44 250.065 Z M 132.45 248.146 L 131.407 249.063 C 130.197 247.288 128.713 245.887 126.951 244.865 C 125.202 243.841 123.328 243.33 121.326 243.33 C 119.577 243.33 117.901 243.735 116.295 244.545 C 114.703 245.354 113.323 246.449 112.162 247.828 C 111.013 249.192 110.096 250.826 109.413 252.73 C 108.729 254.62 108.389 256.603 108.389 258.678 C 108.389 260.752 108.729 262.742 109.413 264.646 C 110.096 266.536 111.013 268.17 112.162 269.548 C 113.323 270.913 114.703 272 116.295 272.81 C 117.901 273.619 119.577 274.025 121.326 274.025 C 123.328 274.025 125.202 273.514 126.951 272.49 C 128.713 271.467 130.197 270.067 131.407 268.291 L 132.433 269.228 C 131.103 271.189 129.469 272.739 127.527 273.876 C 125.598 274.998 123.532 275.56 121.326 275.56 C 119.397 275.56 117.553 275.113 115.792 274.218 C 114.042 273.321 112.534 272.12 111.264 270.614 C 109.993 269.108 108.981 267.318 108.226 265.243 C 107.471 263.153 107.095 260.965 107.095 258.678 C 107.095 256.39 107.471 254.209 108.226 252.134 C 108.981 250.044 109.993 248.247 111.264 246.74 C 112.534 245.234 114.042 244.034 115.792 243.139 C 117.553 242.242 119.397 241.795 121.326 241.795 C 123.532 241.795 125.603 242.364 127.545 243.501 C 129.485 244.623 131.121 246.173 132.45 248.146 Z M 141.382 274.025 L 140.089 274.025 L 140.089 243.33 L 141.382 243.33 L 141.382 274.025 Z M 138.795 274.025 L 137.501 274.025 L 137.501 243.33 L 138.795 243.33 L 138.795 274.025 Z M 136.206 274.025 L 134.914 274.025 L 134.914 243.33 L 136.206 243.33 L 136.206 274.025 Z M 143.97 266.351 L 156.352 266.351 L 156.352 267.886 L 143.97 267.886 L 143.97 269.421 L 156.352 269.421 L 156.352 270.956 L 143.97 270.956 L 143.97 272.49 L 156.352 272.49 L 156.352 274.025 L 142.677 274.025 L 142.677 243.33 L 156.352 243.33 L 156.352 244.865 L 143.97 244.865 L 143.97 246.4 L 156.352 246.4 L 156.352 247.934 L 143.97 247.934 L 143.97 249.469 L 156.352 249.469 L 156.352 251.004 L 143.97 251.004 L 143.97 254.818 L 155.633 254.818 L 155.633 256.354 L 143.97 256.354 L 143.97 257.889 L 155.633 257.889 L 155.633 259.424 L 143.97 259.424 L 143.97 260.957 L 155.633 260.957 L 155.633 262.493 L 143.97 262.493 L 143.97 266.351 Z M 179.875 261.64 L 178.581 258.847 L 178.581 243.33 L 179.875 243.33 L 179.875 261.64 Z M 182.463 266.947 L 181.17 264.348 L 181.17 243.33 L 182.463 243.33 L 182.463 266.947 Z M 164.635 255.715 L 165.93 258.507 L 165.93 274.025 L 164.635 274.025 L 164.635 255.715 Z M 162.049 250.193 L 163.343 253.007 L 163.343 274.025 L 162.049 274.025 L 162.049 250.193 Z M 162.499 243.33 L 164.007 243.33 L 178.996 274.025 L 177.484 274.025 L 162.499 243.33 Z M 165.553 243.33 L 167.08 243.33 L 182.05 274.025 L 180.504 274.025 L 165.553 243.33 Z M 168.589 243.33 L 170.1 243.33 L 183.758 271.36 L 183.758 243.33 L 185.05 243.33 L 185.05 274.025 L 183.524 274.025 L 168.589 243.33 Z M 160.754 245.973 L 160.754 274.025 L 159.46 274.025 L 159.46 243.33 L 161.006 243.33 L 175.939 274.025 L 174.449 274.025 L 160.754 245.973 Z M 193.011 251.835 L 194.306 251.835 L 194.306 274.025 L 193.011 274.025 L 193.011 251.835 Z M 187.836 244.865 L 187.836 243.33 L 207.244 243.33 L 207.244 244.865 L 187.836 244.865 Z M 187.836 247.934 L 187.836 246.4 L 207.244 246.4 L 207.244 247.934 L 187.836 247.934 Z M 187.836 251.004 L 187.836 249.469 L 207.244 249.469 L 207.244 251.004 L 187.836 251.004 Z M 200.776 251.835 L 202.069 251.835 L 202.069 274.025 L 200.776 274.025 L 200.776 251.835 Z M 198.187 251.835 L 199.482 251.835 L 199.482 274.025 L 198.187 274.025 L 198.187 251.835 Z M 195.601 251.835 L 196.893 251.835 L 196.893 274.025 L 195.601 274.025 L 195.601 251.835 Z M 219.879 259.36 L 227.678 259.36 C 228.709 259.36 229.583 258.977 230.302 258.209 C 231.02 257.441 231.379 256.361 231.379 254.968 C 231.379 253.945 231.003 253.029 230.246 252.219 C 229.504 251.408 228.649 251.004 227.678 251.004 L 216.573 251.004 L 216.573 274.025 L 215.278 274.025 L 215.278 249.469 L 227.678 249.469 C 229.008 249.469 230.169 250.024 231.164 251.131 C 232.169 252.239 232.674 253.52 232.674 254.968 C 232.674 256.774 232.188 258.216 231.217 259.295 C 230.246 260.361 229.067 260.894 227.678 260.894 L 219.879 260.894 L 219.879 259.36 Z M 219.879 262.429 L 227.678 262.429 C 229.403 262.429 230.883 261.732 232.116 260.341 C 233.35 258.947 233.967 257.158 233.967 254.968 C 233.967 253.107 233.338 251.473 232.08 250.065 C 230.822 248.645 229.355 247.934 227.678 247.934 L 213.984 247.934 L 213.984 274.025 L 212.69 274.025 L 212.69 246.4 L 227.678 246.4 C 229.714 246.4 231.487 247.259 232.996 248.98 C 234.506 250.684 235.262 252.681 235.262 254.968 C 235.262 257.527 234.513 259.666 233.015 261.385 C 231.529 263.104 229.75 263.964 227.678 263.964 L 219.879 263.964 L 219.879 262.429 Z M 219.879 265.499 L 227.678 265.499 C 229.271 265.499 230.745 265.045 232.098 264.135 C 233.451 263.226 234.53 261.96 235.334 260.341 C 236.148 258.72 236.555 256.93 236.555 254.968 C 236.555 253.192 236.153 251.53 235.351 249.98 C 234.548 248.417 233.458 247.173 232.08 246.251 C 230.714 245.327 229.247 244.865 227.678 244.865 L 211.397 244.865 L 211.397 274.025 L 210.102 274.025 L 210.102 243.33 L 227.678 243.33 C 229.032 243.33 230.331 243.65 231.578 244.288 C 232.836 244.914 233.92 245.753 234.83 246.804 C 235.741 247.843 236.472 249.078 237.021 250.513 C 237.573 251.948 237.85 253.434 237.85 254.968 C 237.85 257.456 237.371 259.63 236.412 261.49 C 235.454 263.338 234.164 264.744 232.546 265.712 L 235.262 274.025 L 233.878 274.025 L 231.308 266.331 C 230.984 266.458 230.608 266.585 230.176 266.714 L 232.602 274.025 L 231.217 274.025 L 228.846 266.969 C 228.474 267.013 228.085 267.033 227.678 267.033 L 229.96 274.025 L 228.594 274.025 L 226.33 267.033 L 225.162 267.033 L 227.336 274.025 L 225.97 274.025 L 223.778 267.033 L 219.879 267.033 L 219.879 265.499 Z M 219.159 274.025 L 217.865 274.025 L 217.865 252.539 L 227.678 252.539 C 228.348 252.539 228.918 252.779 229.385 253.263 C 229.852 253.732 230.086 254.3 230.086 254.968 C 230.086 256.872 229.284 257.825 227.678 257.825 L 219.879 257.825 L 219.879 256.29 L 227.678 256.29 C 228.419 256.29 228.791 255.85 228.791 254.968 C 228.791 254.727 228.679 254.52 228.452 254.351 C 228.234 254.165 227.977 254.073 227.678 254.073 L 219.159 254.073 L 219.159 274.025 Z M 247.193 274.025 L 245.901 274.025 L 245.901 243.33 L 247.193 243.33 L 247.193 274.025 Z M 244.607 274.025 L 243.312 274.025 L 243.312 243.33 L 244.607 243.33 L 244.607 274.025 Z M 242.017 274.025 L 240.725 274.025 L 240.725 243.33 L 242.017 243.33 L 242.017 274.025 Z M 249.782 266.351 L 262.163 266.351 L 262.163 267.886 L 249.782 267.886 L 249.782 269.421 L 262.163 269.421 L 262.163 270.956 L 249.782 270.956 L 249.782 272.49 L 262.163 272.49 L 262.163 274.025 L 248.488 274.025 L 248.488 243.33 L 262.163 243.33 L 262.163 244.865 L 249.782 244.865 L 249.782 246.4 L 262.163 246.4 L 262.163 247.934 L 249.782 247.934 L 249.782 249.469 L 262.163 249.469 L 262.163 251.004 L 249.782 251.004 L 249.782 254.818 L 261.444 254.818 L 261.444 256.354 L 249.782 256.354 L 249.782 257.889 L 261.444 257.889 L 261.444 259.424 L 249.782 259.424 L 249.782 260.957 L 261.444 260.957 L 261.444 262.493 L 249.782 262.493 L 249.782 266.351 Z M 264.247 243.33 L 265.649 243.33 L 275.192 271.957 L 284.734 243.33 L 286.117 243.33 L 275.893 274.025 L 274.491 274.025 L 264.247 243.33 Z M 267.032 243.33 L 268.417 243.33 L 276.091 266.351 L 275.353 268.311 L 267.032 243.33 Z M 269.818 243.33 L 271.221 243.33 L 277.475 262.152 L 276.791 264.262 L 269.818 243.33 Z M 272.603 243.33 L 273.988 243.33 L 278.841 257.889 L 278.156 260.042 L 272.603 243.33 Z M 293.072 243.33 L 294.474 243.33 L 284.23 274.025 L 282.847 274.025 L 293.072 243.33 Z M 290.304 243.33 L 291.69 243.33 L 281.446 274.025 L 280.062 274.025 L 290.304 243.33 Z M 287.501 243.33 L 288.904 243.33 L 278.66 274.025 L 277.276 274.025 L 287.501 243.33 Z M 304.52 243.33 L 305.813 243.33 L 305.813 274.025 L 304.52 274.025 L 304.52 243.33 Z M 301.931 243.33 L 303.225 243.33 L 303.225 274.025 L 301.931 274.025 L 301.931 243.33 Z M 299.345 243.33 L 300.638 243.33 L 300.638 274.025 L 299.345 274.025 L 299.345 243.33 Z M 296.755 243.33 L 298.05 243.33 L 298.05 274.025 L 296.755 274.025 L 296.755 243.33 Z M 309.193 243.33 L 310.486 243.33 L 310.486 274.025 L 309.193 274.025 L 309.193 243.33 Z M 316.956 243.33 L 318.25 243.33 L 318.25 266.351 L 327.791 266.351 L 327.791 267.886 L 318.25 267.886 L 318.25 269.421 L 327.791 269.421 L 327.791 270.956 L 318.25 270.956 L 318.25 272.49 L 327.791 272.49 L 327.791 274.025 L 316.956 274.025 L 316.956 243.33 Z M 314.368 243.33 L 315.661 243.33 L 315.661 274.025 L 314.368 274.025 L 314.368 243.33 Z M 311.779 243.33 L 313.073 243.33 L 313.073 274.025 L 311.779 274.025 L 311.779 243.33 Z M 330.65 243.33 L 331.944 243.33 L 331.944 274.025 L 330.65 274.025 L 330.65 243.33 Z M 338.412 243.33 L 339.706 243.33 L 339.706 266.351 L 349.25 266.351 L 349.25 267.886 L 339.706 267.886 L 339.706 269.421 L 349.25 269.421 L 349.25 270.956 L 339.706 270.956 L 339.706 272.49 L 349.25 272.49 L 349.25 274.025 L 338.412 274.025 L 338.412 243.33 Z M 335.825 243.33 L 337.12 243.33 L 337.12 274.025 L 335.825 274.025 L 335.825 243.33 Z M 333.236 243.33 L 334.531 243.33 L 334.531 274.025 L 333.236 274.025 L 333.236 243.33 Z M 358.576 274.025 L 357.282 274.025 L 357.282 243.33 L 358.576 243.33 L 358.576 274.025 Z M 355.988 274.025 L 354.693 274.025 L 354.693 243.33 L 355.988 243.33 L 355.988 274.025 Z M 353.4 274.025 L 352.106 274.025 L 352.106 243.33 L 353.4 243.33 L 353.4 274.025 Z M 361.163 266.351 L 373.545 266.351 L 373.545 267.886 L 361.163 267.886 L 361.163 269.421 L 373.545 269.421 L 373.545 270.956 L 361.163 270.956 L 361.163 272.49 L 373.545 272.49 L 373.545 274.025 L 359.868 274.025 L 359.868 243.33 L 373.545 243.33 L 373.545 244.865 L 361.163 244.865 L 361.163 246.4 L 373.545 246.4 L 373.545 247.934 L 361.163 247.934 L 361.163 249.469 L 373.545 249.469 L 373.545 251.004 L 361.163 251.004 L 361.163 254.818 L 372.827 254.818 L 372.827 256.354 L 361.163 256.354 L 361.163 257.889 L 372.827 257.889 L 372.827 259.424 L 361.163 259.424 L 361.163 260.957 L 372.827 260.957 L 372.827 262.493 L 361.163 262.493 L 361.163 266.351 Z" fill="white" style="stroke-width: 1.793;"/>
  <path d="M 324 226.333 m -95.6 0 a 95.6 95.6 0 1 0 191.2 0 a 95.6 95.6 0 1 0 -191.2 0 Z M 324 226.333 m -95.6 0 a 95.6 95.6 0 0 1 191.2 0 a 95.6 95.6 0 0 1 -191.2 0 Z" style="fill: rgb(216, 216, 216);" transform="matrix(-0.851898, 0.523708, -0.523708, -0.851898, 660.902547, 191.689688)" bx:shape="ring 324 226.333 95.6 95.6 95.6 95.6 1@b39ae37b"/>
</svg>