<?xml version="1.0" encoding="utf-8"?>
<svg viewBox="153.847 273.756 317.495 88.235" width="317.495" height="88.235" xmlns="http://www.w3.org/2000/svg">
  <ellipse style="stroke: rgb(0, 0, 0); stroke-width: 2.954;" cx="310.709" cy="317.118" rx="155.354" ry="38.84"/>
  <path d="M 191.651 324.614 C 191.651 325.095 191.562 325.447 191.384 325.668 C 191.205 325.888 190.922 325.999 190.533 325.999 L 184.602 325.999 C 182.479 325.999 180.907 325.467 179.887 324.403 C 178.882 323.339 178.38 321.723 178.38 319.554 L 178.38 310.189 C 178.38 308 178.882 306.374 179.887 305.31 C 180.907 304.246 182.479 303.714 184.602 303.714 L 190.533 303.714 C 190.922 303.714 191.205 303.824 191.384 304.045 C 191.562 304.266 191.651 304.617 191.651 305.099 L 191.651 308.743 C 191.651 309.225 191.562 309.576 191.384 309.797 C 191.205 310.018 190.922 310.128 190.533 310.128 L 185.647 310.128 C 185.242 310.128 184.934 310.229 184.724 310.43 C 184.513 310.61 184.408 310.911 184.408 311.333 L 184.408 318.5 C 184.408 318.922 184.513 319.223 184.724 319.404 C 184.934 319.564 185.242 319.645 185.647 319.645 L 190.533 319.645 C 190.922 319.645 191.205 319.755 191.384 319.976 C 191.562 320.197 191.651 320.548 191.651 321.03 L 191.651 324.614 Z M 190.533 325.698 C 190.841 325.698 191.059 325.617 191.189 325.457 C 191.335 325.276 191.408 324.995 191.408 324.614 L 191.408 321.03 C 191.408 320.649 191.335 320.377 191.189 320.217 C 191.059 320.036 190.841 319.946 190.533 319.946 L 185.647 319.946 C 185.145 319.946 184.772 319.835 184.529 319.615 C 184.286 319.374 184.164 319.002 184.164 318.5 L 184.164 311.333 C 184.164 310.831 184.286 310.46 184.529 310.219 C 184.772 309.958 185.145 309.827 185.647 309.827 L 190.533 309.827 C 190.841 309.827 191.059 309.747 191.189 309.586 C 191.335 309.406 191.408 309.125 191.408 308.743 L 191.408 305.099 C 191.408 304.718 191.335 304.447 191.189 304.286 C 191.059 304.106 190.841 304.015 190.533 304.015 L 184.602 304.015 C 182.576 304.015 181.069 304.527 180.081 305.551 C 179.109 306.555 178.623 308.101 178.623 310.189 L 178.623 319.554 C 178.623 321.642 179.109 323.188 180.081 324.192 C 181.069 325.196 182.576 325.698 184.602 325.698 L 190.533 325.698 Z M 189.196 322.686 L 189.196 322.987 L 185.137 322.987 C 183.565 322.987 182.52 322.686 182.001 322.084 C 181.499 321.482 181.248 320.488 181.248 319.103 L 181.248 310.671 C 181.248 309.245 181.507 308.231 182.026 307.629 C 182.544 307.027 183.581 306.725 185.137 306.725 L 189.196 306.725 L 189.196 307.027 L 185.137 307.027 C 183.711 307.027 182.747 307.308 182.244 307.87 C 181.742 308.412 181.491 309.345 181.491 310.671 L 181.491 319.103 C 181.491 320.408 181.734 321.331 182.22 321.873 C 182.706 322.415 183.678 322.686 185.137 322.686 L 189.196 322.686 Z M 195.028 325.999 C 194.64 325.999 194.356 325.888 194.178 325.668 C 194 325.447 193.91 325.095 193.91 324.614 L 193.91 305.099 C 193.91 304.617 194 304.266 194.178 304.045 C 194.356 303.824 194.64 303.714 195.028 303.714 L 206.307 303.714 C 206.696 303.714 206.979 303.824 207.157 304.045 C 207.336 304.266 207.425 304.617 207.425 305.099 L 207.425 308.623 C 207.425 309.105 207.336 309.456 207.157 309.677 C 206.979 309.898 206.696 310.008 206.307 310.008 L 199.841 310.008 L 199.841 311.725 L 204.338 311.725 C 204.727 311.725 205.01 311.835 205.189 312.056 C 205.367 312.277 205.456 312.628 205.456 313.11 L 205.456 316.332 C 205.456 316.814 205.367 317.165 205.189 317.386 C 205.01 317.607 204.727 317.717 204.338 317.717 L 199.841 317.717 L 199.841 319.705 L 206.307 319.705 C 206.696 319.705 206.979 319.815 207.157 320.036 C 207.336 320.257 207.425 320.608 207.425 321.09 L 207.425 324.614 C 207.425 325.095 207.336 325.447 207.157 325.668 C 206.979 325.888 206.696 325.999 206.307 325.999 L 195.028 325.999 Z M 206.307 325.698 C 206.615 325.698 206.833 325.617 206.963 325.457 C 207.109 325.276 207.182 324.995 207.182 324.614 L 207.182 321.09 C 207.182 320.709 207.109 320.438 206.963 320.277 C 206.833 320.096 206.615 320.006 206.307 320.006 L 199.598 320.006 L 199.598 317.416 L 204.338 317.416 C 204.646 317.416 204.864 317.336 204.994 317.175 C 205.14 316.995 205.213 316.714 205.213 316.332 L 205.213 313.11 C 205.213 312.728 205.14 312.457 204.994 312.297 C 204.864 312.116 204.646 312.026 204.338 312.026 L 199.598 312.026 L 199.598 309.707 L 206.307 309.707 C 206.615 309.707 206.833 309.627 206.963 309.466 C 207.109 309.285 207.182 309.004 207.182 308.623 L 207.182 305.099 C 207.182 304.718 207.109 304.447 206.963 304.286 C 206.833 304.106 206.615 304.015 206.307 304.015 L 195.028 304.015 C 194.721 304.015 194.494 304.106 194.348 304.286 C 194.218 304.447 194.153 304.718 194.153 305.099 L 194.153 324.614 C 194.153 324.995 194.218 325.276 194.348 325.457 C 194.494 325.617 194.721 325.698 195.028 325.698 L 206.307 325.698 Z M 204.994 322.686 L 204.994 322.987 L 196.803 322.987 L 196.803 306.725 L 204.994 306.725 L 204.994 307.027 L 197.046 307.027 L 197.046 314.585 L 203.025 314.585 L 203.025 314.887 L 197.046 314.887 L 197.046 322.686 L 204.994 322.686 Z M 213.265 306.966 L 222.21 319.434 L 222.21 306.725 L 222.453 306.725 L 222.453 322.987 L 222.21 322.987 L 222.21 319.886 L 213.022 307.117 C 213.006 307.097 212.982 307.077 212.949 307.057 C 212.933 307.037 212.917 307.027 212.901 307.027 C 212.885 307.027 212.868 307.037 212.852 307.057 C 212.852 307.077 212.852 307.097 212.852 307.117 L 212.852 322.987 L 212.609 322.987 L 212.609 307.057 C 212.609 306.936 212.642 306.846 212.706 306.786 C 212.771 306.725 212.836 306.695 212.901 306.695 C 212.966 306.695 213.022 306.715 213.071 306.756 C 213.12 306.796 213.184 306.866 213.265 306.966 Z M 214.578 325.698 C 214.886 325.698 215.105 325.617 215.234 325.457 C 215.38 325.276 215.453 324.995 215.453 324.614 L 215.453 314.676 L 219.609 320.91 L 219.609 324.614 C 219.609 324.995 219.674 325.276 219.804 325.457 C 219.95 325.617 220.177 325.698 220.484 325.698 L 224.13 325.698 C 224.438 325.698 224.657 325.617 224.787 325.457 C 224.933 325.276 225.005 324.995 225.005 324.614 L 225.005 305.099 C 225.005 304.718 224.933 304.447 224.787 304.286 C 224.657 304.106 224.438 304.015 224.13 304.015 L 220.484 304.015 C 220.177 304.015 219.95 304.106 219.804 304.286 C 219.674 304.447 219.609 304.718 219.609 305.099 L 219.609 311.514 L 214.894 304.828 C 214.683 304.527 214.465 304.316 214.238 304.196 C 214.027 304.075 213.768 304.015 213.46 304.015 L 210.932 304.015 C 210.624 304.015 210.397 304.106 210.251 304.286 C 210.122 304.447 210.057 304.718 210.057 305.099 L 210.057 324.614 C 210.057 324.995 210.122 325.276 210.251 325.457 C 210.397 325.617 210.624 325.698 210.932 325.698 L 214.578 325.698 Z M 214.578 325.999 L 210.932 325.999 C 210.543 325.999 210.26 325.888 210.081 325.668 C 209.903 325.447 209.814 325.095 209.814 324.614 L 209.814 305.099 C 209.814 304.617 209.903 304.266 210.081 304.045 C 210.26 303.824 210.543 303.714 210.932 303.714 L 213.46 303.714 C 213.816 303.714 214.116 303.784 214.359 303.925 C 214.602 304.065 214.845 304.296 215.088 304.617 L 219.366 310.671 L 219.366 305.099 C 219.366 304.617 219.455 304.266 219.634 304.045 C 219.812 303.824 220.096 303.714 220.484 303.714 L 224.13 303.714 C 224.519 303.714 224.803 303.824 224.981 304.045 C 225.159 304.266 225.248 304.617 225.248 305.099 L 225.248 324.614 C 225.248 325.095 225.159 325.447 224.981 325.668 C 224.803 325.888 224.519 325.999 224.13 325.999 L 220.484 325.999 C 220.096 325.999 219.812 325.888 219.634 325.668 C 219.455 325.447 219.366 325.095 219.366 324.614 L 219.366 321.03 L 215.696 315.519 L 215.696 324.614 C 215.696 325.095 215.607 325.447 215.429 325.668 C 215.25 325.888 214.967 325.999 214.578 325.999 Z M 232.684 325.999 C 232.295 325.999 232.012 325.888 231.834 325.668 C 231.655 325.447 231.566 325.095 231.566 324.614 L 231.566 310.128 L 228.236 310.128 C 227.847 310.128 227.564 310.018 227.385 309.797 C 227.207 309.576 227.118 309.225 227.118 308.743 L 227.118 305.099 C 227.118 304.617 227.207 304.266 227.385 304.045 C 227.564 303.824 227.847 303.714 228.236 303.714 L 241.07 303.714 C 241.459 303.714 241.742 303.824 241.921 304.045 C 242.099 304.266 242.188 304.617 242.188 305.099 L 242.188 308.743 C 242.188 309.225 242.099 309.576 241.921 309.797 C 241.742 310.018 241.459 310.128 241.07 310.128 L 237.74 310.128 L 237.74 324.614 C 237.74 325.095 237.651 325.447 237.473 325.668 C 237.294 325.888 237.011 325.999 236.622 325.999 L 232.684 325.999 Z M 236.622 325.698 C 236.93 325.698 237.149 325.617 237.278 325.457 C 237.424 325.276 237.497 324.995 237.497 324.614 L 237.497 309.827 L 241.07 309.827 C 241.378 309.827 241.597 309.747 241.726 309.586 C 241.872 309.406 241.945 309.125 241.945 308.743 L 241.945 305.099 C 241.945 304.718 241.872 304.447 241.726 304.286 C 241.597 304.106 241.378 304.015 241.07 304.015 L 228.236 304.015 C 227.928 304.015 227.701 304.106 227.556 304.286 C 227.426 304.447 227.361 304.718 227.361 305.099 L 227.361 308.743 C 227.361 309.125 227.426 309.406 227.556 309.586 C 227.701 309.747 227.928 309.827 228.236 309.827 L 231.809 309.827 L 231.809 324.614 C 231.809 324.995 231.874 325.276 232.004 325.457 C 232.15 325.617 232.376 325.698 232.684 325.698 L 236.622 325.698 Z M 234.532 322.987 L 234.532 307.027 L 229.549 307.027 L 229.549 306.725 L 239.757 306.725 L 239.757 307.027 L 234.775 307.027 L 234.775 322.987 L 234.532 322.987 Z M 252.476 307.027 L 247.177 307.027 L 247.177 315.73 L 252.476 315.73 C 253.48 315.73 254.153 315.429 254.493 314.826 C 254.834 314.224 255.004 313.371 255.004 312.267 L 255.004 310.159 C 255.004 309.235 254.793 308.482 254.372 307.9 C 253.967 307.318 253.335 307.027 252.476 307.027 Z M 249.802 309.436 L 251.625 309.436 C 252.046 309.436 252.33 309.576 252.476 309.857 C 252.622 310.118 252.695 310.45 252.695 310.851 L 252.695 311.875 C 252.695 312.277 252.622 312.618 252.476 312.899 C 252.33 313.16 252.046 313.29 251.625 313.29 L 249.802 313.29 L 249.802 309.436 Z M 251.625 309.737 L 250.045 309.737 L 250.045 312.989 L 251.625 312.989 C 251.965 312.989 252.184 312.889 252.281 312.688 C 252.395 312.467 252.451 312.196 252.451 311.875 L 252.451 310.851 C 252.451 310.53 252.395 310.269 252.281 310.068 C 252.184 309.847 251.965 309.737 251.625 309.737 Z M 247.177 322.987 L 246.934 322.987 L 246.934 306.725 L 252.476 306.725 C 253.416 306.725 254.112 307.057 254.566 307.719 C 255.02 308.362 255.247 309.175 255.247 310.159 L 255.247 312.236 C 255.247 313.16 255.15 313.923 254.955 314.525 C 254.761 315.107 254.372 315.509 253.788 315.73 L 254.056 315.73 C 255.044 315.73 255.781 316.011 256.268 316.573 C 256.754 317.115 256.997 317.908 256.997 318.952 L 256.997 322.987 L 256.754 322.987 L 256.754 318.952 C 256.754 317.968 256.535 317.236 256.097 316.754 C 255.66 316.252 254.979 316.001 254.056 316.001 L 247.177 316.001 L 247.177 322.987 Z M 248.927 325.698 C 249.235 325.698 249.454 325.617 249.583 325.457 C 249.729 325.276 249.802 324.995 249.802 324.614 L 249.802 318.711 L 253.205 318.711 C 253.545 318.711 253.78 318.822 253.91 319.042 C 254.056 319.243 254.129 319.564 254.129 320.006 L 254.129 324.614 C 254.129 324.995 254.193 325.276 254.323 325.457 C 254.469 325.617 254.696 325.698 255.004 325.698 L 258.771 325.698 C 259.079 325.698 259.298 325.617 259.427 325.457 C 259.573 325.276 259.646 324.995 259.646 324.614 L 259.646 318.229 C 259.646 316.964 259.371 315.951 258.82 315.188 C 258.285 314.425 257.58 313.983 256.705 313.863 C 257.207 313.602 257.556 313.18 257.75 312.598 C 257.961 311.996 258.066 311.273 258.066 310.43 L 258.066 309.044 C 258.066 307.559 257.718 306.354 257.021 305.431 C 256.341 304.487 255.093 304.015 253.278 304.015 L 245.184 304.015 C 244.876 304.015 244.649 304.106 244.503 304.286 C 244.374 304.447 244.309 304.718 244.309 305.099 L 244.309 324.614 C 244.309 324.995 244.374 325.276 244.503 325.457 C 244.649 325.617 244.876 325.698 245.184 325.698 L 248.927 325.698 Z M 248.927 325.999 L 245.184 325.999 C 244.795 325.999 244.511 325.888 244.333 325.668 C 244.155 325.447 244.066 325.095 244.066 324.614 L 244.066 305.099 C 244.066 304.617 244.155 304.266 244.333 304.045 C 244.511 303.824 244.795 303.714 245.184 303.714 L 253.278 303.714 C 255.206 303.714 256.527 304.216 257.24 305.22 C 257.953 306.204 258.309 307.478 258.309 309.044 L 258.309 310.43 C 258.309 311.172 258.236 311.825 258.091 312.387 C 257.945 312.929 257.702 313.371 257.361 313.712 C 258.123 313.973 258.731 314.495 259.184 315.278 C 259.654 316.061 259.889 317.045 259.889 318.229 L 259.889 324.614 C 259.889 325.095 259.8 325.447 259.622 325.668 C 259.444 325.888 259.16 325.999 258.771 325.999 L 255.004 325.999 C 254.615 325.999 254.331 325.888 254.153 325.668 C 253.975 325.447 253.886 325.095 253.886 324.614 L 253.886 320.006 C 253.886 319.685 253.837 319.444 253.74 319.283 C 253.643 319.103 253.464 319.012 253.205 319.012 L 250.045 319.012 L 250.045 324.614 C 250.045 325.095 249.956 325.447 249.778 325.668 C 249.6 325.888 249.316 325.999 248.927 325.999 Z M 263.248 325.999 C 262.859 325.999 262.575 325.888 262.397 325.668 C 262.219 325.447 262.13 325.095 262.13 324.614 L 262.13 305.099 C 262.13 304.617 262.219 304.266 262.397 304.045 C 262.575 303.824 262.859 303.714 263.248 303.714 L 274.526 303.714 C 274.915 303.714 275.198 303.824 275.377 304.045 C 275.555 304.266 275.644 304.617 275.644 305.099 L 275.644 308.623 C 275.644 309.105 275.555 309.456 275.377 309.677 C 275.198 309.898 274.915 310.008 274.526 310.008 L 268.06 310.008 L 268.06 311.725 L 272.557 311.725 C 272.946 311.725 273.229 311.835 273.408 312.056 C 273.586 312.277 273.675 312.628 273.675 313.11 L 273.675 316.332 C 273.675 316.814 273.586 317.165 273.408 317.386 C 273.229 317.607 272.946 317.717 272.557 317.717 L 268.06 317.717 L 268.06 319.705 L 274.526 319.705 C 274.915 319.705 275.198 319.815 275.377 320.036 C 275.555 320.257 275.644 320.608 275.644 321.09 L 275.644 324.614 C 275.644 325.095 275.555 325.447 275.377 325.668 C 275.198 325.888 274.915 325.999 274.526 325.999 L 263.248 325.999 Z M 274.526 325.698 C 274.834 325.698 275.052 325.617 275.182 325.457 C 275.328 325.276 275.401 324.995 275.401 324.614 L 275.401 321.09 C 275.401 320.709 275.328 320.438 275.182 320.277 C 275.052 320.096 274.834 320.006 274.526 320.006 L 267.817 320.006 L 267.817 317.416 L 272.557 317.416 C 272.865 317.416 273.084 317.336 273.213 317.175 C 273.359 316.995 273.432 316.714 273.432 316.332 L 273.432 313.11 C 273.432 312.728 273.359 312.457 273.213 312.297 C 273.084 312.116 272.865 312.026 272.557 312.026 L 267.817 312.026 L 267.817 309.707 L 274.526 309.707 C 274.834 309.707 275.052 309.627 275.182 309.466 C 275.328 309.285 275.401 309.004 275.401 308.623 L 275.401 305.099 C 275.401 304.718 275.328 304.447 275.182 304.286 C 275.052 304.106 274.834 304.015 274.526 304.015 L 263.248 304.015 C 262.94 304.015 262.713 304.106 262.567 304.286 C 262.437 304.447 262.373 304.718 262.373 305.099 L 262.373 324.614 C 262.373 324.995 262.437 325.276 262.567 325.457 C 262.713 325.617 262.94 325.698 263.248 325.698 L 274.526 325.698 Z M 273.213 322.686 L 273.213 322.987 L 265.022 322.987 L 265.022 306.725 L 273.213 306.725 L 273.213 307.027 L 265.265 307.027 L 265.265 314.585 L 271.244 314.585 L 271.244 314.887 L 265.265 314.887 L 265.265 322.686 L 273.213 322.686 Z M 290.089 324.824 C 289.943 325.266 289.757 325.567 289.53 325.728 C 289.303 325.909 289.003 325.999 288.631 325.999 L 282.311 325.999 C 281.938 325.999 281.638 325.909 281.412 325.728 C 281.185 325.567 280.998 325.266 280.853 324.824 L 278.471 317.446 C 278.325 316.985 278.195 316.593 278.082 316.272 C 277.984 315.931 277.903 315.609 277.839 315.308 C 277.774 314.987 277.725 314.656 277.693 314.314 C 277.677 313.953 277.668 313.531 277.668 313.05 L 277.668 305.099 C 277.668 304.617 277.758 304.266 277.936 304.045 C 278.114 303.824 278.398 303.714 278.787 303.714 L 282.651 303.714 C 283.04 303.714 283.332 303.834 283.526 304.075 C 283.737 304.296 283.842 304.638 283.842 305.099 L 283.842 313.411 C 283.842 313.612 283.858 313.802 283.891 313.983 C 283.923 314.164 283.964 314.355 284.012 314.555 L 285.179 318.771 C 285.195 318.872 285.22 318.952 285.252 319.012 C 285.284 319.052 285.333 319.073 285.398 319.073 L 285.665 319.073 C 285.73 319.073 285.779 319.052 285.811 319.012 C 285.844 318.952 285.876 318.872 285.908 318.771 L 287.051 314.525 C 287.099 314.324 287.14 314.134 287.172 313.953 C 287.205 313.772 287.221 313.582 287.221 313.381 L 287.221 305.099 C 287.221 304.617 287.31 304.266 287.488 304.045 C 287.666 303.824 287.95 303.714 288.339 303.714 L 292.155 303.714 C 292.56 303.714 292.844 303.824 293.006 304.045 C 293.184 304.266 293.273 304.617 293.273 305.099 L 293.273 313.05 C 293.273 313.531 293.257 313.953 293.225 314.314 C 293.208 314.656 293.168 314.987 293.103 315.308 C 293.038 315.609 292.949 315.931 292.836 316.272 C 292.738 316.593 292.617 316.985 292.471 317.446 L 290.089 324.824 Z M 288.631 325.698 C 288.939 325.698 289.19 325.627 289.384 325.487 C 289.595 325.346 289.757 325.085 289.87 324.704 L 292.252 317.326 C 292.398 316.884 292.52 316.503 292.617 316.182 C 292.714 315.84 292.795 315.519 292.86 315.218 C 292.925 314.917 292.965 314.606 292.982 314.284 C 293.014 313.943 293.03 313.531 293.03 313.05 L 293.03 305.099 C 293.03 304.718 292.957 304.447 292.811 304.286 C 292.682 304.106 292.463 304.015 292.155 304.015 L 288.339 304.015 C 288.031 304.015 287.804 304.106 287.658 304.286 C 287.529 304.447 287.464 304.718 287.464 305.099 L 287.464 313.381 C 287.464 313.582 287.448 313.782 287.415 313.983 C 287.383 314.184 287.334 314.395 287.269 314.616 L 286.127 318.862 C 286.078 319.062 286.022 319.203 285.957 319.283 C 285.892 319.344 285.795 319.374 285.665 319.374 L 285.398 319.374 C 285.268 319.374 285.171 319.344 285.106 319.283 C 285.041 319.203 284.985 319.062 284.936 318.862 L 283.794 314.646 C 283.729 314.425 283.68 314.214 283.648 314.013 C 283.615 313.812 283.599 313.612 283.599 313.411 L 283.599 305.099 C 283.599 304.718 283.518 304.447 283.356 304.286 C 283.194 304.106 282.959 304.015 282.651 304.015 L 278.787 304.015 C 278.479 304.015 278.252 304.106 278.106 304.286 C 277.976 304.447 277.911 304.718 277.911 305.099 L 277.911 313.05 C 277.911 313.531 277.92 313.943 277.936 314.284 C 277.968 314.606 278.017 314.917 278.082 315.218 C 278.146 315.519 278.227 315.84 278.325 316.182 C 278.422 316.503 278.543 316.884 278.689 317.326 L 281.071 324.704 C 281.185 325.085 281.339 325.346 281.533 325.487 C 281.744 325.627 282.003 325.698 282.311 325.698 L 288.631 325.698 Z M 280.658 306.725 L 280.901 306.725 L 280.901 313.23 C 280.901 313.752 280.934 314.254 280.998 314.736 C 281.063 315.198 281.16 315.629 281.29 316.031 L 282.894 320.849 C 283.056 321.371 283.235 321.813 283.429 322.174 C 283.64 322.516 283.972 322.686 284.426 322.686 L 286.565 322.686 C 287.018 322.686 287.342 322.516 287.537 322.174 C 287.748 321.813 287.934 321.371 288.096 320.849 L 289.7 316.031 C 289.83 315.629 289.927 315.198 289.992 314.736 C 290.057 314.254 290.089 313.752 290.089 313.23 L 290.089 306.725 L 290.332 306.725 L 290.332 313.23 C 290.332 313.792 290.3 314.314 290.235 314.796 C 290.186 315.258 290.089 315.71 289.943 316.151 L 288.339 320.97 C 288.145 321.552 287.926 322.034 287.683 322.415 C 287.44 322.797 287.067 322.987 286.565 322.987 L 284.426 322.987 C 283.923 322.987 283.551 322.797 283.308 322.415 C 283.064 322.034 282.846 321.552 282.651 320.97 L 281.047 316.151 C 280.901 315.71 280.796 315.258 280.731 314.796 C 280.682 314.314 280.658 313.792 280.658 313.23 L 280.658 306.725 Z M 296.517 325.999 C 296.128 325.999 295.845 325.888 295.666 325.668 C 295.488 325.447 295.399 325.095 295.399 324.614 L 295.399 321.03 C 295.399 320.548 295.488 320.197 295.666 319.976 C 295.845 319.755 296.128 319.645 296.517 319.645 L 298.68 319.645 L 298.68 310.128 L 296.517 310.128 C 296.128 310.128 295.845 310.018 295.666 309.797 C 295.488 309.576 295.399 309.225 295.399 308.743 L 295.399 305.099 C 295.399 304.617 295.488 304.266 295.666 304.045 C 295.845 303.824 296.128 303.714 296.517 303.714 L 306.872 303.714 C 307.261 303.714 307.544 303.824 307.722 304.045 C 307.901 304.266 307.99 304.617 307.99 305.099 L 307.99 308.743 C 307.99 309.225 307.901 309.576 307.722 309.797 C 307.544 310.018 307.261 310.128 306.872 310.128 L 304.757 310.128 L 304.757 319.645 L 306.872 319.645 C 307.261 319.645 307.544 319.755 307.722 319.976 C 307.901 320.197 307.99 320.548 307.99 321.03 L 307.99 324.614 C 307.99 325.095 307.901 325.447 307.722 325.668 C 307.544 325.888 307.261 325.999 306.872 325.999 L 296.517 325.999 Z M 296.517 325.698 L 306.872 325.698 C 307.18 325.698 307.398 325.617 307.528 325.457 C 307.674 325.276 307.747 324.995 307.747 324.614 L 307.747 321.03 C 307.747 320.649 307.674 320.377 307.528 320.217 C 307.398 320.036 307.18 319.946 306.872 319.946 L 304.514 319.946 L 304.514 309.827 L 306.872 309.827 C 307.18 309.827 307.398 309.747 307.528 309.586 C 307.674 309.406 307.747 309.125 307.747 308.743 L 307.747 305.099 C 307.747 304.718 307.674 304.447 307.528 304.286 C 307.398 304.106 307.18 304.015 306.872 304.015 L 296.517 304.015 C 296.209 304.015 295.982 304.106 295.836 304.286 C 295.707 304.447 295.642 304.718 295.642 305.099 L 295.642 308.743 C 295.642 309.125 295.707 309.406 295.836 309.586 C 295.982 309.747 296.209 309.827 296.517 309.827 L 298.923 309.827 L 298.923 319.946 L 296.517 319.946 C 296.209 319.946 295.982 320.036 295.836 320.217 C 295.707 320.377 295.642 320.649 295.642 321.03 L 295.642 324.614 C 295.642 324.995 295.707 325.276 295.836 325.457 C 295.982 325.617 296.209 325.698 296.517 325.698 Z M 305.559 322.987 L 297.83 322.987 L 297.83 322.686 L 301.597 322.686 L 301.597 307.027 L 297.83 307.027 L 297.83 306.725 L 305.559 306.725 L 305.559 307.027 L 301.84 307.027 L 301.84 322.686 L 305.559 322.686 L 305.559 322.987 Z M 311.623 325.999 C 311.234 325.999 310.95 325.888 310.772 325.668 C 310.594 325.447 310.504 325.095 310.504 324.614 L 310.504 305.099 C 310.504 304.617 310.594 304.266 310.772 304.045 C 310.95 303.824 311.234 303.714 311.623 303.714 L 315.39 303.714 C 315.779 303.714 316.063 303.824 316.241 304.045 C 316.419 304.266 316.508 304.617 316.508 305.099 L 316.508 319.705 L 319.352 319.705 L 319.352 315.127 C 319.352 314.646 319.441 314.294 319.619 314.073 C 319.798 313.853 320.081 313.742 320.47 313.742 L 323.995 313.742 C 324.383 313.742 324.667 313.853 324.845 314.073 C 325.023 314.294 325.113 314.646 325.113 315.127 L 325.113 324.614 C 325.113 325.095 325.023 325.447 324.845 325.668 C 324.667 325.888 324.383 325.999 323.995 325.999 L 311.623 325.999 Z M 323.995 325.698 C 324.302 325.698 324.521 325.617 324.651 325.457 C 324.797 325.276 324.87 324.995 324.87 324.614 L 324.87 315.127 C 324.87 314.746 324.797 314.475 324.651 314.314 C 324.521 314.134 324.302 314.043 323.995 314.043 L 320.47 314.043 C 320.162 314.043 319.935 314.134 319.79 314.314 C 319.66 314.475 319.595 314.746 319.595 315.127 L 319.595 320.006 L 316.265 320.006 L 316.265 305.099 C 316.265 304.718 316.192 304.447 316.046 304.286 C 315.917 304.106 315.698 304.015 315.39 304.015 L 311.623 304.015 C 311.315 304.015 311.088 304.106 310.942 304.286 C 310.812 304.447 310.748 304.718 310.748 305.099 L 310.748 324.614 C 310.748 324.995 310.812 325.276 310.942 325.457 C 311.088 325.617 311.315 325.698 311.623 325.698 L 323.995 325.698 Z M 313.397 322.987 L 313.397 306.725 L 313.64 306.725 L 313.64 322.686 L 322.099 322.686 L 322.099 316.754 L 322.342 316.754 L 322.342 322.987 L 313.397 322.987 Z M 328.524 325.999 C 328.135 325.999 327.851 325.888 327.673 325.668 C 327.495 325.447 327.406 325.095 327.406 324.614 L 327.406 305.099 C 327.406 304.617 327.495 304.266 327.673 304.045 C 327.851 303.824 328.135 303.714 328.524 303.714 L 332.291 303.714 C 332.68 303.714 332.964 303.824 333.142 304.045 C 333.32 304.266 333.409 304.617 333.409 305.099 L 333.409 319.705 L 336.253 319.705 L 336.253 315.127 C 336.253 314.646 336.342 314.294 336.52 314.073 C 336.699 313.853 336.982 313.742 337.371 313.742 L 340.896 313.742 C 341.285 313.742 341.568 313.853 341.746 314.073 C 341.925 314.294 342.014 314.646 342.014 315.127 L 342.014 324.614 C 342.014 325.095 341.925 325.447 341.746 325.668 C 341.568 325.888 341.285 325.999 340.896 325.999 L 328.524 325.999 Z M 340.896 325.698 C 341.203 325.698 341.422 325.617 341.552 325.457 C 341.698 325.276 341.771 324.995 341.771 324.614 L 341.771 315.127 C 341.771 314.746 341.698 314.475 341.552 314.314 C 341.422 314.134 341.203 314.043 340.896 314.043 L 337.371 314.043 C 337.063 314.043 336.836 314.134 336.691 314.314 C 336.561 314.475 336.496 314.746 336.496 315.127 L 336.496 320.006 L 333.166 320.006 L 333.166 305.099 C 333.166 304.718 333.093 304.447 332.947 304.286 C 332.818 304.106 332.599 304.015 332.291 304.015 L 328.524 304.015 C 328.216 304.015 327.989 304.106 327.843 304.286 C 327.713 304.447 327.649 304.718 327.649 305.099 L 327.649 324.614 C 327.649 324.995 327.713 325.276 327.843 325.457 C 327.989 325.617 328.216 325.698 328.524 325.698 L 340.896 325.698 Z M 330.298 322.987 L 330.298 306.725 L 330.541 306.725 L 330.541 322.686 L 339 322.686 L 339 316.754 L 339.243 316.754 L 339.243 322.987 L 330.298 322.987 Z M 345.424 325.999 C 345.035 325.999 344.751 325.888 344.573 325.668 C 344.395 325.447 344.306 325.095 344.306 324.614 L 344.306 305.099 C 344.306 304.617 344.395 304.266 344.573 304.045 C 344.751 303.824 345.035 303.714 345.424 303.714 L 356.702 303.714 C 357.091 303.714 357.374 303.824 357.553 304.045 C 357.731 304.266 357.82 304.617 357.82 305.099 L 357.82 308.623 C 357.82 309.105 357.731 309.456 357.553 309.677 C 357.374 309.898 357.091 310.008 356.702 310.008 L 350.236 310.008 L 350.236 311.725 L 354.733 311.725 C 355.122 311.725 355.406 311.835 355.584 312.056 C 355.762 312.277 355.851 312.628 355.851 313.11 L 355.851 316.332 C 355.851 316.814 355.762 317.165 355.584 317.386 C 355.406 317.607 355.122 317.717 354.733 317.717 L 350.236 317.717 L 350.236 319.705 L 356.702 319.705 C 357.091 319.705 357.374 319.815 357.553 320.036 C 357.731 320.257 357.82 320.608 357.82 321.09 L 357.82 324.614 C 357.82 325.095 357.731 325.447 357.553 325.668 C 357.374 325.888 357.091 325.999 356.702 325.999 L 345.424 325.999 Z M 356.702 325.698 C 357.01 325.698 357.229 325.617 357.358 325.457 C 357.504 325.276 357.577 324.995 357.577 324.614 L 357.577 321.09 C 357.577 320.709 357.504 320.438 357.358 320.277 C 357.229 320.096 357.01 320.006 356.702 320.006 L 349.993 320.006 L 349.993 317.416 L 354.733 317.416 C 355.041 317.416 355.26 317.336 355.389 317.175 C 355.535 316.995 355.608 316.714 355.608 316.332 L 355.608 313.11 C 355.608 312.728 355.535 312.457 355.389 312.297 C 355.26 312.116 355.041 312.026 354.733 312.026 L 349.993 312.026 L 349.993 309.707 L 356.702 309.707 C 357.01 309.707 357.229 309.627 357.358 309.466 C 357.504 309.285 357.577 309.004 357.577 308.623 L 357.577 305.099 C 357.577 304.718 357.504 304.447 357.358 304.286 C 357.229 304.106 357.01 304.015 356.702 304.015 L 345.424 304.015 C 345.116 304.015 344.889 304.106 344.743 304.286 C 344.613 304.447 344.549 304.718 344.549 305.099 L 344.549 324.614 C 344.549 324.995 344.613 325.276 344.743 325.457 C 344.889 325.617 345.116 325.698 345.424 325.698 L 356.702 325.698 Z M 355.389 322.686 L 355.389 322.987 L 347.198 322.987 L 347.198 306.725 L 355.389 306.725 L 355.389 307.027 L 347.441 307.027 L 347.441 314.585 L 353.421 314.585 L 353.421 314.887 L 347.441 314.887 L 347.441 322.686 L 355.389 322.686 Z" style="fill: rgb(255, 255, 255); stroke-width: 1.134;"/>
  <path d="M 190.365 325.321 C 190.365 325.819 190.275 326.182 190.094 326.411 C 189.912 326.639 189.624 326.753 189.229 326.753 L 183.198 326.753 C 181.04 326.753 179.441 326.203 178.403 325.103 C 177.382 324.003 176.871 322.332 176.871 320.09 L 176.871 310.408 C 176.871 308.145 177.382 306.464 178.403 305.364 C 179.441 304.264 181.04 303.714 183.198 303.714 L 189.229 303.714 C 189.624 303.714 189.912 303.828 190.094 304.056 C 190.275 304.285 190.365 304.648 190.365 305.146 L 190.365 308.913 C 190.365 309.411 190.275 309.775 190.094 310.003 C 189.912 310.231 189.624 310.345 189.229 310.345 L 184.261 310.345 C 183.849 310.345 183.536 310.449 183.322 310.657 C 183.107 310.844 183 311.155 183 311.591 L 183 319.001 C 183 319.437 183.107 319.748 183.322 319.935 C 183.536 320.101 183.849 320.184 184.261 320.184 L 189.229 320.184 C 189.624 320.184 189.912 320.298 190.094 320.526 C 190.275 320.755 190.365 321.118 190.365 321.616 L 190.365 325.321 Z M 189.229 326.442 C 189.542 326.442 189.764 326.359 189.896 326.193 C 190.044 326.006 190.118 325.715 190.118 325.321 L 190.118 321.616 C 190.118 321.222 190.044 320.941 189.896 320.775 C 189.764 320.589 189.542 320.495 189.229 320.495 L 184.261 320.495 C 183.75 320.495 183.371 320.381 183.124 320.153 C 182.877 319.904 182.753 319.52 182.753 319.001 L 182.753 311.591 C 182.753 311.072 182.877 310.688 183.124 310.439 C 183.371 310.169 183.75 310.034 184.261 310.034 L 189.229 310.034 C 189.542 310.034 189.764 309.951 189.896 309.785 C 190.044 309.598 190.118 309.308 190.118 308.913 L 190.118 305.146 C 190.118 304.752 190.044 304.472 189.896 304.306 C 189.764 304.119 189.542 304.025 189.229 304.025 L 183.198 304.025 C 181.138 304.025 179.606 304.555 178.601 305.613 C 177.612 306.651 177.118 308.249 177.118 310.408 L 177.118 320.09 C 177.118 322.249 177.612 323.847 178.601 324.885 C 179.606 325.923 181.138 326.442 183.198 326.442 L 189.229 326.442 Z M 187.869 323.328 L 187.869 323.64 L 183.742 323.64 C 182.144 323.64 181.081 323.328 180.554 322.706 C 180.043 322.083 179.787 321.056 179.787 319.623 L 179.787 310.906 C 179.787 309.432 180.051 308.384 180.578 307.761 C 181.105 307.139 182.16 306.827 183.742 306.827 L 187.869 306.827 L 187.869 307.139 L 183.742 307.139 C 182.292 307.139 181.311 307.429 180.801 308.01 C 180.29 308.571 180.034 309.536 180.034 310.906 L 180.034 319.623 C 180.034 320.972 180.282 321.927 180.776 322.488 C 181.27 323.048 182.259 323.328 183.742 323.328 L 187.869 323.328 Z M 193.799 326.753 C 193.403 326.753 193.115 326.639 192.934 326.411 C 192.752 326.182 192.662 325.819 192.662 325.321 L 192.662 305.146 C 192.662 304.648 192.752 304.285 192.934 304.056 C 193.115 303.828 193.403 303.714 193.799 303.714 L 205.267 303.714 C 205.662 303.714 205.95 303.828 206.132 304.056 C 206.313 304.285 206.403 304.648 206.403 305.146 L 206.403 308.789 C 206.403 309.287 206.313 309.65 206.132 309.878 C 205.95 310.107 205.662 310.221 205.267 310.221 L 198.692 310.221 L 198.692 311.996 L 203.265 311.996 C 203.66 311.996 203.948 312.11 204.13 312.338 C 204.311 312.566 204.402 312.93 204.402 313.428 L 204.402 316.759 C 204.402 317.257 204.311 317.62 204.13 317.849 C 203.948 318.077 203.66 318.191 203.265 318.191 L 198.692 318.191 L 198.692 320.246 L 205.267 320.246 C 205.662 320.246 205.95 320.36 206.132 320.589 C 206.313 320.817 206.403 321.18 206.403 321.678 L 206.403 325.321 C 206.403 325.819 206.313 326.182 206.132 326.411 C 205.95 326.639 205.662 326.753 205.267 326.753 L 193.799 326.753 Z M 205.267 326.442 C 205.58 326.442 205.802 326.359 205.934 326.193 C 206.082 326.006 206.156 325.715 206.156 325.321 L 206.156 321.678 C 206.156 321.284 206.082 321.004 205.934 320.838 C 205.802 320.651 205.58 320.557 205.267 320.557 L 198.445 320.557 L 198.445 317.88 L 203.265 317.88 C 203.578 317.88 203.8 317.797 203.932 317.631 C 204.08 317.444 204.154 317.153 204.154 316.759 L 204.154 313.428 C 204.154 313.033 204.08 312.753 203.932 312.587 C 203.8 312.4 203.578 312.307 203.265 312.307 L 198.445 312.307 L 198.445 309.91 L 205.267 309.91 C 205.58 309.91 205.802 309.827 205.934 309.661 C 206.082 309.474 206.156 309.183 206.156 308.789 L 206.156 305.146 C 206.156 304.752 206.082 304.472 205.934 304.306 C 205.802 304.119 205.58 304.025 205.267 304.025 L 193.799 304.025 C 193.486 304.025 193.255 304.119 193.107 304.306 C 192.975 304.472 192.909 304.752 192.909 305.146 L 192.909 325.321 C 192.909 325.715 192.975 326.006 193.107 326.193 C 193.255 326.359 193.486 326.442 193.799 326.442 L 205.267 326.442 Z M 203.932 323.328 L 203.932 323.64 L 195.603 323.64 L 195.603 306.827 L 203.932 306.827 L 203.932 307.139 L 195.85 307.139 L 195.85 314.953 L 201.93 314.953 L 201.93 315.265 L 195.85 315.265 L 195.85 323.328 L 203.932 323.328 Z M 212.342 307.076 L 221.437 319.966 L 221.437 306.827 L 221.685 306.827 L 221.685 323.64 L 221.437 323.64 L 221.437 320.433 L 212.095 307.232 C 212.079 307.211 212.054 307.191 212.021 307.17 C 212.004 307.149 211.988 307.139 211.972 307.139 C 211.955 307.139 211.939 307.149 211.922 307.17 C 211.922 307.191 211.922 307.211 211.922 307.232 L 211.922 323.64 L 211.675 323.64 L 211.675 307.17 C 211.675 307.045 211.708 306.952 211.774 306.89 C 211.84 306.827 211.906 306.796 211.972 306.796 C 212.037 306.796 212.095 306.817 212.145 306.858 C 212.194 306.9 212.26 306.973 212.342 307.076 Z M 213.677 326.442 C 213.99 326.442 214.212 326.359 214.344 326.193 C 214.492 326.006 214.567 325.715 214.567 325.321 L 214.567 315.047 L 218.793 321.491 L 218.793 325.321 C 218.793 325.715 218.859 326.006 218.991 326.193 C 219.139 326.359 219.37 326.442 219.683 326.442 L 223.39 326.442 C 223.703 326.442 223.925 326.359 224.057 326.193 C 224.206 326.006 224.28 325.715 224.28 325.321 L 224.28 305.146 C 224.28 304.752 224.206 304.472 224.057 304.306 C 223.925 304.119 223.703 304.025 223.39 304.025 L 219.683 304.025 C 219.37 304.025 219.139 304.119 218.991 304.306 C 218.859 304.472 218.793 304.752 218.793 305.146 L 218.793 311.778 L 213.998 304.866 C 213.784 304.555 213.562 304.337 213.331 304.212 C 213.117 304.088 212.853 304.025 212.54 304.025 L 209.97 304.025 C 209.657 304.025 209.426 304.119 209.278 304.306 C 209.146 304.472 209.08 304.752 209.08 305.146 L 209.08 325.321 C 209.08 325.715 209.146 326.006 209.278 326.193 C 209.426 326.359 209.657 326.442 209.97 326.442 L 213.677 326.442 Z M 213.677 326.753 L 209.97 326.753 C 209.574 326.753 209.286 326.639 209.105 326.411 C 208.923 326.182 208.833 325.819 208.833 325.321 L 208.833 305.146 C 208.833 304.648 208.923 304.285 209.105 304.056 C 209.286 303.828 209.574 303.714 209.97 303.714 L 212.54 303.714 C 212.902 303.714 213.207 303.787 213.454 303.932 C 213.702 304.077 213.949 304.316 214.196 304.648 L 218.546 310.906 L 218.546 305.146 C 218.546 304.648 218.636 304.285 218.818 304.056 C 218.999 303.828 219.287 303.714 219.683 303.714 L 223.39 303.714 C 223.785 303.714 224.074 303.828 224.255 304.056 C 224.436 304.285 224.527 304.648 224.527 305.146 L 224.527 325.321 C 224.527 325.819 224.436 326.182 224.255 326.411 C 224.074 326.639 223.785 326.753 223.39 326.753 L 219.683 326.753 C 219.287 326.753 218.999 326.639 218.818 326.411 C 218.636 326.182 218.546 325.819 218.546 325.321 L 218.546 321.616 L 214.814 315.918 L 214.814 325.321 C 214.814 325.819 214.723 326.182 214.542 326.411 C 214.361 326.639 214.072 326.753 213.677 326.753 Z M 232.089 326.753 C 231.693 326.753 231.405 326.639 231.224 326.411 C 231.042 326.182 230.952 325.819 230.952 325.321 L 230.952 310.345 L 227.566 310.345 C 227.17 310.345 226.882 310.231 226.701 310.003 C 226.519 309.775 226.429 309.411 226.429 308.913 L 226.429 305.146 C 226.429 304.648 226.519 304.285 226.701 304.056 C 226.882 303.828 227.17 303.714 227.566 303.714 L 240.615 303.714 C 241.011 303.714 241.299 303.828 241.48 304.056 C 241.662 304.285 241.752 304.648 241.752 305.146 L 241.752 308.913 C 241.752 309.411 241.662 309.775 241.48 310.003 C 241.299 310.231 241.011 310.345 240.615 310.345 L 237.229 310.345 L 237.229 325.321 C 237.229 325.819 237.139 326.182 236.957 326.411 C 236.776 326.639 236.488 326.753 236.092 326.753 L 232.089 326.753 Z M 236.092 326.442 C 236.405 326.442 236.628 326.359 236.76 326.193 C 236.908 326.006 236.982 325.715 236.982 325.321 L 236.982 310.034 L 240.615 310.034 C 240.928 310.034 241.151 309.951 241.283 309.785 C 241.431 309.598 241.505 309.308 241.505 308.913 L 241.505 305.146 C 241.505 304.752 241.431 304.472 241.283 304.306 C 241.151 304.119 240.928 304.025 240.615 304.025 L 227.566 304.025 C 227.253 304.025 227.022 304.119 226.874 304.306 C 226.742 304.472 226.676 304.752 226.676 305.146 L 226.676 308.913 C 226.676 309.308 226.742 309.598 226.874 309.785 C 227.022 309.951 227.253 310.034 227.566 310.034 L 231.199 310.034 L 231.199 325.321 C 231.199 325.715 231.265 326.006 231.397 326.193 C 231.545 326.359 231.776 326.442 232.089 326.442 L 236.092 326.442 Z M 233.967 323.64 L 233.967 307.139 L 228.9 307.139 L 228.9 306.827 L 239.281 306.827 L 239.281 307.139 L 234.214 307.139 L 234.214 323.64 L 233.967 323.64 Z M 252.213 307.139 L 246.825 307.139 L 246.825 316.136 L 252.213 316.136 C 253.234 316.136 253.918 315.825 254.264 315.202 C 254.61 314.58 254.783 313.698 254.783 312.556 L 254.783 310.377 C 254.783 309.422 254.569 308.643 254.141 308.042 C 253.729 307.44 253.086 307.139 252.213 307.139 Z M 249.494 309.629 L 251.348 309.629 C 251.776 309.629 252.065 309.775 252.213 310.065 C 252.361 310.335 252.435 310.678 252.435 311.093 L 252.435 312.151 C 252.435 312.566 252.361 312.919 252.213 313.21 C 252.065 313.48 251.776 313.615 251.348 313.615 L 249.494 313.615 L 249.494 309.629 Z M 251.348 309.941 L 249.741 309.941 L 249.741 313.303 L 251.348 313.303 C 251.694 313.303 251.916 313.199 252.015 312.992 C 252.13 312.764 252.188 312.483 252.188 312.151 L 252.188 311.093 C 252.188 310.761 252.13 310.491 252.015 310.283 C 251.916 310.055 251.694 309.941 251.348 309.941 Z M 246.825 323.64 L 246.578 323.64 L 246.578 306.827 L 252.213 306.827 C 253.168 306.827 253.877 307.17 254.338 307.855 C 254.8 308.519 255.03 309.36 255.03 310.377 L 255.03 312.525 C 255.03 313.48 254.932 314.268 254.734 314.891 C 254.536 315.493 254.141 315.908 253.547 316.136 L 253.819 316.136 C 254.824 316.136 255.574 316.427 256.068 317.008 C 256.563 317.569 256.81 318.388 256.81 319.468 L 256.81 323.64 L 256.563 323.64 L 256.563 319.468 C 256.563 318.451 256.34 317.693 255.895 317.195 C 255.451 316.676 254.758 316.417 253.819 316.417 L 246.825 316.417 L 246.825 323.64 Z M 248.604 326.442 C 248.917 326.442 249.14 326.359 249.272 326.193 C 249.42 326.006 249.494 325.715 249.494 325.321 L 249.494 319.219 L 252.954 319.219 C 253.3 319.219 253.539 319.333 253.671 319.561 C 253.819 319.769 253.893 320.101 253.893 320.557 L 253.893 325.321 C 253.893 325.715 253.959 326.006 254.091 326.193 C 254.239 326.359 254.47 326.442 254.783 326.442 L 258.614 326.442 C 258.927 326.442 259.15 326.359 259.281 326.193 C 259.43 326.006 259.504 325.715 259.504 325.321 L 259.504 318.72 C 259.504 317.413 259.224 316.365 258.663 315.576 C 258.12 314.787 257.403 314.331 256.513 314.206 C 257.024 313.936 257.378 313.5 257.576 312.898 C 257.79 312.276 257.897 311.529 257.897 310.657 L 257.897 309.225 C 257.897 307.689 257.543 306.443 256.835 305.489 C 256.143 304.513 254.874 304.025 253.028 304.025 L 244.798 304.025 C 244.485 304.025 244.255 304.119 244.106 304.306 C 243.974 304.472 243.909 304.752 243.909 305.146 L 243.909 325.321 C 243.909 325.715 243.974 326.006 244.106 326.193 C 244.255 326.359 244.485 326.442 244.798 326.442 L 248.604 326.442 Z M 248.604 326.753 L 244.798 326.753 C 244.403 326.753 244.115 326.639 243.933 326.411 C 243.752 326.182 243.661 325.819 243.661 325.321 L 243.661 305.146 C 243.661 304.648 243.752 304.285 243.933 304.056 C 244.115 303.828 244.403 303.714 244.798 303.714 L 253.028 303.714 C 254.989 303.714 256.332 304.233 257.057 305.271 C 257.782 306.288 258.144 307.606 258.144 309.225 L 258.144 310.657 C 258.144 311.425 258.07 312.099 257.922 312.681 C 257.774 313.241 257.527 313.698 257.181 314.05 C 257.955 314.32 258.573 314.86 259.034 315.669 C 259.512 316.479 259.751 317.496 259.751 318.72 L 259.751 325.321 C 259.751 325.819 259.66 326.182 259.479 326.411 C 259.298 326.639 259.009 326.753 258.614 326.753 L 254.783 326.753 C 254.388 326.753 254.099 326.639 253.918 326.411 C 253.737 326.182 253.646 325.819 253.646 325.321 L 253.646 320.557 C 253.646 320.225 253.597 319.976 253.498 319.81 C 253.399 319.623 253.218 319.53 252.954 319.53 L 249.741 319.53 L 249.741 325.321 C 249.741 325.819 249.651 326.182 249.468 326.411 C 249.288 326.639 249 326.753 248.604 326.753 Z M 263.165 326.753 C 262.769 326.753 262.481 326.639 262.3 326.411 C 262.118 326.182 262.028 325.819 262.028 325.321 L 262.028 305.146 C 262.028 304.648 262.118 304.285 262.3 304.056 C 262.481 303.828 262.769 303.714 263.165 303.714 L 274.633 303.714 C 275.028 303.714 275.316 303.828 275.498 304.056 C 275.679 304.285 275.769 304.648 275.769 305.146 L 275.769 308.789 C 275.769 309.287 275.679 309.65 275.498 309.878 C 275.316 310.107 275.028 310.221 274.633 310.221 L 268.058 310.221 L 268.058 311.996 L 272.631 311.996 C 273.026 311.996 273.314 312.11 273.496 312.338 C 273.677 312.566 273.767 312.93 273.767 313.428 L 273.767 316.759 C 273.767 317.257 273.677 317.62 273.496 317.849 C 273.314 318.077 273.026 318.191 272.631 318.191 L 268.058 318.191 L 268.058 320.246 L 274.633 320.246 C 275.028 320.246 275.316 320.36 275.498 320.589 C 275.679 320.817 275.769 321.18 275.769 321.678 L 275.769 325.321 C 275.769 325.819 275.679 326.182 275.498 326.411 C 275.316 326.639 275.028 326.753 274.633 326.753 L 263.165 326.753 Z M 274.633 326.442 C 274.946 326.442 275.168 326.359 275.3 326.193 C 275.448 326.006 275.522 325.715 275.522 325.321 L 275.522 321.678 C 275.522 321.284 275.448 321.004 275.3 320.838 C 275.168 320.651 274.946 320.557 274.633 320.557 L 267.811 320.557 L 267.811 317.88 L 272.631 317.88 C 272.944 317.88 273.166 317.797 273.298 317.631 C 273.446 317.444 273.52 317.153 273.52 316.759 L 273.52 313.428 C 273.52 313.033 273.446 312.753 273.298 312.587 C 273.166 312.4 272.944 312.307 272.631 312.307 L 267.811 312.307 L 267.811 309.91 L 274.633 309.91 C 274.946 309.91 275.168 309.827 275.3 309.661 C 275.448 309.474 275.522 309.183 275.522 308.789 L 275.522 305.146 C 275.522 304.752 275.448 304.472 275.3 304.306 C 275.168 304.119 274.946 304.025 274.633 304.025 L 263.165 304.025 C 262.852 304.025 262.621 304.119 262.473 304.306 C 262.341 304.472 262.275 304.752 262.275 305.146 L 262.275 325.321 C 262.275 325.715 262.341 326.006 262.473 326.193 C 262.621 326.359 262.852 326.442 263.165 326.442 L 274.633 326.442 Z M 273.298 323.328 L 273.298 323.64 L 264.969 323.64 L 264.969 306.827 L 273.298 306.827 L 273.298 307.139 L 265.216 307.139 L 265.216 314.953 L 271.296 314.953 L 271.296 315.265 L 265.216 315.265 L 265.216 323.328 L 273.298 323.328 Z M 290.458 325.539 C 290.31 325.995 290.121 326.307 289.89 326.473 C 289.659 326.66 289.354 326.753 288.975 326.753 L 282.55 326.753 C 282.171 326.753 281.866 326.66 281.635 326.473 C 281.404 326.307 281.215 325.995 281.067 325.539 L 278.645 317.911 C 278.496 317.434 278.364 317.029 278.249 316.697 C 278.15 316.344 278.068 316.012 278.002 315.7 C 277.936 315.368 277.887 315.026 277.854 314.673 C 277.837 314.299 277.829 313.864 277.829 313.365 L 277.829 305.146 C 277.829 304.648 277.92 304.285 278.101 304.056 C 278.282 303.828 278.57 303.714 278.966 303.714 L 282.896 303.714 C 283.291 303.714 283.588 303.839 283.785 304.088 C 284 304.316 284.107 304.669 284.107 305.146 L 284.107 313.739 C 284.107 313.947 284.123 314.144 284.156 314.331 C 284.189 314.517 284.23 314.715 284.28 314.922 L 285.466 319.281 C 285.482 319.385 285.507 319.468 285.54 319.53 C 285.573 319.571 285.622 319.592 285.688 319.592 L 285.96 319.592 C 286.026 319.592 286.076 319.571 286.109 319.53 C 286.142 319.468 286.174 319.385 286.207 319.281 L 287.369 314.891 C 287.418 314.683 287.46 314.486 287.493 314.299 C 287.526 314.113 287.542 313.915 287.542 313.708 L 287.542 305.146 C 287.542 304.648 287.633 304.285 287.814 304.056 C 287.995 303.828 288.283 303.714 288.679 303.714 L 292.559 303.714 C 292.971 303.714 293.259 303.828 293.424 304.056 C 293.605 304.285 293.696 304.648 293.696 305.146 L 293.696 313.365 C 293.696 313.864 293.68 314.299 293.647 314.673 C 293.63 315.026 293.589 315.368 293.523 315.7 C 293.457 316.012 293.367 316.344 293.251 316.697 C 293.152 317.029 293.029 317.434 292.88 317.911 L 290.458 325.539 Z M 288.975 326.442 C 289.289 326.442 289.544 326.369 289.742 326.224 C 289.956 326.078 290.121 325.809 290.236 325.414 L 292.658 317.786 C 292.806 317.33 292.93 316.935 293.029 316.603 C 293.128 316.251 293.21 315.918 293.276 315.607 C 293.342 315.296 293.383 314.974 293.399 314.642 C 293.432 314.289 293.449 313.864 293.449 313.365 L 293.449 305.146 C 293.449 304.752 293.375 304.472 293.226 304.306 C 293.095 304.119 292.872 304.025 292.559 304.025 L 288.679 304.025 C 288.366 304.025 288.135 304.119 287.987 304.306 C 287.855 304.472 287.789 304.752 287.789 305.146 L 287.789 313.708 C 287.789 313.915 287.773 314.123 287.74 314.331 C 287.707 314.538 287.657 314.756 287.591 314.984 L 286.43 319.374 C 286.38 319.582 286.323 319.727 286.257 319.81 C 286.191 319.872 286.092 319.904 285.96 319.904 L 285.688 319.904 C 285.557 319.904 285.458 319.872 285.392 319.81 C 285.326 319.727 285.268 319.582 285.219 319.374 L 284.057 315.016 C 283.991 314.787 283.942 314.569 283.909 314.362 C 283.876 314.154 283.859 313.947 283.859 313.739 L 283.859 305.146 C 283.859 304.752 283.777 304.472 283.612 304.306 C 283.448 304.119 283.209 304.025 282.896 304.025 L 278.966 304.025 C 278.653 304.025 278.422 304.119 278.274 304.306 C 278.142 304.472 278.076 304.752 278.076 305.146 L 278.076 313.365 C 278.076 313.864 278.084 314.289 278.101 314.642 C 278.134 314.974 278.183 315.296 278.249 315.607 C 278.315 315.918 278.397 316.251 278.496 316.603 C 278.595 316.935 278.719 317.33 278.867 317.786 L 281.289 325.414 C 281.404 325.809 281.561 326.078 281.759 326.224 C 281.973 326.369 282.237 326.442 282.55 326.442 L 288.975 326.442 Z M 280.869 306.827 L 281.116 306.827 L 281.116 313.552 C 281.116 314.092 281.149 314.611 281.215 315.109 C 281.281 315.586 281.38 316.033 281.512 316.448 L 283.143 321.429 C 283.308 321.969 283.489 322.425 283.686 322.799 C 283.901 323.152 284.238 323.328 284.7 323.328 L 286.875 323.328 C 287.336 323.328 287.666 323.152 287.863 322.799 C 288.078 322.425 288.267 321.969 288.432 321.429 L 290.063 316.448 C 290.195 316.033 290.294 315.586 290.36 315.109 C 290.425 314.611 290.458 314.092 290.458 313.552 L 290.458 306.827 L 290.706 306.827 L 290.706 313.552 C 290.706 314.133 290.673 314.673 290.607 315.171 C 290.557 315.649 290.458 316.116 290.31 316.572 L 288.679 321.554 C 288.481 322.156 288.259 322.654 288.012 323.048 C 287.764 323.442 287.385 323.64 286.875 323.64 L 284.7 323.64 C 284.189 323.64 283.81 323.442 283.563 323.048 C 283.316 322.654 283.093 322.156 282.896 321.554 L 281.264 316.572 C 281.116 316.116 281.009 315.649 280.943 315.171 C 280.894 314.673 280.869 314.133 280.869 313.552 L 280.869 306.827 Z M 296.995 326.753 C 296.599 326.753 296.311 326.639 296.129 326.411 C 295.948 326.182 295.858 325.819 295.858 325.321 L 295.858 321.616 C 295.858 321.118 295.948 320.755 296.129 320.526 C 296.311 320.298 296.599 320.184 296.995 320.184 L 299.194 320.184 L 299.194 310.345 L 296.995 310.345 C 296.599 310.345 296.311 310.231 296.129 310.003 C 295.948 309.775 295.858 309.411 295.858 308.913 L 295.858 305.146 C 295.858 304.648 295.948 304.285 296.129 304.056 C 296.311 303.828 296.599 303.714 296.995 303.714 L 307.523 303.714 C 307.919 303.714 308.207 303.828 308.388 304.056 C 308.569 304.285 308.66 304.648 308.66 305.146 L 308.66 308.913 C 308.66 309.411 308.569 309.775 308.388 310.003 C 308.207 310.231 307.919 310.345 307.523 310.345 L 305.373 310.345 L 305.373 320.184 L 307.523 320.184 C 307.919 320.184 308.207 320.298 308.388 320.526 C 308.569 320.755 308.66 321.118 308.66 321.616 L 308.66 325.321 C 308.66 325.819 308.569 326.182 308.388 326.411 C 308.207 326.639 307.919 326.753 307.523 326.753 L 296.995 326.753 Z M 296.995 326.442 L 307.523 326.442 C 307.836 326.442 308.059 326.359 308.19 326.193 C 308.339 326.006 308.413 325.715 308.413 325.321 L 308.413 321.616 C 308.413 321.222 308.339 320.941 308.19 320.775 C 308.059 320.589 307.836 320.495 307.523 320.495 L 305.126 320.495 L 305.126 310.034 L 307.523 310.034 C 307.836 310.034 308.059 309.951 308.19 309.785 C 308.339 309.598 308.413 309.308 308.413 308.913 L 308.413 305.146 C 308.413 304.752 308.339 304.472 308.19 304.306 C 308.059 304.119 307.836 304.025 307.523 304.025 L 296.995 304.025 C 296.681 304.025 296.451 304.119 296.302 304.306 C 296.171 304.472 296.105 304.752 296.105 305.146 L 296.105 308.913 C 296.105 309.308 296.171 309.598 296.302 309.785 C 296.451 309.951 296.681 310.034 296.995 310.034 L 299.441 310.034 L 299.441 320.495 L 296.995 320.495 C 296.681 320.495 296.451 320.589 296.302 320.775 C 296.171 320.941 296.105 321.222 296.105 321.616 L 296.105 325.321 C 296.105 325.715 296.171 326.006 296.302 326.193 C 296.451 326.359 296.681 326.442 296.995 326.442 Z M 306.189 323.64 L 298.329 323.64 L 298.329 323.328 L 302.16 323.328 L 302.16 307.139 L 298.329 307.139 L 298.329 306.827 L 306.189 306.827 L 306.189 307.139 L 302.407 307.139 L 302.407 323.328 L 306.189 323.328 L 306.189 323.64 Z M 312.354 326.753 C 311.958 326.753 311.67 326.639 311.489 326.411 C 311.308 326.182 311.217 325.819 311.217 325.321 L 311.217 305.146 C 311.217 304.648 311.308 304.285 311.489 304.056 C 311.67 303.828 311.958 303.714 312.354 303.714 L 316.185 303.714 C 316.58 303.714 316.869 303.828 317.05 304.056 C 317.231 304.285 317.322 304.648 317.322 305.146 L 317.322 320.246 L 320.213 320.246 L 320.213 315.514 C 320.213 315.016 320.304 314.652 320.485 314.424 C 320.666 314.196 320.955 314.082 321.35 314.082 L 324.934 314.082 C 325.329 314.082 325.618 314.196 325.799 314.424 C 325.98 314.652 326.071 315.016 326.071 315.514 L 326.071 325.321 C 326.071 325.819 325.98 326.182 325.799 326.411 C 325.618 326.639 325.329 326.753 324.934 326.753 L 312.354 326.753 Z M 324.934 326.442 C 325.247 326.442 325.469 326.359 325.601 326.193 C 325.749 326.006 325.824 325.715 325.824 325.321 L 325.824 315.514 C 325.824 315.119 325.749 314.839 325.601 314.673 C 325.469 314.486 325.247 314.393 324.934 314.393 L 321.35 314.393 C 321.037 314.393 320.806 314.486 320.658 314.673 C 320.526 314.839 320.46 315.119 320.46 315.514 L 320.46 320.557 L 317.074 320.557 L 317.074 305.146 C 317.074 304.752 317 304.472 316.852 304.306 C 316.72 304.119 316.498 304.025 316.185 304.025 L 312.354 304.025 C 312.041 304.025 311.81 304.119 311.662 304.306 C 311.53 304.472 311.464 304.752 311.464 305.146 L 311.464 325.321 C 311.464 325.715 311.53 326.006 311.662 326.193 C 311.81 326.359 312.041 326.442 312.354 326.442 L 324.934 326.442 Z M 314.158 323.64 L 314.158 306.827 L 314.405 306.827 L 314.405 323.328 L 323.006 323.328 L 323.006 317.195 L 323.253 317.195 L 323.253 323.64 L 314.158 323.64 Z M 329.539 326.753 C 329.144 326.753 328.855 326.639 328.674 326.411 C 328.493 326.182 328.402 325.819 328.402 325.321 L 328.402 305.146 C 328.402 304.648 328.493 304.285 328.674 304.056 C 328.855 303.828 329.144 303.714 329.539 303.714 L 333.37 303.714 C 333.765 303.714 334.054 303.828 334.235 304.056 C 334.416 304.285 334.507 304.648 334.507 305.146 L 334.507 320.246 L 337.399 320.246 L 337.399 315.514 C 337.399 315.016 337.489 314.652 337.67 314.424 C 337.852 314.196 338.14 314.082 338.535 314.082 L 342.119 314.082 C 342.515 314.082 342.803 314.196 342.984 314.424 C 343.165 314.652 343.256 315.016 343.256 315.514 L 343.256 325.321 C 343.256 325.819 343.165 326.182 342.984 326.411 C 342.803 326.639 342.515 326.753 342.119 326.753 L 329.539 326.753 Z M 342.119 326.442 C 342.432 326.442 342.655 326.359 342.786 326.193 C 342.935 326.006 343.009 325.715 343.009 325.321 L 343.009 315.514 C 343.009 315.119 342.935 314.839 342.786 314.673 C 342.655 314.486 342.432 314.393 342.119 314.393 L 338.535 314.393 C 338.222 314.393 337.992 314.486 337.843 314.673 C 337.712 314.839 337.646 315.119 337.646 315.514 L 337.646 320.557 L 334.26 320.557 L 334.26 305.146 C 334.26 304.752 334.186 304.472 334.037 304.306 C 333.905 304.119 333.683 304.025 333.37 304.025 L 329.539 304.025 C 329.226 304.025 328.995 304.119 328.847 304.306 C 328.715 304.472 328.649 304.752 328.649 305.146 L 328.649 325.321 C 328.649 325.715 328.715 326.006 328.847 326.193 C 328.995 326.359 329.226 326.442 329.539 326.442 L 342.119 326.442 Z M 331.343 323.64 L 331.343 306.827 L 331.59 306.827 L 331.59 323.328 L 340.191 323.328 L 340.191 317.195 L 340.438 317.195 L 340.438 323.64 L 331.343 323.64 Z M 346.723 326.753 C 346.328 326.753 346.04 326.639 345.858 326.411 C 345.677 326.182 345.586 325.819 345.586 325.321 L 345.586 305.146 C 345.586 304.648 345.677 304.285 345.858 304.056 C 346.04 303.828 346.328 303.714 346.723 303.714 L 358.191 303.714 C 358.587 303.714 358.875 303.828 359.056 304.056 C 359.237 304.285 359.328 304.648 359.328 305.146 L 359.328 308.789 C 359.328 309.287 359.237 309.65 359.056 309.878 C 358.875 310.107 358.587 310.221 358.191 310.221 L 351.617 310.221 L 351.617 311.996 L 356.189 311.996 C 356.585 311.996 356.873 312.11 357.054 312.338 C 357.235 312.566 357.326 312.93 357.326 313.428 L 357.326 316.759 C 357.326 317.257 357.235 317.62 357.054 317.849 C 356.873 318.077 356.585 318.191 356.189 318.191 L 351.617 318.191 L 351.617 320.246 L 358.191 320.246 C 358.587 320.246 358.875 320.36 359.056 320.589 C 359.237 320.817 359.328 321.18 359.328 321.678 L 359.328 325.321 C 359.328 325.819 359.237 326.182 359.056 326.411 C 358.875 326.639 358.587 326.753 358.191 326.753 L 346.723 326.753 Z M 358.191 326.442 C 358.504 326.442 358.727 326.359 358.858 326.193 C 359.007 326.006 359.081 325.715 359.081 325.321 L 359.081 321.678 C 359.081 321.284 359.007 321.004 358.858 320.838 C 358.727 320.651 358.504 320.557 358.191 320.557 L 351.37 320.557 L 351.37 317.88 L 356.189 317.88 C 356.502 317.88 356.725 317.797 356.857 317.631 C 357.005 317.444 357.079 317.153 357.079 316.759 L 357.079 313.428 C 357.079 313.033 357.005 312.753 356.857 312.587 C 356.725 312.4 356.502 312.307 356.189 312.307 L 351.37 312.307 L 351.37 309.91 L 358.191 309.91 C 358.504 309.91 358.727 309.827 358.858 309.661 C 359.007 309.474 359.081 309.183 359.081 308.789 L 359.081 305.146 C 359.081 304.752 359.007 304.472 358.858 304.306 C 358.727 304.119 358.504 304.025 358.191 304.025 L 346.723 304.025 C 346.41 304.025 346.18 304.119 346.031 304.306 C 345.899 304.472 345.834 304.752 345.834 305.146 L 345.834 325.321 C 345.834 325.715 345.899 326.006 346.031 326.193 C 346.18 326.359 346.41 326.442 346.723 326.442 L 358.191 326.442 Z M 356.857 323.328 L 356.857 323.64 L 348.528 323.64 L 348.528 306.827 L 356.857 306.827 L 356.857 307.139 L 348.775 307.139 L 348.775 314.953 L 354.855 314.953 L 354.855 315.265 L 348.775 315.265 L 348.775 323.328 L 356.857 323.328 Z" fill="white" style="stroke-width: 23.27;"/>
</svg>