<?xml version="1.0" encoding="utf-8"?>
<svg viewBox="52.737 290.387 226.302 158.211" xmlns="http://www.w3.org/2000/svg" xmlns:bx="https://boxy-svg.com">
  <path style="stroke: rgb(0, 0, 0); fill: rgba(0, 0, 0, 0); paint-order: fill; stroke-width: 11px;" d="M 78.869 307.494 C 123.112 307.498 150.76 358.799 128.635 399.834 C 116.659 422.047 95.432 435.238 71.806 431.038" transform="matrix(-1, 0, 0, -1, 208.229248, 739.308136)"/>
  <path d="M 133.333 407 m -60.468 0 a 60.468 48.887 0 1 0 120.936 0 a 60.468 48.887 0 1 0 -120.936 0 Z M 133.333 407 m -36.28 0 a 36.28 29.331 0 0 1 72.56 0 a 36.28 29.331 0 0 1 -72.56 0 Z" style="stroke-width: 1.396;" transform="matrix(-0.588172, 0.808736, -0.808736, -0.588172, 550.627461, 512.960196)" bx:shape="ring 133.333 407 36.28 29.331 60.468 48.887 1@64a741bb"/>
  <circle style="paint-order: stroke; stroke-width: 0.532;" cx="142.857" cy="386.182" r="20.487" transform="matrix(0.885955, 0, 0, 0.934831, 17.29347, 26.502335)"/>
  <path d="M 341.333 404.333 m -33.538 0 a 33.538 31.89 0 1 0 67.076 0 a 33.538 31.89 0 1 0 -67.076 0 Z M 341.333 404.333 m -28.843 0 a 28.843 27.425 0 0 1 57.686 0 a 28.843 27.425 0 0 1 -57.686 0 Z" style="stroke-width: 0.679;" transform="matrix(-0.478853, 0.877895, -0.877895, -0.478853, 661.801364, 281.556555)" bx:shape="ring 341.333 404.333 28.843 27.425 33.538 31.89 1@6f5a69dc"/>
  <path d="M 138.247 374.917 L 149.047 374.917 L 149.047 378.517 L 142.207 378.517 L 142.207 385.177 L 147.643 385.177 L 147.643 388.777 L 142.207 388.777 L 142.207 396.517 L 149.047 396.517 L 149.047 400.117 L 138.247 400.117 L 138.247 374.917 Z M 151.325 374.917 L 156.293 374.917 L 160.145 390.001 L 160.217 390.001 L 160.217 374.917 L 163.745 374.917 L 163.745 400.117 L 159.677 400.117 L 154.925 381.721 L 154.853 381.721 L 154.853 400.117 L 151.325 400.117 L 151.325 374.917 Z M 169.785 378.517 L 165.645 378.517 L 165.645 374.917 L 177.885 374.917 L 177.885 378.517 L 173.745 378.517 L 173.745 400.117 L 169.785 400.117 L 169.785 378.517 Z M 179.802 374.917 L 185.67 374.917 C 187.71 374.917 189.198 375.397 190.134 376.357 C 191.07 377.293 191.538 378.745 191.538 380.713 L 191.538 382.261 C 191.538 384.877 190.674 386.533 188.946 387.229 L 188.946 387.301 C 189.906 387.589 190.578 388.177 190.962 389.065 C 191.37 389.953 191.574 391.141 191.574 392.629 L 191.574 397.057 C 191.574 397.777 191.598 398.365 191.646 398.821 C 191.694 399.253 191.814 399.685 192.006 400.117 L 187.974 400.117 C 187.83 399.709 187.734 399.325 187.686 398.965 C 187.638 398.605 187.614 397.957 187.614 397.021 L 187.614 392.413 C 187.614 391.261 187.422 390.457 187.038 390.001 C 186.678 389.545 186.042 389.317 185.13 389.317 L 183.762 389.317 L 183.762 400.117 L 179.802 400.117 L 179.802 374.917 Z M 185.202 385.717 C 185.994 385.717 186.582 385.513 186.966 385.105 C 187.374 384.697 187.578 384.013 187.578 383.053 L 187.578 381.109 C 187.578 380.197 187.41 379.537 187.074 379.129 C 186.762 378.721 186.258 378.517 185.562 378.517 L 183.762 378.517 L 183.762 385.717 L 185.202 385.717 Z M 194.322 374.917 L 205.122 374.917 L 205.122 378.517 L 198.282 378.517 L 198.282 385.177 L 203.718 385.177 L 203.718 388.777 L 198.282 388.777 L 198.282 396.517 L 205.122 396.517 L 205.122 400.117 L 194.322 400.117 L 194.322 374.917 Z M 206.356 374.917 L 210.352 374.917 L 212.944 394.465 L 213.016 394.465 L 215.608 374.917 L 219.244 374.917 L 215.428 400.117 L 210.172 400.117 L 206.356 374.917 Z M 221.146 374.917 L 225.106 374.917 L 225.106 400.117 L 221.146 400.117 L 221.146 374.917 Z M 228.072 374.917 L 232.032 374.917 L 232.032 396.517 L 238.548 396.517 L 238.548 400.117 L 228.072 400.117 L 228.072 374.917 Z M 240.447 374.917 L 244.407 374.917 L 244.407 396.517 L 250.923 396.517 L 250.923 400.117 L 240.447 400.117 L 240.447 374.917 Z M 252.822 374.917 L 263.622 374.917 L 263.622 378.517 L 256.782 378.517 L 256.782 385.177 L 262.218 385.177 L 262.218 388.777 L 256.782 388.777 L 256.782 396.517 L 263.622 396.517 L 263.622 400.117 L 252.822 400.117 L 252.822 374.917 Z" fill="#F5FA12"/>
</svg>