<?xml version="1.0" encoding="utf-8"?>
<svg width="210mm" height="297mm" viewBox="0 0 210 297" version="1.1" id="svg390" xmlns="http://www.w3.org/2000/svg">
  <defs id="defs384">
    <clipPath clipPathUnits="userSpaceOnUse" id="clipPath9437-6">
      <ellipse style="fill:none;stroke:#030303;stroke-width:1.90106;stroke-miterlimit:4;stroke-dasharray:none;stroke-opacity:1" id="ellipse9439-4" cx="-165.75366" cy="-161.08456" rx="54.128216" ry="52.571846"/>
    </clipPath>
  </defs>
  <g id="layer1">
    <path style="fill:#000000;stroke-width:0.271012" d="m -218.31759,-108.42547 c -1.27987,-1.29902 -1.29066,-1.32501 -1.20955,-2.91295 l 0.0819,-1.60224 2.96176,2.91296 2.96176,2.91295 h -1.75222 c -1.7361,0 -1.76409,-0.0121 -3.0436,-1.31072 z m 6.46175,-0.54268 c -1.19263,-1.01934 -3.41864,-3.15494 -4.9467,-4.74577 l -2.77828,-2.89243 0.009,-1.82528 0.009,-1.82528 1.13293,1.35486 c 2.25673,2.6988 6.90034,7.27495 9.41917,9.28233 1.41625,1.12867 2.69087,2.15402 2.83249,2.27855 0.14163,0.12453 -0.59021,0.22641 -1.62631,0.22639 l -1.88381,-3e-5 z m 8.29607,0.50019 c -4.9646,-3.41906 -10.59492,-8.74706 -14.05592,-13.3012 l -1.96513,-2.58581 v -2.12531 -2.12531 l 1.04292,1.6001 c 3.07511,4.71799 8.33131,10.50819 12.64521,13.92987 1.19263,0.94597 3.62329,2.67415 5.40148,3.84041 l 3.23306,2.12046 h -2.16835 c -2.15866,0 -2.17714,-0.006 -4.13327,-1.35321 z m 8.60868,-0.22827 c -5.94227,-3.25349 -10.14434,-6.44298 -14.74001,-11.18808 -3.31537,-3.42317 -5.65648,-6.44865 -8.19564,-10.59143 l -1.69408,-2.76398 v -2.71453 -2.71452 l 1.46445,2.97356 c 5.98996,12.16261 16.48921,21.9956 29.07728,27.23209 l 3.20425,1.33294 -3.1171,0.006 -3.11709,0.006 -2.88206,-1.57798 z m 16.43466,1.0318 c -18.54494,-3.8888 -33.89077,-17.45534 -40.09727,-35.44813 l -0.96712,-2.80369 v -14.71546 -14.71545 l 0.83644,-2.53281 c 0.46004,-1.39305 1.65974,-4.23994 2.666,-6.32642 9.04215,-18.74907 27.77649,-30.49422 48.6212,-30.48218 4.12177,0.002 7.46872,0.3061 10.74946,0.97546 22.58906,4.60875 39.78383,22.85797 42.95525,45.58943 0.54993,3.94164 0.54993,11.04213 0,14.98377 -1.98878,14.25477 -9.68857,27.24127 -21.25287,35.84519 -4.78864,3.56277 -9.78813,6.16209 -15.38756,8.00024 -6.08074,1.99615 -7.56138,2.18227 -17.1885,2.16066 -7.23457,-0.0162 -8.85765,-0.095 -10.93503,-0.53061 z m 15.1885,-1.35837 c 25.04453,-2.03308 44.80855,-21.3141 47.54398,-46.3821 1.47458,-13.51336 -2.89336,-27.75481 -11.77828,-38.40247 -15.18285,-18.19509 -40.68295,-23.76174 -62.1263,-13.56212 -21.47076,10.21266 -33.24604,33.76383 -28.51097,57.02339 4.84177,23.78372 25.40551,40.82958 50.14697,41.56825 0.68648,0.0205 2.81255,-0.0897 4.7246,-0.24495 z m -9.36088,-2.46073 c -19.85972,-2.28486 -36.21418,-15.86384 -42.06015,-34.92222 -2.563,-8.35559 -2.73332,-17.99473 -0.47304,-26.77146 4.41901,-17.15914 18.11599,-30.83884 35.31725,-35.27269 25.44261,-6.55818 51.35104,7.57764 59.53078,32.48039 1.80111,5.48339 2.28182,8.71458 2.28182,15.33771 0,4.74158 -0.10031,6.22094 -0.60157,8.87209 -3.05025,16.13241 -13.75086,29.70924 -28.58644,36.27022 -7.87621,3.48322 -17.18954,4.95157 -25.40865,4.00596 z m 13.82365,-2.80078 c 9.90012,-1.95868 18.23262,-6.39716 25.12944,-13.38571 7.86114,-7.9657 12.5429,-18.33696 13.33798,-29.54694 1.68123,-23.7042 -14.1195,-44.5836 -37.55417,-49.62481 -3.44587,-0.74126 -11.5871,-1.02692 -15.46844,-0.54274 -15.32319,1.91149 -29.11994,11.66398 -36.00798,25.45291 -3.84619,7.69955 -5.18975,13.97787 -4.92354,23.00723 0.21595,7.3244 1.35731,12.09558 4.4208,18.48002 2.65501,5.53315 5.4757,9.42378 9.94905,13.72294 7.23329,6.95162 16.51611,11.46491 26.34453,12.80864 2.91113,0.398 12.04368,0.16831 14.77233,-0.37154 z m -11.24866,-1.66212 c -3.35567,-0.31554 -6.19135,-0.79093 -8.76107,-1.46878 -22.98161,-6.06212 -37.25988,-29.2632 -32.31105,-52.50292 6.11808,-28.73049 37.87811,-43.90354 64.03523,-30.59222 17.93548,9.12734 27.60921,28.98607 23.65758,48.56548 -3.76228,18.64124 -18.69698,32.84689 -37.40492,35.57898 -2.19709,0.32087 -7.63305,0.56828 -9.21577,0.41946 z m 8.53,-2.69132 c 15.91161,-2.26067 29.04569,-12.99648 34.27546,-28.01678 1.79653,-5.15979 2.16841,-7.55691 2.16841,-13.97727 0,-4.86027 -0.0874,-6.09157 -0.59896,-8.44018 -2.13417,-9.79763 -7.22957,-18.20466 -14.83066,-24.46945 -5.19666,-4.28306 -12.00797,-7.46277 -18.98305,-8.86181 -3.43695,-0.68937 -12.2644,-0.68937 -15.70135,0 -8.5284,1.7106 -15.95121,5.67686 -22.10863,11.8134 -6.21396,6.19289 -10.11168,13.56365 -11.82985,22.37082 -0.684,3.50612 -0.67779,11.48722 0.0118,15.17445 4.18309,22.36645 25.23437,37.58401 47.59681,34.40682 z m -10.56289,-2.192 c -4.10455,-0.50309 -9.44391,-2.10413 -13.0105,-3.9013 -11.21628,-5.65176 -18.94566,-15.73526 -21.59949,-28.17803 -0.69915,-3.27801 -0.69915,-12.16743 0,-15.44543 1.71026,-8.01876 5.41998,-14.93035 11.04139,-20.57125 5.35318,-5.37175 11.51788,-8.80088 19.35676,-10.76728 3.37525,-0.84668 10.89274,-1.18158 14.54361,-0.64791 11.57851,1.6925 21.71106,8.16292 28.07588,17.92863 10.26563,15.7508 8.02852,36.795 -5.3263,50.10366 -5.32071,5.30233 -11.96772,8.95734 -19.52874,10.73835 -2.34258,0.55179 -3.70914,0.68688 -7.72499,0.76361 -2.68341,0.0513 -5.30584,0.0409 -5.82762,-0.0231 z m 12.15683,-2.80606 c 14.98768,-3.0534 26.30055,-14.30192 29.63406,-29.4655 0.84687,-3.85227 0.84557,-11.23948 -0.003,-15.18103 -3.23949,-15.05336 -15.00604,-26.57081 -30.13294,-29.49507 -3.81986,-0.73844 -10.57422,-0.68066 -14.33144,0.1226 -3.72687,0.79676 -5.54202,1.42334 -9.11456,3.14629 -9,4.34047 -15.72761,11.87387 -19.07612,21.36094 -1.36334,3.86264 -1.97437,7.39731 -2.02305,11.70287 -0.049,4.3352 0.14497,6.41154 0.88606,9.48403 3.71737,15.41181 16.81045,27.0693 32.40015,28.84763 3.16661,0.36122 8.60894,0.11931 11.76055,-0.52276 z m -11.20815,-1.80111 c -2.78489,-0.41433 -5.72448,-1.09721 -7.72498,-1.79455 -24.3616,-8.49208 -31.79774,-39.2931 -13.97555,-57.88771 10.52981,-10.98619 26.70679,-13.96463 40.71199,-7.49573 6.48425,2.99503 12.6528,8.93885 16.20535,15.615 4.3012,8.08304 5.13949,18.71505 2.17231,27.55151 -1.80018,5.36108 -4.38741,9.50361 -8.50882,13.62388 -5.26027,5.25882 -11.26109,8.51285 -18.24091,9.8914 -2.15919,0.42645 -8.97242,0.7442 -10.63939,0.4962 z m 9.65461,-2.67003 c 3.03284,-0.53174 6.41696,-1.70611 9.4925,-3.29409 8.15678,-4.21158 14.14098,-11.68916 16.69146,-20.85691 0.70577,-2.53688 0.74654,-2.99419 0.74654,-8.37385 0,-5.39097 -0.0396,-5.83288 -0.75286,-8.39758 -1.66056,-5.97116 -4.33481,-10.55579 -8.70669,-14.92638 -3.07477,-3.07386 -6.31601,-5.34592 -9.84851,-6.90363 -17.91446,-7.89966 -38.68745,1.29815 -44.88438,19.87379 -2.16,6.47475 -2.16083,14.21663 -0.002,20.70761 1.62049,4.87279 5.11035,10.33436 8.76093,13.71069 4.61249,4.26597 10.76068,7.39186 16.63423,8.45724 2.69708,0.48922 9.08693,0.49089 11.86899,0.003 z m -9.38355,-2.03248 c -7.77642,-0.90984 -15.18656,-4.94589 -20.08392,-10.93903 -3.13914,-3.84151 -4.94976,-7.43278 -6.26164,-12.41961 -0.65348,-2.48408 -0.73611,-3.28483 -0.73611,-7.13373 0,-3.86283 0.0814,-4.64578 0.74691,-7.18077 3.32788,-12.67693 13.19752,-21.49748 26.05473,-23.28522 7.36476,-1.02405 15.8797,1.17847 21.98364,5.68638 8.27241,6.1094 13.09081,16.24845 12.48431,26.26996 -0.7085,11.70676 -7.46256,21.63683 -18.00453,26.47093 -4.50151,2.0642 -11.20844,3.11316 -16.18339,2.53109 z m 10.29998,-2.9492 c 6.27589,-1.56743 12.32464,-5.57161 16.02363,-10.60739 10.09327,-13.74096 6.00813,-33.20345 -8.73198,-41.601 -8.39789,-4.78433 -19.25898,-4.88898 -27.67082,-0.26662 -14.62335,8.03564 -19.21572,26.78158 -9.96564,40.67951 4.41113,6.62756 11.54768,11.10104 19.77377,12.395 1.92404,0.30265 8.43802,-0.0668 10.57104,-0.5995 z m -12.06182,-2.08608 c -8.07694,-1.73147 -14.87263,-7.15497 -18.32488,-14.62472 -1.11833,-2.41976 -2.1702,-6.33008 -2.41661,-8.98375 -0.49004,-5.27719 1.52915,-12.31068 4.887,-17.02307 1.32666,-1.86182 4.57354,-5.06501 6.36767,-6.28198 13.06456,-8.86182 31.07403,-4.21788 38.02281,9.80462 3.71665,7.5001 3.77654,15.30296 0.17561,22.87776 -1.44874,3.04752 -2.98962,5.14855 -5.61252,7.65279 -3.43802,3.28249 -8.17472,5.74255 -12.73728,6.61526 -2.5161,0.48127 -8.03635,0.46161 -10.3618,-0.0369 z m 11.24866,-2.548 c 6.89638,-1.78889 12.51963,-6.50823 15.56259,-13.061 1.30355,-2.80708 1.91935,-5.49019 2.10476,-9.17066 0.3296,-6.54258 -2.24939,-12.91543 -7.14018,-17.64385 -2.26189,-2.18679 -3.79499,-3.23478 -6.68547,-4.57 -3.48311,-1.60898 -5.6541,-2.0425 -10.0759,-2.01201 -3.2848,0.0226 -4.11513,0.12311 -6.17906,0.74765 -6.60449,1.99846 -11.79247,6.2969 -14.7644,12.23286 -3.29137,6.57398 -3.20011,15.07486 0.23076,21.49462 3.54981,6.64233 9.45825,10.98434 16.87503,12.40116 2.61547,0.49964 7.27878,0.30574 10.07187,-0.41877 z m -10.16445,-2.03111 c -6.52405,-1.39729 -11.89759,-5.48598 -14.79866,-11.26019 -2.1076,-4.19491 -2.81005,-9.26548 -1.90332,-13.73906 1.75634,-8.66534 8.78855,-15.52265 17.32003,-16.88925 2.53398,-0.4059 6.95708,-0.21116 9.27535,0.40838 5.58006,1.49123 10.78939,5.80484 13.40415,11.09936 1.7137,3.46999 2.04726,5.07853 2.02679,9.77376 -0.0161,3.69726 -0.0849,4.26049 -0.76093,6.23236 -1.36139,3.97093 -3.60772,7.28515 -6.63702,9.79227 -2.02534,1.67621 -5.86442,3.67318 -8.30405,4.3195 -2.25221,0.59668 -7.40634,0.73748 -9.62234,0.26287 z m 8.80919,-2.48459 c 6.59966,-1.59079 12.04617,-6.95629 13.85747,-13.65137 0.62256,-2.30114 0.61772,-7.04247 -0.01,-9.48403 -1.69034,-6.57813 -7.02711,-11.91627 -13.71227,-13.7158 -2.43385,-0.65515 -7.12955,-0.64927 -9.48682,0.0119 -6.07098,1.70275 -10.91488,6.10565 -13.07337,11.88315 -0.71351,1.90981 -0.85014,2.6972 -0.95872,5.52508 -0.0944,2.45998 -0.0128,3.80947 0.3215,5.31151 0.86184,3.87264 3.11226,7.5795 6.15917,10.14528 4.75336,4.00275 10.84372,5.43476 16.90272,3.97429 z m -7.86051,-2.1287 c -6.67505,-1.46542 -11.67178,-6.43964 -12.99236,-12.93385 -0.78941,-3.88204 -0.32535,-7.29315 1.50042,-11.02911 1.25385,-2.56566 4.59061,-5.84566 7.29063,-7.16659 9.62131,-4.70707 20.9424,0.48441 23.58543,10.8155 1.26571,4.94743 0.02,10.66217 -3.1569,14.4818 -4.00263,4.8125 -10.39956,7.11163 -16.22722,5.83225 z m 6.42414,-2.33808 c 2.57923,-0.53771 4.79973,-1.79183 6.86205,-3.87563 3.03695,-3.06858 4.1664,-5.80577 4.18715,-10.14735 0.0305,-6.38352 -4.09385,-11.88325 -10.27189,-13.69737 -2.11443,-0.62089 -6.01872,-0.57064 -8.2089,0.10564 -4.76048,1.46993 -8.94542,6.08902 -9.70102,10.70741 -0.89543,5.47301 0.54777,10.00087 4.28882,13.45568 3.39796,3.13797 8.1817,4.42355 12.84379,3.45162 z m -5.06888,-2.17745 c -3.06393,-0.42947 -6.3184,-2.49673 -7.96223,-5.05767 -4.8279,-7.52141 -0.61142,-17.07283 8.1797,-18.52914 2.21159,-0.36636 4.49778,0.003 6.86379,1.11033 4.86074,2.27394 7.67026,7.88659 6.51276,13.01067 -1.47108,6.51223 -7.03342,10.38541 -13.59402,9.46581 z m 5.86551,-2.9985 c 2.10996,-0.96569 3.50795,-2.32326 4.59243,-4.45965 0.86873,-1.71141 0.92509,-1.98539 0.9076,-4.41272 -0.0152,-2.11195 -0.1321,-2.8231 -0.63543,-3.86601 -0.97438,-2.01895 -2.55843,-3.61458 -4.57224,-4.60569 -1.64135,-0.8078 -2.03756,-0.89062 -4.26051,-0.89062 -2.22373,0 -2.61884,0.0827 -4.26339,0.89204 -3.20489,1.5773 -4.97279,4.30541 -5.26771,8.12881 -0.15804,2.04884 -0.11881,2.27477 0.69803,4.0198 1.0857,2.31941 1.83079,3.29999 3.25963,4.28989 2.78484,1.92933 6.52689,2.28392 9.54159,0.90415 z m -6.94972,-2.21415 c -2.91533,-1.3745 -4.39166,-3.93204 -4.14634,-7.18294 0.139,-1.84185 0.7469,-3.18105 2.0231,-4.45688 1.34679,-1.3464 2.64758,-1.89826 4.78023,-2.02803 2.29186,-0.13945 3.80114,0.38674 5.31106,1.85164 2.45302,2.37987 2.98202,5.97329 1.32121,8.97472 -0.62305,1.12599 -2.61836,2.71971 -3.97643,3.17611 -1.54624,0.51964 -3.80232,0.37754 -5.31283,-0.33462 z m 4.27648,-1.81078 c 2.93186,-0.81395 4.48255,-4.00644 3.24522,-6.68108 -1.2079,-2.61101 -3.93632,-3.68918 -6.4487,-2.5483 -1.68011,0.76294 -3.10287,2.82801 -3.10287,4.50365 0,1.67565 1.42276,3.74071 3.10287,4.50366 1.26915,0.57632 1.79591,0.61284 3.20348,0.22207 z m -2.69373,-2.67575 c -1.0002,-0.6097 -1.29441,-1.33491 -1.05631,-2.60374 0.37339,-1.98974 2.7788,-2.68699 4.23782,-1.2284 1.09351,1.09319 1.09351,2.47114 0,3.56433 -0.93718,0.9369 -1.94474,1.02171 -3.18151,0.26781 z m 22.7191,50.28226 c 12.3087,-5.02717 22.91937,-14.71965 28.93324,-26.4295 3.40688,-6.63368 5.08411,-12.3562 6.08293,-20.75426 0.0532,-0.44711 0.11403,1.93068 0.13523,5.28396 0.0332,5.25728 -0.031,6.32077 -0.46644,7.72271 -0.8275,2.66422 -2.14667,5.7768 -3.78982,8.94209 -5.54721,10.68591 -14.05802,19.21003 -24.99723,25.03634 l -2.59754,1.38347 -3.09455,-0.002 -3.09456,-0.002 2.88874,-1.17983 z m 10.86207,-0.28262 c 9.9129,-6.22208 17.46573,-14.4994 22.6371,-24.80855 l 1.69491,-3.3788 v 2.70609 2.70609 l -1.69408,2.8468 c -4.92341,8.27353 -11.29041,15.06188 -19.13958,20.40619 -1.37678,0.93742 -1.56902,0.98961 -3.64484,0.98961 h -2.19141 z m 6.59165,1.2403 c 0.14163,-0.12491 1.05033,-0.82448 2.01934,-1.55459 4.43657,-3.34277 10.79937,-10.23154 14.09514,-15.2603 l 1.49035,-2.27402 0.0804,1.9707 c 0.0932,2.28477 0.0745,2.32145 -3.39334,6.65593 -2.18142,2.72662 -6.94363,7.57431 -9.42149,9.59063 -1.2905,1.05012 -1.43394,1.09878 -3.23908,1.09878 -1.04021,0 -1.77309,-0.10204 -1.63128,-0.22713 z m 10.90342,-3.22777 c 1.90785,-1.90019 4.22664,-4.40715 5.15288,-5.57101 l 1.68406,-2.11611 v 1.81723 c 0,1.69575 -0.0677,1.90062 -1.01314,3.06452 -0.55723,0.686 -2.09982,2.3752 -3.42799,3.75378 l -2.41484,2.50649 h -1.7249 -1.7249 z m 4.94741,1.68327 1.754,-1.77164 0.0832,1.40062 c 0.12226,2.05925 0.0485,2.14265 -1.89642,2.14265 h -1.69475 z m 1.40245,-59.30294 c -0.42055,-3.53013 -1.81499,-9.10125 -3.14865,-12.57961 -7.15529,-18.66189 -23.79885,-32.30008 -43.35972,-35.53014 -1.80659,-0.29832 -3.7726,-0.58671 -4.36892,-0.64088 -0.59631,-0.0542 1.73987,-0.11899 5.19152,-0.14404 l 6.27573,-0.0455 2.80452,0.97203 c 12.29812,4.26245 23.08478,12.78734 30.31366,23.95743 1.62639,2.51312 4.96301,9.4537 5.94996,12.37666 l 0.83946,2.48617 -0.073,6.04946 -0.073,6.04946 z m -108.2048,-17.18302 v -2.64843 l 1.61931,-2.65512 c 3.01204,-4.93873 5.44847,-8.03319 9.41141,-11.95322 5.89203,-5.82824 13.96345,-10.85615 21.72505,-13.53315 l 2.80452,-0.96728 6.27572,0.0352 c 5.01962,0.0281 5.86884,0.0816 4.24284,0.26712 -6.50601,0.74235 -13.35734,2.76528 -19.03467,5.62018 -11.13567,5.59968 -19.5979,14.00469 -25.33903,25.1677 l -1.70515,3.31548 z m 107.6125,-1.34084 c -1.25386,-2.78939 -4.25653,-7.74334 -6.52525,-10.76567 -5.47544,-7.29425 -13.25664,-13.74999 -21.62206,-17.93895 l -3.41839,-1.71174 h 2.70242 2.70241 l 3.02991,1.79388 c 4.57409,2.70812 8.49732,5.78025 12.57487,9.84691 4.01956,4.00882 7.03754,7.8537 9.82959,12.52281 l 1.80588,3.01995 v 2.66657 c 0,1.46661 -0.0305,2.66643 -0.0678,2.66627 -0.0373,-1.6e-4 -0.4925,-0.94518 -1.01162,-2.10003 z m -107.6125,-8.16135 c 0,-2.31543 0.25153,-2.76082 4.06527,-7.19857 4.71161,-5.48254 11.02049,-10.6479 17.04657,-13.95679 1.95125,-1.07142 2.06954,-1.09958 4.60788,-1.09674 l 2.60522,0.003 -3.49342,1.76272 c -9.27267,4.67885 -17.39283,11.69933 -22.93173,19.82617 -0.79296,1.16345 -1.5448,2.2312 -1.67076,2.37279 -0.12728,0.14306 -0.22903,-0.61775 -0.22903,-1.7125 z m 107.52545,-1.60732 c -4.01723,-6.518 -11.88412,-14.45167 -18.86217,-19.02228 l -2.2747,-1.48992 1.98268,-0.0806 c 1.88425,-0.0766 2.05101,-0.0334 3.35891,0.86956 5.51565,3.80794 12.71094,10.98583 16.04577,16.00697 0.88933,1.33904 0.93682,1.52676 0.86083,3.40305 l -0.0804,1.98583 z m -107.52014,-6.36803 -0.005,-1.84321 1.96102,-2.08589 c 2.83892,-3.01971 6.19475,-6.05385 9.23148,-8.34655 l 2.65437,-2.00401 h 2.18647 2.18648 l -2.40137,1.57944 c -4.86337,3.19876 -11.16198,8.86535 -14.81013,13.32404 l -0.99771,1.21938 z m 107.19578,-2.05127 c -1.85784,-2.4055 -7.94471,-8.51065 -10.51935,-10.55096 l -2.11673,-1.67743 h 1.88077 1.88077 l 2.27988,1.99262 c 2.16141,1.88908 7.42277,7.34339 7.89175,8.18117 0.12021,0.21473 0.18247,1.15967 0.13836,2.09988 l -0.0802,1.70948 z m -107.20157,-5.05688 c 4.8e-4,-1.61812 0.0152,-1.64927 1.4235,-3.00144 0.78267,-0.75149 2.14872,-1.99718 3.03568,-2.76821 1.60742,-1.3973 1.61874,-1.40186 3.48301,-1.40186 h 1.87035 l -2.26327,1.82291 c -1.2448,1.0026 -3.45273,2.98409 -4.90651,4.4033 l -2.64324,2.58039 z m 105.3296,-3.92642 -3.22722,-3.24509 h 1.67044 1.67045 l 1.62454,1.64948 c 1.61616,1.64096 1.62455,1.65775 1.62455,3.25167 0,0.8812 -0.0305,1.59923 -0.0678,1.59561 -0.0373,-0.004 -1.52002,-1.46688 -3.295,-3.25167 z m -105.32912,-2.10621 v -1.13888 h 1.08421 c 0.59631,0 1.08421,0.0362 1.08421,0.0805 0,0.0443 -0.4879,0.55677 -1.08421,1.13889 l -1.08421,1.05839 z" id="path9423-6" clip-path="url(#clipPath9437-6)" transform="matrix(0.89096328,-0.22677265,0.23000798,0.90367449,288.96749,258.99704)"/>
    <ellipse style="fill:#ffffff;stroke:none;stroke-width:2.1698;stroke-miterlimit:4;stroke-dasharray:none;stroke-opacity:1" id="path9448-6" cx="55.942875" cy="170.70587" rx="6.9486113" ry="7.3757858" transform="matrix(0.97683058,-0.21401406,0.28355504,0.95895596,0,0)"/>
    <ellipse style="fill:none;fill-opacity:1;stroke:#040300;stroke-width:2.19476;stroke-miterlimit:4;stroke-dasharray:none;stroke-opacity:1" id="path9454-9" cx="62.096901" cy="172.54605" rx="48.559044" ry="49.053135" transform="rotate(-14.280009)"/>
    <ellipse style="fill:none;fill-opacity:1;stroke:#040300;stroke-width:2.37659;stroke-miterlimit:4;stroke-dasharray:none;stroke-opacity:1" id="path9454-9-2" cx="61.887489" cy="172.27045" rx="52.602249" ry="53.096336" transform="rotate(-14.280009)"/>
    <ellipse style="fill:none;fill-opacity:1;stroke:#040300;stroke-width:2.56448;stroke-miterlimit:4;stroke-dasharray:none;stroke-opacity:1" id="path9454-9-3" cx="61.887474" cy="171.99484" rx="56.918018" ry="57.136497" transform="rotate(-14.280009)"/>
    <ellipse style="fill:none;fill-opacity:1;stroke:#040300;stroke-width:2.77659;stroke-miterlimit:4;stroke-dasharray:none;stroke-opacity:1" id="path9454-9-36" cx="62.163094" cy="171.99483" rx="61.497288" ry="61.991386" transform="rotate(-14.280009)"/>
    <ellipse style="fill:none;fill-opacity:1;stroke:#040300;stroke-width:2.99478;stroke-miterlimit:4;stroke-dasharray:none;stroke-opacity:1" id="path9454-9-9" cx="62.163094" cy="171.99483" rx="66.349136" ry="66.843224" transform="rotate(-14.280009)"/>
    <ellipse style="fill:none;fill-opacity:1;stroke:#040300;stroke-width:3.21905;stroke-miterlimit:4;stroke-dasharray:none;stroke-opacity:1" id="path9454-9-98" cx="62.438713" cy="171.44363" rx="71.473557" ry="71.692032" transform="rotate(-14.280009)"/>
    <path style="fill:#ffffff;fill-opacity:1;stroke:#ffffff;stroke-width:1.411;stroke-miterlimit:4;stroke-dasharray:none;stroke-opacity:1" d="m 95.973234,224.87697 c -4.85562,0.28536 -6.15489,0.0812 -7.69017,-1.20816 -1.76512,-1.48244 -3.99839,-5.45592 -16.72746,-29.7617 -6.36753,-12.15859 -14.15173,-26.93961 -17.29818,-32.84677 l -5.72086,-10.74029 0.28729,-5.44325 c 0.15803,-2.9938 0.40788,-6.14467 0.55528,-7.00191 0.4328,-2.51752 16.00364,-50.265096 16.50158,-50.601656 0.24971,-0.16879 10.19038,1.22781 22.09041,3.10353 11.9,1.87572 31.282836,4.89189 43.072966,6.70262 13.93203,2.13966 21.60183,3.508296 21.90847,3.909446 0.47772,0.625 11.2225,23.74193 11.44031,24.61336 0.14812,0.59413 -3.85602,37.91905 -4.21853,39.31998 -0.31218,1.20644 -8.64631,11.59655 -12.66228,15.78598 -5.03729,5.25489 -39.48396,39.30705 -41.46572,40.99083 -2.471,2.09947 -4.93185,2.87585 -10.073106,3.17799 z m 8.502016,-7.98787 c 2.66344,-2.26517 34.3246,-34.45321 39.41624,-40.07215 5.7169,-6.30895 10.61916,-12.44361 10.93538,-13.68446 0.25025,-0.98197 1.60802,-13.36219 3.41829,-31.16808 l 0.38987,-3.83486 -5.14552,-10.9208 c -2.83004,-6.0064 -5.41319,-11.06824 -5.74033,-11.2485 -1.37009,-0.75491 -74.570466,-11.965996 -76.412456,-11.703036 -0.72076,0.10276 -2.02121,3.59773 -7.79825,20.956646 -3.81327,11.45823 -7.14001,21.73072 -7.39274,22.82781 -0.82499,3.58146 -1.11251,12.22653 -0.44764,13.46075 0.32904,0.61082 4.30226,8.11505 8.82937,16.67605 15.95134,30.16477 24.05153,45.24586 25.55666,47.58179 1.92651,2.98992 2.91091,3.57627 5.47029,3.25828 1.11505,-0.13855 2.22772,-0.23961 2.47266,-0.22461 1.10374,0.0676 5.738916,-1.30162 6.448176,-1.90483 z" id="path4473"/>
    <ellipse style="fill:none;fill-opacity:1;stroke:#040300;stroke-width:3.4554;stroke-miterlimit:4;stroke-dasharray:none;stroke-opacity:1" id="path9454-9-98-5" cx="62.438698" cy="171.99483" rx="76.591927" ry="77.086006" transform="rotate(-14.280009)"/>
    <ellipse style="fill:none;fill-opacity:1;stroke:#040300;stroke-width:3.70391;stroke-miterlimit:4;stroke-dasharray:none;stroke-opacity:1" id="path9454-9-98-5-6" cx="62.438698" cy="171.99484" rx="82.255432" ry="82.4739" transform="rotate(-14.280009)"/>
    <rect style="fill:#ffffff;fill-opacity:1;stroke:#ffffff;stroke-width:1.87894;stroke-miterlimit:4;stroke-dasharray:none;stroke-opacity:1" id="rect4657-0" width="104.82878" height="41.159134" x="-102.42488" y="228.54308" ry="0.78473872" transform="matrix(0.71586216,-0.69824163,0.70977283,0.70443064,0,0)"/>
    <rect style="fill:#ffffff;fill-opacity:1;stroke:#ffffff;stroke-width:1.99295;stroke-miterlimit:4;stroke-dasharray:none;stroke-opacity:1" id="rect4657-0-8" width="110.5562" height="43.906502" x="-160.18958" y="169.98019" ry="0.83711994" transform="matrix(0.11236094,-0.99366746,0.98964068,0.14356642,0,0)"/>
    <rect style="fill:#ffffff;fill-opacity:1;stroke:#ffffff;stroke-width:1.77743;stroke-miterlimit:4;stroke-dasharray:none;stroke-opacity:1" id="rect4657-0-7" width="98.935089" height="39.025974" x="-152.85692" y="44.332787" ry="0.74406797" transform="matrix(0.22769055,-0.97373354,0.9754967,0.22001408,0,0)"/>
    <rect style="fill:#ffffff;fill-opacity:1;stroke:#ffffff;stroke-width:1.96662;stroke-miterlimit:4;stroke-dasharray:none;stroke-opacity:1" id="rect4657-0-7-4" width="107.84877" height="43.827305" x="-259.4736" y="-62.954441" ry="0.83561003" transform="matrix(-0.45239391,-0.89181823,0.86630929,-0.49950797,0,0)"/>
    <path style="fill:#000000;fill-opacity:1;stroke:#ffffff;stroke-width:1.15301;stroke-miterlimit:4;stroke-dasharray:none;stroke-opacity:1" d="m 95.164324,228.68903 c -5.10527,0.30412 -6.47104,0.0917 -8.08376,-1.25711 -1.85417,-1.55079 -4.19783,-5.71015 -17.55432,-31.15398 -6.68137,-12.72789 -14.84935,-28.20092 -18.15101,-34.38464 l -6.00307,-11.24306 0.30792,-5.70149 c 0.16938,-3.13585 0.43546,-6.43629 0.59134,-7.33432 0.45774,-2.6373 16.87967,-52.664276 17.40356,-53.017316 0.26269,-0.17708 10.71232,1.275 23.22141,3.22676 12.50904,1.95178 32.883956,5.08995 45.277576,6.97377 14.64514,2.22604 22.70732,3.65124 23.02927,4.07109 0.50159,0.65408 11.77317,24.854876 12.00123,25.767346 0.15447,0.6223 -4.09493,39.72009 -4.47757,41.18782 -0.32951,1.26393 -9.10282,12.1554 -13.32953,16.5477 -5.30162,5.50932 -41.55392,41.21228 -43.63925,42.97798 -2.60015,2.20162 -5.1882,3.01744 -10.593796,3.33945 z m 8.947206,-8.37556 c 2.80266,-2.37539 36.1244,-36.12289 41.48355,-42.01358 6.01727,-6.61409 11.17788,-13.04473 11.51169,-14.34472 0.26416,-1.02877 1.70501,-13.99711 3.62743,-32.64873 l 0.41403,-4.01702 -5.39797,-11.43274 c -2.96888,-6.288 -5.67921,-11.58689 -6.02295,-11.77535 -1.43965,-0.7892 -78.386826,-12.452606 -80.323676,-12.175166 -0.75786,0.10859 -2.12889,3.77039 -8.22132,21.958126 -4.02144,12.0053 -7.5301,22.76818 -7.79698,23.91751 -0.87123,3.75207 -1.18283,12.80713 -0.48515,14.09912 0.34526,0.63939 4.51443,8.49494 9.26477,17.45677 16.73792,31.57696 25.23779,47.36395 26.81769,49.80896 2.02221,3.12954 3.05652,3.74261 5.74768,3.40678 1.17246,-0.14631 2.34238,-0.25336 2.59989,-0.23791 1.16033,0.0696 6.035006,-1.3695 6.781316,-2.00205 z" id="path4473-9"/>
    <path style="fill:#ffffff;fill-opacity:1;stroke:#ffffff;stroke-width:1.24431;stroke-miterlimit:4;stroke-dasharray:none;stroke-opacity:1" d="m 94.183163,236.12327 c -5.463512,0.31899 -6.925792,0.0847 -8.655036,-1.3868 -1.988119,-1.69181 -4.506211,-6.22323 -18.86072,-33.94076 -7.180631,-13.86527 -15.958738,-30.7211 -19.506826,-37.45753 l -6.451221,-12.248 0.31635,-6.20327 c 0.174024,-3.41182 0.451181,-7.00252 0.615945,-7.97933 0.483801,-2.86868 17.944378,-57.266363 18.504285,-57.649296 0.280766,-0.192066 11.468459,1.412418 24.861533,3.565442 13.393064,2.153043 35.207747,5.615391 48.477117,7.694241 15.67996,2.456474 24.31227,4.026117 24.65782,4.483683 0.53837,0.712924 12.65853,27.073 12.90473,28.06642 0.16697,0.67746 -4.29078,43.21123 -4.69692,44.80741 -0.34975,1.37457 -9.71465,13.20543 -14.22834,17.97496 -5.6616,5.9825 -44.37997,44.74737 -46.60783,46.66382 -2.77788,2.38958 -5.545992,3.27126 -11.330887,3.60901 z m 9.556857,-9.09282 c 2.99421,-2.57819 38.58051,-39.22212 44.3028,-45.61946 6.425,-7.18295 11.93354,-14.1683 12.2878,-15.58207 0.28035,-1.11882 1.79245,-15.22674 3.80681,-35.51771 l 0.43382,-4.3701 -5.80398,-12.453 c -3.19219,-6.84912 -6.10536,-12.62136 -6.47371,-12.82722 -1.54269,-0.862127 -83.926891,-13.733335 -85.999256,-13.435985 -0.810899,0.116434 -2.269837,4.09771 -8.748472,23.874165 -4.276328,13.05401 -8.006759,24.75724 -8.289726,26.00725 -0.923798,4.08073 -1.236302,13.93311 -0.486607,15.34062 0.37105,0.69653 4.851553,9.25418 9.956616,19.01697 17.987904,34.39909 27.121991,51.59733 28.818626,54.26152 2.171651,3.41008 3.280092,4.0796 6.159677,3.72047 1.254575,-0.15647 2.506473,-0.27021 2.782133,-0.2528 1.242092,0.0785 6.456149,-1.47609 7.253469,-2.16265 z" id="path4473-9-1"/>
    <rect style="fill:#ffffff;fill-opacity:1;stroke:#ffffff;stroke-width:1.19285;stroke-miterlimit:4;stroke-dasharray:none;stroke-opacity:1" id="rect4763" width="52.256767" height="22.199501" x="52.756008" y="233.8961" ry="0.52855861" transform="matrix(0.99666865,-0.08155732,0.09834856,0.99515203,0,0)"/>
    <ellipse style="fill:#ffffff;fill-opacity:1;stroke:#000000;stroke-width:0.0793368;stroke-miterlimit:4;stroke-dasharray:none;stroke-opacity:0" id="path4895" cx="103.05362" cy="151.87202" rx="3.8065717" ry="3.505981"/>
    <ellipse style="fill:none;fill-opacity:1;stroke:#000000;stroke-width:1.575;stroke-miterlimit:4;stroke-dasharray:none;stroke-opacity:0" id="path4897" cx="102.84883" cy="151.60945" rx="7.6917009" ry="7.4687376"/>
    <rect style="fill:#ffffff;fill-opacity:1;stroke:none;stroke-width:1.76771;stroke-miterlimit:4;stroke-dasharray:none;stroke-opacity:1" id="rect5142" width="23.543741" height="0.84084797" x="33.629852" y="204.70906" ry="0.42042398"/>
    <rect style="fill:#ffffff;fill-opacity:1;stroke:none;stroke-width:3.30709;stroke-miterlimit:4;stroke-dasharray:none;stroke-opacity:1" id="rect5142-5" width="23.543741" height="2.9429679" x="34.050308" y="218.79326" ry="1.4714839"/>
    <rect style="fill:#ffffff;fill-opacity:1;stroke:#ffffff;stroke-width:1.77743;stroke-miterlimit:4;stroke-dasharray:none;stroke-opacity:1" id="rect4657" width="98.935089" height="39.025974" x="78.200211" y="36.720558" ry="0.74406797" transform="matrix(0.98959023,0.14391381,-0.13611504,0.99069304,0,0)"/>
    <path style="fill:#ffffff;fill-opacity:1;fill-rule:evenodd;stroke:none;stroke-width:0.203826px;stroke-linecap:butt;stroke-linejoin:miter;stroke-opacity:1" d="m 97.354612,157.39306 0.197226,-9.66295 58.034992,-9.52711 -0.5917,28.98885 z" id="path496"/>
    <text style="font-style: normal; font-weight: normal; font-size: 12.6581px; line-height: 125%; font-family: sans-serif; letter-spacing: 0px; word-spacing: 0px; fill: rgb(0, 0, 0); fill-opacity: 1; stroke: rgb(2, 2, 2); stroke-width: 0.51975; stroke-linecap: butt; stroke-linejoin: miter; stroke-miterlimit: 4; stroke-dasharray: none; stroke-opacity: 1; white-space: pre;" x="103.83213" y="153.27322" id="text9452-8-9-1-6" transform="matrix(0.98060297,-0.00694092,-0.02760924,1.0199761,0,0)"><tspan id="tspan9450-8-3-3-9" x="103.83213" y="153.27322" style="fill:#000000;fill-opacity:1;stroke:#020202;stroke-width:0.51975;stroke-miterlimit:4;stroke-dasharray:none;stroke-opacity:1">entreville</tspan></text>
  </g>
</svg>